<svg id="Слой_1" data-name="Слой 1" xmlns="http://www.w3.org/2000/svg" viewBox="0 0 1440 2000"><defs><style>.cls-1{fill:#2d2d2d;}.cls-2{fill:none;stroke:#9d9d9c;stroke-miterlimit:10;stroke-width:2px;}</style></defs><rect class="cls-1" width="1440" height="2800"/><rect class="cls-2" width="1440" height="2800"/><line class="cls-2" y1="100" x2="1440" y2="100"/><line class="cls-2" y1="200" x2="1440" y2="200"/><line class="cls-2" y1="300" x2="1440" y2="300"/><line class="cls-2" y1="400" x2="1440" y2="400"/><line class="cls-2" y1="500" x2="1440" y2="500"/><line class="cls-2" y1="600" x2="1440" y2="600"/><line class="cls-2" y1="700" x2="1440" y2="700"/><line class="cls-2" y1="800" x2="1440" y2="800"/><line class="cls-2" y1="900" x2="1440" y2="900"/><line class="cls-2" y1="1000" x2="1440" y2="1000"/><line class="cls-2" y1="1100" x2="1440" y2="1100"/><line class="cls-2" y1="1200" x2="1440" y2="1200"/><line class="cls-2" y1="1300" x2="1440" y2="1300"/><line class="cls-2" y1="1400" x2="1440" y2="1400"/><line class="cls-2" y1="1500" x2="1440" y2="1500"/><line class="cls-2" y1="1600" x2="1440" y2="1600"/><line class="cls-2" y1="1700" x2="1440" y2="1700"/><line class="cls-2" y1="1800" x2="1440" y2="1800"/><line class="cls-2" y1="1900" x2="1440" y2="1900"/><line class="cls-2" y1="2000" x2="1440" y2="2000"/><line class="cls-2" x1="1337.14" y1="2800" x2="1337.14"/><line class="cls-2" x1="1234.29" y1="2800" x2="1234.29"/><line class="cls-2" x1="1131.43" y1="2800" x2="1131.43"/><line class="cls-2" x1="1028.57" y1="2800" x2="1028.57"/><line class="cls-2" x1="925.71" y1="2800" x2="925.71"/><line class="cls-2" x1="822.86" y1="2800" x2="822.86"/><line class="cls-2" x1="720" y1="2800" x2="720"/><line class="cls-2" x1="617.14" y1="2800" x2="617.14"/><line class="cls-2" x1="514.29" y1="2800" x2="514.29"/><line class="cls-2" x1="411.43" y1="2800" x2="411.43"/><line class="cls-2" x1="308.57" y1="2800" x2="308.57"/><line class="cls-2" x1="205.71" y1="2800" x2="205.71"/><line class="cls-2" x1="102.86" y1="2800" x2="102.86"/></svg>