<svg id="Слой_1" data-name="Слой 1" xmlns="http://www.w3.org/2000/svg" viewBox="0 0 663.51 896.02"><defs><style>.cls-1{fill:#e5e4e4;}.cls-1,.cls-2{stroke:#000;stroke-miterlimit:10;stroke-width:4px;}.cls-2{fill:#c9c8c8;}</style></defs><circle class="cls-1" cx="352.03" cy="349.45" r="71.22"/><path class="cls-2" d="M354.51,278.23a.56.56,0,0,1,.43.91c-4.19,5.06-23.33,30.42-10.12,57.48,14.4,29.48-7.62,14.52-8.75,13.74a.17.17,0,0,0-.1,0c-1.42-.05-31.5-1.6-43.53-38.62a.15.15,0,0,1,0-.13C293.25,310,309.51,278.45,354.51,278.23Z"/><path class="cls-2" d="M414.81,316.57s-37.28-5.63-53.46,16.18,8.79,16.53,8.79,16.53,26.74.77,42.22,38.05c0,0,22.5-35.66,2.45-70.8"/><path class="cls-2" d="M289.06,382s19.19,39.23,59.64,38.53c0,0,22.5-22,13.71-54.71s-18.58,0-18.58,0S327.55,388.32,289.06,382Z"/><circle class="cls-1" cx="352.21" cy="349.63" r="20.05"/><circle class="cls-1" cx="352.03" cy="504.53" r="71.22"/><path class="cls-2" d="M355.72,433.31s-25.67,28.13-10.9,58.38S336,505.41,336,505.41s-31.31-.7-43.62-38.69C292.41,466.72,308.59,433,355.72,433.31Z"/><path class="cls-2" d="M414.81,471.64s-37.28-5.62-53.46,16.18,8.79,16.54,8.79,16.54,27.09,1.4,42.56,38.68c0,0,22.16-36.29,2.11-71.43"/><path class="cls-2" d="M289.06,537.07s19.18,39.39,59.63,38.69c0,0,22.51-22.16,13.72-54.87s-18.58,0-18.58,0S327.55,543.4,289.06,537.07Z"/><circle class="cls-1" cx="352.21" cy="504.71" r="20.05"/></svg>