<svg id="Слой_1" data-name="Слой 1" xmlns="http://www.w3.org/2000/svg" viewBox="0 0 774.78 406.75"><defs><style>.cls-1,.cls-2,.cls-9{fill:#6f6f6e;}.cls-1,.cls-3,.cls-4,.cls-5,.cls-6,.cls-7,.cls-8,.cls-9{stroke:#000;stroke-miterlimit:10;}.cls-1{stroke-width:3px;}.cls-3{fill:#e5e4e4;}.cls-3,.cls-4,.cls-5,.cls-6{stroke-width:5px;}.cls-5{fill:#1a1a1a;}.cls-6{fill:#575756;}.cls-7{fill:#562e37;}.cls-7,.cls-8,.cls-9{stroke-width:2px;}.cls-8{fill:#3c3c3b;}.cls-10{fill:#e20613;}.cls-11{fill:#1d1d1b;}.cls-12{fill:#fdd903;}.cls-13{fill:#ffef72;}</style></defs><circle class="cls-1" cx="457.13" cy="163.13" r="16.28"/><rect x="408.14" y="156.29" width="14.13" height="14.13"/><rect x="450.07" y="156.07" width="14.13" height="14.13"/><circle class="cls-1" cx="537.21" cy="118.27" r="16.28"/><rect x="488.22" y="111.43" width="14.13" height="14.13"/><rect x="530.15" y="111.21" width="14.13" height="14.13"/><rect class="cls-2" x="108.94" y="75.74" width="582.96" height="248.78"/><rect class="cls-3" x="98.84" y="63.97" width="582.96" height="250.5"/><rect class="cls-4" x="117.88" y="193.87" width="545.01" height="28.42"/><rect class="cls-5" x="98.84" y="63.18" width="582.96" height="36.24"/><rect class="cls-3" x="121.69" y="190.05" width="537.27" height="36.2"/><rect class="cls-6" x="121.53" y="190.05" width="458.04" height="36.2"/><circle class="cls-7" cx="116.08" cy="81.5" r="10.18"/><circle class="cls-8" cx="144.21" cy="81.77" r="10.18"/><circle class="cls-9" cx="172.57" cy="81.77" r="10.18"/><rect class="cls-10" x="376.54" y="260.1" width="6.15" height="18.41"/><rect class="cls-10" x="379.64" y="275.95" width="6.15" height="8.72"/><rect class="cls-10" x="383.21" y="282.1" width="5.63" height="5.63"/><rect class="cls-10" x="420.56" y="282.1" width="5.63" height="5.63"/><rect class="cls-10" x="423.65" y="275.46" width="6.13" height="9.18"/><rect class="cls-10" x="426.72" y="260.11" width="6.13" height="18.42"/><rect class="cls-10" x="423.65" y="253.95" width="6.13" height="9.21"/><rect class="cls-10" x="420.57" y="250.38" width="6.13" height="6.13"/><rect class="cls-10" x="417.5" y="247.31" width="6.13" height="6.13"/><rect class="cls-10" x="411.35" y="244.24" width="9.22" height="6.13"/><rect class="cls-10" x="395.49" y="241.16" width="18.43" height="6.13"/><rect class="cls-10" x="385.77" y="247.29" width="12.77" height="3.07"/><rect class="cls-10" x="388.84" y="244.22" width="9.69" height="3.07"/><rect class="cls-10" x="414.41" y="279.03" width="6.15" height="6.15"/><rect class="cls-10" x="410.84" y="275.49" width="6.15" height="6.15"/><rect class="cls-10" x="407.76" y="272.41" width="6.15" height="6.15"/><rect class="cls-10" x="404.69" y="269.34" width="6.15" height="6.15"/><rect class="cls-10" x="401.62" y="266.27" width="6.15" height="6.15"/><rect class="cls-10" x="398.54" y="263.19" width="6.15" height="6.15"/><rect class="cls-10" x="395.47" y="260.12" width="6.15" height="6.15"/><rect class="cls-10" x="392.4" y="257.05" width="6.15" height="6.15"/><rect class="cls-10" x="389.32" y="253.97" width="6.15" height="6.15"/><rect class="cls-10" x="382.71" y="250.36" width="9.68" height="6.69"/><rect class="cls-10" x="379.62" y="253.97" width="6.15" height="9.22"/><rect class="cls-10" x="386.3" y="285.17" width="5.63" height="5.63"/><rect class="cls-10" x="417.49" y="285.17" width="5.63" height="5.63"/><rect class="cls-10" x="389.35" y="288.24" width="9.21" height="6.14"/><rect class="cls-10" x="410.84" y="288.24" width="9.21" height="6.14"/><rect class="cls-10" x="395.49" y="291.31" width="18.42" height="6.14"/><rect class="cls-11" x="374.57" y="260.89" width="6.15" height="18.41"/><rect class="cls-11" x="377.67" y="276.74" width="6.15" height="8.72"/><rect class="cls-11" x="381.24" y="282.89" width="5.63" height="5.63"/><rect class="cls-11" x="418.59" y="282.89" width="5.63" height="5.63"/><rect class="cls-11" x="421.68" y="276.24" width="6.13" height="9.18"/><rect class="cls-11" x="424.75" y="260.89" width="6.13" height="18.42"/><rect class="cls-11" x="421.68" y="254.74" width="6.13" height="9.21"/><rect class="cls-11" x="418.6" y="251.16" width="6.13" height="6.13"/><rect class="cls-11" x="415.53" y="248.1" width="6.13" height="6.13"/><rect class="cls-11" x="409.38" y="245.03" width="9.22" height="6.13"/><rect class="cls-11" x="393.52" y="241.94" width="18.43" height="6.13"/><rect class="cls-11" x="383.8" y="248.08" width="12.77" height="3.07"/><rect class="cls-11" x="386.87" y="245.01" width="9.69" height="3.07"/><rect class="cls-11" x="412.44" y="279.81" width="6.15" height="6.15"/><rect class="cls-11" x="408.86" y="276.27" width="6.15" height="6.15"/><rect class="cls-11" x="405.79" y="273.2" width="6.15" height="6.15"/><rect class="cls-11" x="402.72" y="270.13" width="6.15" height="6.15"/><rect class="cls-11" x="399.65" y="267.05" width="6.15" height="6.15"/><rect class="cls-11" x="396.57" y="263.98" width="6.15" height="6.15"/><rect class="cls-11" x="393.5" y="260.91" width="6.15" height="6.15"/><rect class="cls-11" x="390.43" y="257.83" width="6.15" height="6.15"/><rect class="cls-11" x="387.35" y="254.76" width="6.15" height="6.15"/><rect class="cls-11" x="380.74" y="251.15" width="9.68" height="6.69"/><rect class="cls-11" x="377.65" y="254.76" width="6.15" height="9.22"/><rect class="cls-11" x="384.32" y="285.96" width="5.63" height="5.63"/><rect class="cls-11" x="415.52" y="285.96" width="5.63" height="5.63"/><rect class="cls-11" x="387.38" y="289.03" width="9.21" height="6.14"/><rect class="cls-11" x="408.87" y="289.03" width="9.21" height="6.14"/><rect class="cls-11" x="393.52" y="292.1" width="18.42" height="6.14"/><polygon class="cls-12" points="581 190.8 562.51 226.41 599.5 226.41 581 190.8"/><rect class="cls-13" x="579.39" y="191.82" width="1.61" height="3.55"/><rect class="cls-13" x="577.62" y="195.37" width="1.78" height="3.55"/><rect class="cls-13" x="575.84" y="198.92" width="1.78" height="3.55"/><rect class="cls-13" x="574.06" y="202.47" width="1.78" height="3.55"/><rect class="cls-13" x="572.28" y="206.01" width="1.78" height="3.55"/><rect class="cls-13" x="570.51" y="209.56" width="1.78" height="3.55"/><rect class="cls-13" x="568.73" y="213.11" width="1.78" height="3.55"/><rect class="cls-13" x="566.95" y="216.65" width="1.78" height="3.55"/><rect class="cls-13" x="565.18" y="220.2" width="1.78" height="3.55"/><rect class="cls-13" x="563.4" y="223.75" width="35.21" height="1.77"/><rect class="cls-13" x="582.63" y="195.37" width="1.78" height="3.55"/><rect class="cls-13" x="584.4" y="198.92" width="1.78" height="3.55"/><rect class="cls-13" x="586.18" y="202.47" width="1.78" height="3.55"/><rect class="cls-13" x="587.96" y="206.01" width="1.78" height="3.55"/><rect class="cls-13" x="589.73" y="209.56" width="1.78" height="3.55"/><rect class="cls-13" x="591.51" y="213.11" width="1.78" height="3.55"/><rect class="cls-13" x="593.29" y="216.65" width="1.78" height="3.55"/><rect class="cls-13" x="595.07" y="220.2" width="1.78" height="3.55"/><rect class="cls-13" x="580.85" y="191.82" width="1.78" height="3.55"/><rect class="cls-11" x="561.62" y="225.52" width="38.76" height="1.78"/><rect class="cls-11" x="579.21" y="213.3" width="3.92" height="3.92"/><rect class="cls-11" x="579.21" y="218.53" width="3.92" height="3.92"/><rect class="cls-11" x="577.91" y="219.83" width="1.3" height="1.31"/><rect class="cls-11" x="583.13" y="219.83" width="1.3" height="1.31"/><rect class="cls-11" x="577.91" y="209.38" width="6.52" height="3.92"/><rect class="cls-11" x="576.61" y="205.47" width="9.12" height="3.92"/><rect class="cls-11" x="561.62" y="223.75" width="1.78" height="3.55"/><rect class="cls-11" x="563.4" y="220.2" width="1.78" height="3.55"/><rect class="cls-11" x="565.18" y="216.65" width="1.78" height="3.55"/><rect class="cls-11" x="566.95" y="213.11" width="1.78" height="3.55"/><rect class="cls-11" x="568.73" y="209.56" width="1.78" height="3.55"/><rect class="cls-11" x="570.51" y="206.01" width="1.78" height="3.55"/><rect class="cls-11" x="572.28" y="202.47" width="1.78" height="3.55"/><rect class="cls-11" x="574.06" y="198.92" width="1.78" height="3.55"/><rect class="cls-11" x="575.84" y="195.37" width="1.78" height="3.55"/><rect class="cls-11" x="577.62" y="191.82" width="1.78" height="3.55"/><rect class="cls-11" x="579.39" y="188.28" width="1.78" height="3.55"/><rect class="cls-11" x="596.84" y="220.2" width="1.78" height="3.55"/><rect class="cls-11" x="595.07" y="216.65" width="1.78" height="3.55"/><rect class="cls-11" x="593.29" y="213.11" width="1.78" height="3.55"/><rect class="cls-11" x="591.51" y="209.56" width="1.78" height="3.55"/><rect class="cls-11" x="589.73" y="206.01" width="1.78" height="3.55"/><rect class="cls-11" x="587.96" y="202.47" width="1.78" height="3.55"/><rect class="cls-11" x="586.18" y="198.92" width="1.78" height="3.55"/><rect class="cls-11" x="584.4" y="195.37" width="1.78" height="3.55"/><rect class="cls-11" x="582.63" y="191.82" width="1.78" height="3.55"/><rect class="cls-11" x="580.85" y="188.28" width="1.78" height="3.55"/><rect class="cls-11" x="598.61" y="223.75" width="1.78" height="3.55"/></svg>