<svg id="Слой_1" data-name="Слой 1" xmlns="http://www.w3.org/2000/svg" viewBox="0 0 663.71 570.21"><defs><style>.cls-1{fill:#1d1d1b;}.cls-2,.cls-7{fill:#3c3c3b;}.cls-10,.cls-11,.cls-2{stroke:#231f20;stroke-width:0.05px;}.cls-10,.cls-11,.cls-13,.cls-14,.cls-15,.cls-16,.cls-2,.cls-3,.cls-4,.cls-5,.cls-6,.cls-7,.cls-8{stroke-miterlimit:10;}.cls-3,.cls-8{fill:#6f6f6e;}.cls-13,.cls-14,.cls-15,.cls-16,.cls-3,.cls-4,.cls-5,.cls-6,.cls-7,.cls-8{stroke:#000;}.cls-3,.cls-4,.cls-5{stroke-width:2px;}.cls-4{fill:#e5e4e4;}.cls-5{fill:#c14f4f;}.cls-6{fill:#562e37;}.cls-9{font-size:24.63px;letter-spacing:0.04em;}.cls-17,.cls-9{font-family:Fifaks1.0dev1, "Fifaks 1.0 dev1";}.cls-10,.cls-12,.cls-16{fill:#e5332a;}.cls-11{fill:#1a1a1a;}.cls-13{fill:#e5e5e5;}.cls-14{fill:#35a8e0;}.cls-15{fill:#fcbd3d;}.cls-17{font-size:35.34px;letter-spacing:0.04em;}</style></defs><rect class="cls-1" x="163.36" y="368.29" width="129.74" height="1.4"/><polygon class="cls-2" points="315.2 361.25 310.55 361.25 310.55 363.45 308.65 363.45 308.65 361.25 304 361.25 304 363.45 301.8 363.45 301.8 368.11 304 368.11 304 370.3 306.2 370.3 306.2 372.5 308.37 372.5 308.37 374.65 310.82 374.65 310.82 372.5 313 372.5 313 370.3 315.2 370.3 315.2 368.11 317.4 368.11 317.4 363.45 315.2 363.45 315.2 361.25"/><polygon class="cls-2" points="151.28 197.34 146.63 197.34 146.63 199.53 144.74 199.53 144.74 197.34 140.08 197.34 140.08 199.53 137.89 199.53 137.89 204.19 140.08 204.19 140.08 206.38 142.28 206.38 142.28 208.58 144.45 208.58 144.45 210.74 146.91 210.74 146.91 208.58 149.09 208.58 149.09 206.38 151.28 206.38 151.28 204.19 153.48 204.19 153.48 199.53 151.28 199.53 151.28 197.34"/><rect class="cls-3" x="113.07" y="58.98" width="447.68" height="425.37"/><rect class="cls-4" x="105.58" y="50.56" width="446.58" height="424.33"/><rect class="cls-5" x="105.58" y="49.96" width="446.58" height="27.76"/><circle class="cls-6" cx="118.99" cy="63.4" r="7.12"/><circle class="cls-7" cx="137.1" cy="63.4" r="7.12"/><circle class="cls-8" cx="155.4" cy="63.4" r="7.12"/><rect class="cls-1" x="177.62" y="64.19" width="107.97" height="1.34"/><rect class="cls-1" x="396.46" y="64.63" width="124.65" height="1.34"/><text class="cls-9" transform="translate(296.42 74.56) scale(1 0.89)">юзбфарм</text><rect class="cls-10" x="201.93" y="101.93" width="281.01" height="281.01" rx="11.42"/><rect class="cls-11" x="197.34" y="97.34" width="281.01" height="281.01" rx="11.42"/><polygon class="cls-12" points="428.36 193.24 428.36 174.2 407 174.2 407 155.16 364.26 155.16 364.26 174.2 342.89 174.2 342.89 193.24 321.53 193.24 321.53 174.2 300.16 174.2 300.16 155.16 257.43 155.16 257.43 174.2 236.06 174.2 236.06 193.24 214.69 193.24 214.69 250.37 236.06 250.37 236.06 269.41 257.43 269.41 257.43 288.46 278.79 288.46 278.79 307.5 300.16 307.5 300.16 326.54 321.53 326.54 321.53 345.58 342.89 345.58 342.89 326.54 364.26 326.54 364.26 307.5 385.63 307.5 385.63 288.46 407 288.46 407 269.41 428.36 269.41 428.36 250.37 449.73 250.37 449.73 193.24 428.36 193.24"/><polygon class="cls-2" points="542.35 57.87 537.88 57.87 537.88 59.98 536.05 59.98 536.05 57.87 531.58 57.87 531.58 59.98 529.47 59.98 529.47 64.45 531.58 64.45 531.58 66.56 533.7 66.56 533.7 68.67 535.78 68.67 535.78 70.74 538.14 70.74 538.14 68.67 540.23 68.67 540.23 66.56 542.35 66.56 542.35 64.45 544.46 64.45 544.46 59.98 542.35 59.98 542.35 57.87"/><rect class="cls-13" x="131.33" y="407.16" width="403.47" height="42.47" rx="5.84"/><path class="cls-14" d="M138.08,407.16H221.7v42.47H138.08a5.84,5.84,0,0,1-5.84-5.84h0V413a5.83,5.83,0,0,1,5.84-5.83Z"/><rect class="cls-13" x="128.41" y="409.76" width="403.47" height="42.47" rx="5.84"/><path class="cls-15" d="M133.74,410.27h83.63v42.47H133.74a5.83,5.83,0,0,1-5.83-5.83h0v-30.8a5.84,5.84,0,0,1,5.83-5.84Z"/><rect class="cls-13" x="124.98" y="412.57" width="403.47" height="42.47" rx="5.84"/><path class="cls-16" d="M129.85,412.77h82.64v42H129.85a5.76,5.76,0,0,1-5.77-5.76h0V418.54A5.77,5.77,0,0,1,129.85,412.77Z"/><path d="M179.12,448l-8-10.29a11.29,11.29,0,1,0-1.54,1.19l8,10.29a1,1,0,0,0,1.54-1.19Zm-16.78-9.33a9.3,9.3,0,1,1,10.4-8.07A9.3,9.3,0,0,1,162.34,438.7Z"/><text class="cls-17" transform="translate(219.9 450.37) scale(1 0.89)">КАК ВЫЛЕЧИТЬ ПК?</text></svg>