<svg id="Слой_1" data-name="Слой 1" xmlns="http://www.w3.org/2000/svg" viewBox="0 0 612.98 538.42"><defs><style>.cls-1,.cls-6{fill:#6f6f6e;}.cls-1,.cls-10,.cls-11,.cls-12,.cls-13,.cls-2,.cls-3,.cls-4,.cls-5,.cls-6{stroke:#000;}.cls-1,.cls-10,.cls-11,.cls-12,.cls-13,.cls-15,.cls-16,.cls-2,.cls-3,.cls-4,.cls-5,.cls-6,.cls-9{stroke-miterlimit:10;}.cls-1,.cls-2,.cls-3{stroke-width:2px;}.cls-2{fill:#e5e4e4;}.cls-3{fill:#4ea577;}.cls-4{fill:#562e37;}.cls-5,.cls-9{fill:#3c3c3b;}.cls-7{fill:#1d1d1b;}.cls-8{font-size:23.07px;letter-spacing:0.04em;}.cls-14,.cls-8{font-family:Fifaks1.0dev1, "Fifaks 1.0 dev1";}.cls-15,.cls-16,.cls-9{stroke:#231f20;stroke-width:0.05px;}.cls-10,.cls-18{fill:#e5e5e5;}.cls-11{fill:#35a8e0;}.cls-12{fill:#fcbd3d;}.cls-13{fill:#e5332a;}.cls-14{font-size:33.11px;letter-spacing:0.04em;}.cls-15,.cls-19{fill:#00c462;}.cls-16{fill:#1a1a1a;}.cls-17{fill:none;}</style></defs><rect class="cls-1" x="103.76" y="60.45" width="419.43" height="398.53"/><rect class="cls-2" x="95.76" y="52.52" width="418.4" height="397.55"/><rect class="cls-3" x="95.76" y="51.95" width="418.4" height="26.01"/><circle class="cls-4" cx="108.89" cy="64.96" r="6.67"/><circle class="cls-5" cx="125.86" cy="64.96" r="6.67"/><circle class="cls-6" cx="143" cy="64.96" r="6.67"/><rect class="cls-7" x="163.82" y="65.7" width="101.15" height="1.26"/><rect class="cls-7" x="368.29" y="65.7" width="116.79" height="1.26"/><text class="cls-8" transform="translate(275.12 75.42) scale(1 0.89)">юзбфарм</text><polygon class="cls-9" points="504.97 59.37 500.78 59.37 500.78 61.34 499.07 61.34 499.07 59.37 494.89 59.37 494.89 61.34 492.91 61.34 492.91 65.53 494.89 65.53 494.89 67.51 496.87 67.51 496.87 69.49 498.82 69.49 498.82 71.43 501.03 71.43 501.03 69.49 502.99 69.49 502.99 67.51 504.97 67.51 504.97 65.53 506.95 65.53 506.95 61.34 504.97 61.34 504.97 59.37"/><rect class="cls-10" x="119.89" y="386.62" width="378.01" height="39.79" rx="5.47"/><path class="cls-11" d="M126.21,386.62h78.35v39.79H126.21a5.47,5.47,0,0,1-5.47-5.47h0V392.08a5.46,5.46,0,0,1,5.47-5.46Z"/><rect class="cls-10" x="117.16" y="389.06" width="378.01" height="39.79" rx="5.47"/><path class="cls-12" d="M122.15,389.54H200.5v39.79H122.15a5.47,5.47,0,0,1-5.47-5.47h0V395a5.47,5.47,0,0,1,5.47-5.47Z"/><rect class="cls-10" x="113.94" y="391.69" width="378.01" height="39.79" rx="5.47"/><path class="cls-13" d="M118.5,391.88h77.42V431.2H118.5a5.4,5.4,0,0,1-5.4-5.4h0V397.28A5.4,5.4,0,0,1,118.5,391.88Z"/><path d="M164.66,424.92l-7.47-9.65a10.5,10.5,0,1,0-1.43,1.12l7.47,9.64a.91.91,0,0,0,1.43-1.11Zm-15.72-8.75a8.71,8.71,0,1,1,9.75-7.56A8.72,8.72,0,0,1,148.94,416.17Z"/><text class="cls-14" transform="translate(202.87 427.1) scale(1 0.89)">КАК УБИТЬ ВИРУС?</text><rect class="cls-15" x="178.35" y="100.71" width="267.04" height="267.04" rx="17.3"/><rect class="cls-16" x="173.99" y="96.35" width="267.04" height="267.04" rx="17.3"/><rect class="cls-17" x="269.56" y="189.57" width="79.87" height="85.21"/><polygon class="cls-18" points="352.99 274.77 352.1 274.77 351.21 274.77 349.43 274.77 349.43 288.98 351.21 288.98 352.1 288.98 352.99 288.98 353.88 288.98 354.77 288.98 354.77 274.77 353.88 274.77 352.99 274.77"/><polygon class="cls-18" points="239.38 203.77 238.49 203.77 237.6 203.77 235.82 203.77 235.82 217.97 237.6 217.97 238.49 217.97 239.38 217.97 240.27 217.97 241.16 217.97 241.16 203.77 240.27 203.77 239.38 203.77"/><polygon class="cls-18" points="225.18 217.97 224.29 217.97 223.4 217.97 221.62 217.97 221.62 232.17 223.4 232.17 224.29 232.17 225.18 232.17 226.07 232.17 226.96 232.17 226.96 217.97 226.07 217.97 225.18 217.97"/><polygon class="cls-18" points="253.58 274.77 252.69 274.77 251.8 274.77 250.02 274.77 250.02 288.98 251.8 288.98 252.69 288.98 253.58 288.98 254.47 288.98 255.36 288.98 255.36 274.77 254.47 274.77 253.58 274.77"/><polygon class="cls-18" points="239.38 288.98 238.49 288.98 237.6 288.98 235.82 288.98 235.82 303.18 237.6 303.18 238.49 303.18 239.38 303.18 240.27 303.18 241.16 303.18 241.16 288.98 240.27 288.98 239.38 288.98"/><polygon class="cls-18" points="225.18 303.18 224.29 303.18 223.4 303.18 221.62 303.18 221.62 317.38 223.4 317.38 224.29 317.38 225.18 317.38 226.07 317.38 226.96 317.38 226.96 303.18 226.07 303.18 225.18 303.18"/><polygon class="cls-18" points="367.19 203.77 366.3 203.77 365.41 203.77 363.63 203.77 363.63 274.77 365.41 274.77 366.3 274.77 367.19 274.77 368.08 274.77 368.97 274.77 368.97 203.77 368.08 203.77 367.19 203.77"/><polygon class="cls-18" points="266.89 274.77 267.78 274.77 268.67 274.77 269.56 274.77 269.56 189.57 268.67 189.57 267.78 189.57 266.89 189.57 266 189.57 264.22 189.57 264.22 274.77 266 274.77 266.89 274.77"/><polygon class="cls-18" points="380.5 203.77 381.39 203.77 382.28 203.77 383.17 203.77 383.17 189.57 382.28 189.57 381.39 189.57 380.5 189.57 379.61 189.57 377.83 189.57 377.83 203.77 379.61 203.77 380.5 203.77"/><polygon class="cls-18" points="394.7 217.97 395.59 217.97 396.48 217.97 397.38 217.97 397.38 203.77 396.48 203.77 395.59 203.77 394.7 203.77 393.81 203.77 392.03 203.77 392.03 217.97 393.81 217.97 394.7 217.97"/><polygon class="cls-18" points="266.89 161.16 267.78 161.16 268.67 161.16 269.56 161.16 269.56 146.96 268.67 146.96 267.78 146.96 266.89 146.96 266 146.96 264.22 146.96 264.22 161.16 266 161.16 266.89 161.16"/><polygon class="cls-18" points="379.61 288.98 380.5 288.98 381.39 288.98 382.28 288.98 383.17 288.98 383.17 274.77 382.28 274.77 381.39 274.77 380.5 274.77 379.61 274.77 377.83 274.77 377.83 288.98 379.61 288.98"/><polygon class="cls-18" points="393.81 303.18 394.7 303.18 395.59 303.18 396.48 303.18 397.38 303.18 397.38 288.98 396.48 288.98 395.59 288.98 394.7 288.98 393.81 288.98 392.03 288.98 392.03 303.18 393.81 303.18"/><polygon class="cls-18" points="408.01 317.38 408.91 317.38 409.79 317.38 410.69 317.38 411.58 317.38 411.58 303.18 410.69 303.18 409.79 303.18 408.91 303.18 408.01 303.18 406.24 303.18 406.24 317.38 408.01 317.38"/><polygon class="cls-18" points="408.01 232.17 408.91 232.17 409.79 232.17 410.69 232.17 411.58 232.17 411.58 217.97 410.69 217.97 409.79 217.97 408.91 217.97 408.01 217.97 406.24 217.97 406.24 232.17 408.01 232.17"/><polygon class="cls-18" points="351.21 189.57 352.1 189.57 352.99 189.57 353.88 189.57 354.77 189.57 354.77 161.16 353.88 161.16 352.99 161.16 352.1 161.16 351.21 161.16 349.43 161.16 349.43 189.57 351.21 189.57"/><polygon class="cls-18" points="280.2 175.37 281.09 175.37 281.98 175.37 282.87 175.37 283.76 175.37 283.76 161.16 282.87 161.16 281.98 161.16 281.09 161.16 280.2 161.16 278.42 161.16 278.42 175.37 280.2 175.37"/><polygon class="cls-18" points="379.61 161.16 380.5 161.16 381.39 161.16 382.28 161.16 383.17 161.16 383.17 146.96 382.28 146.96 381.39 146.96 380.5 146.96 379.61 146.96 377.83 146.96 377.83 161.16 379.61 161.16"/><polygon class="cls-19" points="269.56 274.77 268.67 274.77 267.78 274.77 266.89 274.77 266 274.77 264.22 274.77 264.22 288.98 266 288.98 266.89 288.98 267.78 288.98 268.67 288.98 269.56 288.98 349.43 288.98 349.43 274.77 269.56 274.77"/><polygon class="cls-19" points="241.16 189.57 240.27 189.57 239.38 189.57 238.49 189.57 237.6 189.57 235.82 189.57 235.82 203.77 237.6 203.77 238.49 203.77 239.38 203.77 240.27 203.77 241.16 203.77 250.02 203.77 250.02 274.77 251.8 274.77 252.69 274.77 253.58 274.77 254.47 274.77 255.36 274.77 264.22 274.77 264.22 189.57 241.16 189.57"/><polygon class="cls-19" points="226.96 203.77 226.07 203.77 225.18 203.77 224.29 203.77 223.4 203.77 221.62 203.77 221.62 217.97 223.4 217.97 224.29 217.97 225.18 217.97 226.07 217.97 226.96 217.97 235.82 217.97 235.82 203.77 226.96 203.77"/><polygon class="cls-19" points="212.76 217.97 211.86 217.97 210.98 217.97 210.09 217.97 209.19 217.97 207.41 217.97 207.41 232.17 209.19 232.17 210.09 232.17 210.98 232.17 211.86 232.17 212.76 232.17 221.62 232.17 221.62 217.97 212.76 217.97"/><polygon class="cls-19" points="241.16 274.77 240.27 274.77 239.38 274.77 238.49 274.77 237.6 274.77 235.82 274.77 235.82 288.98 237.6 288.98 238.49 288.98 239.38 288.98 240.27 288.98 241.16 288.98 250.02 288.98 250.02 274.77 241.16 274.77"/><polygon class="cls-19" points="226.96 288.98 226.07 288.98 225.18 288.98 224.29 288.98 223.4 288.98 221.62 288.98 221.62 303.18 223.4 303.18 224.29 303.18 225.18 303.18 226.07 303.18 226.96 303.18 235.82 303.18 235.82 288.98 226.96 288.98"/><polygon class="cls-19" points="212.76 303.18 211.86 303.18 210.98 303.18 210.09 303.18 209.19 303.18 207.41 303.18 207.41 317.38 209.19 317.38 210.09 317.38 210.98 317.38 211.86 317.38 212.76 317.38 221.62 317.38 221.62 303.18 212.76 303.18"/><polygon class="cls-19" points="367.19 274.77 366.3 274.77 365.41 274.77 363.63 274.77 363.63 288.98 365.41 288.98 366.3 288.98 367.19 288.98 368.08 288.98 368.97 288.98 377.83 288.98 377.83 274.77 368.97 274.77 368.08 274.77 367.19 274.77"/><polygon class="cls-19" points="381.39 288.98 380.5 288.98 379.61 288.98 377.83 288.98 377.83 303.18 379.61 303.18 380.5 303.18 381.39 303.18 382.28 303.18 383.17 303.18 392.03 303.18 392.03 288.98 383.17 288.98 382.28 288.98 381.39 288.98"/><polygon class="cls-19" points="395.59 303.18 394.7 303.18 393.81 303.18 392.03 303.18 392.03 317.38 393.81 317.38 394.7 317.38 395.59 317.38 396.48 317.38 397.38 317.38 406.24 317.38 406.24 303.18 397.38 303.18 396.48 303.18 395.59 303.18"/><polygon class="cls-19" points="354.77 189.57 353.88 189.57 352.99 189.57 352.1 189.57 351.21 189.57 349.43 189.57 349.43 274.77 351.21 274.77 352.1 274.77 352.99 274.77 353.88 274.77 354.77 274.77 363.63 274.77 363.63 203.77 365.41 203.77 366.3 203.77 367.19 203.77 368.08 203.77 368.97 203.77 377.83 203.77 377.83 189.57 354.77 189.57"/><polygon class="cls-19" points="383.17 203.77 382.28 203.77 381.39 203.77 380.5 203.77 379.61 203.77 377.83 203.77 377.83 217.97 379.61 217.97 380.5 217.97 381.39 217.97 382.28 217.97 383.17 217.97 392.03 217.97 392.03 203.77 383.17 203.77"/><polygon class="cls-19" points="393.81 232.17 394.7 232.17 395.59 232.17 396.48 232.17 397.38 232.17 406.24 232.17 406.24 217.97 397.38 217.97 396.48 217.97 395.59 217.97 394.7 217.97 393.81 217.97 392.03 217.97 392.03 232.17 393.81 232.17"/><polygon class="cls-19" points="241.16 146.96 240.27 146.96 239.38 146.96 238.49 146.96 237.6 146.96 235.82 146.96 235.82 161.16 237.6 161.16 238.49 161.16 239.38 161.16 240.27 161.16 241.16 161.16 264.22 161.16 264.22 146.96 241.16 146.96"/><polygon class="cls-19" points="266.89 189.57 267.78 189.57 268.67 189.57 269.56 189.57 349.43 189.57 349.43 161.16 340.57 161.16 339.68 161.16 338.79 161.16 337.9 161.16 337.01 161.16 335.23 161.16 335.23 175.37 283.76 175.37 282.87 175.37 281.98 175.37 281.09 175.37 280.2 175.37 278.42 175.37 278.42 161.16 269.56 161.16 268.67 161.16 267.78 161.16 266.89 161.16 266 161.16 264.22 161.16 264.22 189.57 266 189.57 266.89 189.57"/><polygon class="cls-19" points="352.1 161.16 352.99 161.16 353.88 161.16 354.77 161.16 377.83 161.16 377.83 146.96 354.77 146.96 353.88 146.96 352.99 146.96 352.1 146.96 351.21 146.96 349.43 146.96 349.43 161.16 351.21 161.16 352.1 161.16"/></svg>