<svg id="Слой_1" data-name="Слой 1" xmlns="http://www.w3.org/2000/svg" viewBox="0 0 795.63 568.27"><defs><style>.cls-1,.cls-6,.cls-9{fill:#6f6f6e;}.cls-1,.cls-10,.cls-11,.cls-12,.cls-13,.cls-2,.cls-3,.cls-4,.cls-5,.cls-6{stroke:#000;}.cls-1,.cls-10,.cls-11,.cls-12,.cls-13,.cls-16,.cls-17,.cls-2,.cls-3,.cls-4,.cls-5,.cls-6{stroke-miterlimit:10;}.cls-1,.cls-2,.cls-3{stroke-width:2px;}.cls-2{fill:#e5e4e4;}.cls-3,.cls-5{fill:#3c3c3b;}.cls-4{fill:#562e37;}.cls-7{fill:#1d1d1b;}.cls-8{font-size:35.56px;letter-spacing:0.04em;}.cls-14,.cls-8{font-family:Fifaks1.0dev1, "Fifaks 1.0 dev1";}.cls-10{fill:#e5e5e5;}.cls-11{fill:#35a8e0;}.cls-12{fill:#fcbd3d;}.cls-13,.cls-15,.cls-17{fill:#e5332a;}.cls-14{font-size:51.03px;letter-spacing:0.04em;}.cls-16{fill:#1a1a1a;}.cls-16,.cls-17{stroke:#231f20;stroke-width:0.05px;}</style></defs><rect class="cls-1" x="82.71" y="94.89" width="646.43" height="398.98"/><rect class="cls-2" x="75.22" y="87.74" width="644.84" height="398"/><rect class="cls-3" x="75.22" y="86.87" width="644.84" height="40.08"/><circle class="cls-4" cx="95.45" cy="106.92" r="10.27"/><circle class="cls-5" cx="121.6" cy="106.92" r="10.27"/><circle class="cls-6" cx="148.02" cy="106.92" r="10.27"/><rect class="cls-7" x="180.11" y="108.06" width="155.9" height="1.94"/><rect class="cls-7" x="495.25" y="108.06" width="179.99" height="1.94"/><text class="cls-8" transform="translate(351.65 123.04) scale(1 0.89)">юзбфарм</text><polygon class="cls-9" points="705.89 98.3 699.44 98.3 699.44 101.35 696.81 101.35 696.81 98.3 690.35 98.3 690.35 101.35 687.3 101.35 687.3 107.8 690.35 107.8 690.35 110.85 693.4 110.85 693.4 113.9 696.42 113.9 696.42 116.89 699.82 116.89 699.82 113.9 702.84 113.9 702.84 110.85 705.89 110.85 705.89 107.8 708.94 107.8 708.94 101.35 705.89 101.35 705.89 98.3"/><rect class="cls-10" x="112.41" y="384.13" width="582.6" height="61.32" rx="8.43"/><path class="cls-11" d="M122.15,384.13H242.89v61.33H122.15a8.42,8.42,0,0,1-8.43-8.43h0V392.56a8.43,8.43,0,0,1,8.43-8.43Z"/><rect class="cls-10" x="108.19" y="387.9" width="582.6" height="61.32" rx="8.43"/><path class="cls-12" d="M115.89,388.64H236.64V450H115.89a8.42,8.42,0,0,1-8.43-8.42h0V397.07a8.42,8.42,0,0,1,8.43-8.43Z"/><rect class="cls-10" x="103.24" y="391.95" width="582.6" height="61.32" rx="8.43"/><path class="cls-13" d="M110.26,392.25H229.59v60.6H110.26a8.32,8.32,0,0,1-8.32-8.33h0V400.57A8.31,8.31,0,0,1,110.26,392.25Z"/><path d="M181.41,443.16,169.9,428.3a16.27,16.27,0,1,0-2.22,1.72l11.51,14.86a1.41,1.41,0,0,0,2.22-1.72Zm-24.23-13.48a13.43,13.43,0,1,1,15-11.65A13.44,13.44,0,0,1,157.18,429.68Z"/><text class="cls-14" transform="translate(240.3 446.53) scale(1 0.89)">КАК ОЖИВИТЬ ПК?</text><rect class="cls-15" x="111.41" y="159.22" width="588.37" height="182.88" rx="27.27"/><rect class="cls-16" x="100.62" y="152.48" width="588.37" height="182.88" rx="27.27"/><polygon class="cls-17" points="277.71 188.79 237.14 188.79 237.14 207.96 220.59 207.96 220.59 188.79 180.01 188.79 180.01 207.96 160.83 207.96 160.83 248.54 180.01 248.54 180.01 267.72 199.19 267.72 199.19 286.89 218.13 286.89 218.13 305.67 239.53 305.67 239.53 286.89 258.54 286.89 258.54 267.72 277.71 267.72 277.71 248.54 296.89 248.54 296.89 207.96 277.71 207.96 277.71 188.79"/><polygon class="cls-17" points="452.25 188.79 411.66 188.79 411.66 207.96 395.11 207.96 395.11 188.79 354.54 188.79 354.54 207.96 335.37 207.96 335.37 248.54 354.54 248.54 354.54 267.72 373.71 267.72 373.71 286.89 392.66 286.89 392.66 305.67 414.06 305.67 414.06 286.89 433.07 286.89 433.07 267.72 452.25 267.72 452.25 248.54 471.42 248.54 471.42 207.96 452.25 207.96 452.25 188.79"/><path class="cls-17" d="M626.78,208V188.79H586.19V208H569.64V188.79H529.07V208H509.9v40.59h19.17v19.16h19.18v19.18h18.94v18.78h21.4V286.89h19V267.71h19.19V248.55H646V208Zm-2.22,38.36H605.37v19.17H586.19v18.78H569.64V265.49H550.47V246.32H531.3V210.19h36.12v19.18h21.4V210.19h35.74Z"/></svg>