<svg id="Слой_1" data-name="Слой 1" xmlns="http://www.w3.org/2000/svg" viewBox="0 0 918.09 521.22"><defs><style>.cls-1{font-size:126.65px;}.cls-1,.cls-2{font-family:BrutalType-Bold, Brutal Type;font-weight:700;}.cls-2{font-size:94.72px;}.cls-3{letter-spacing:-0.02em;}.cls-4{fill:#fff;}.cls-5{fill:#a2a2a2;}.cls-6{fill:#00c462;}</style></defs><text class="cls-1" transform="translate(479.57 236.13)">ЮЗБ</text><text class="cls-2" transform="translate(483.7 312.59)"><tspan class="cls-3">Ф</tspan><tspan x="81.94" y="0">АРМ</tspan></text><path class="cls-4" d="M375.81,235.09V306l88.66-.41-.18-70.53Zm68.48,50.36H414V255.18h30.27Z"/><path class="cls-4" d="M375.81,225.67h88.48l.18-69.15H375.9ZM414,175.58h30.27v30.27H414Z"/><path d="M375.81,147.82v-17a40.05,40.05,0,0,0-3-15.3c-2.13-5.17-3.15-3.72-14.42-4.58-.35,0-.71,0-1.07,0H289.75c-176.41,0-174.67,240.55,1.75,240.55h64.9a55.31,55.31,0,0,0,6.3-.36c7.37-.84,8.64-.95,9.76-3.94a53.68,53.68,0,0,0,3.35-19V312.94h95.38V147.82Zm0,158.21V235.09h88.48l.18,70.53Zm88.48-80.36H375.81l.09-69.15h88.57Z"/><path d="M444.29,175.58H414v30.27h30.27Zm-6.66,24.22H420.68V182.24h16.95Z"/><rect class="cls-5" x="420.68" y="182.24" width="16.95" height="17.56"/><path d="M414,285.45h30.27V255.18H414Zm6.66-23.61h16.95v17.55H420.68Z"/><rect class="cls-5" x="420.68" y="261.84" width="16.95" height="17.56"/><rect class="cls-6" x="246.11" y="261.86" width="59.1" height="9.85"/><polygon class="cls-6" points="226.41 202.76 226.41 212.61 236.26 212.61 236.26 261.86 246.11 261.86 246.11 202.76 226.41 202.76"/><rect class="cls-6" x="216.56" y="212.61" width="9.85" height="9.85"/><rect class="cls-6" x="206.71" y="222.46" width="9.85" height="9.85"/><rect class="cls-6" x="226.41" y="261.86" width="9.85" height="9.85"/><rect class="cls-6" x="216.56" y="271.71" width="9.85" height="9.85"/><rect class="cls-6" x="206.71" y="281.56" width="9.85" height="9.85"/><rect class="cls-6" x="315.06" y="261.86" width="9.85" height="9.85"/><rect class="cls-6" x="324.91" y="271.71" width="9.85" height="9.85"/><rect class="cls-6" x="334.76" y="281.56" width="9.85" height="9.85"/><polygon class="cls-6" points="305.21 202.76 305.21 261.86 315.06 261.86 315.06 212.61 324.91 212.61 324.91 202.76 305.21 202.76"/><rect class="cls-6" x="324.91" y="212.61" width="9.85" height="9.85"/><rect class="cls-6" x="334.76" y="222.46" width="9.85" height="9.85"/><rect class="cls-6" x="226.41" y="173.21" width="19.7" height="9.85"/><polygon class="cls-6" points="305.21 183.06 295.36 183.06 295.36 192.91 255.96 192.91 255.96 183.06 246.11 183.06 246.11 202.76 305.21 202.76 305.21 183.06"/><rect class="cls-6" x="305.21" y="173.21" width="19.7" height="9.85"/><rect class="cls-6" x="246.11" y="202.76" width="59.1" height="59.1"/></svg>