<svg id="Слой_1" data-name="Слой 1" xmlns="http://www.w3.org/2000/svg" viewBox="0 0 918.09 521.22"><defs><style>.cls-1{font-size:126.65px;}.cls-1,.cls-2{font-family:BrutalType-Bold, Brutal Type;font-weight:700;}.cls-2{font-size:94.72px;}.cls-3{letter-spacing:-0.02em;}.cls-4{fill:#fff;}.cls-5{fill:#a2a2a2;}.cls-6{fill:#fbbd3d;}</style></defs><text class="cls-1" transform="translate(479.57 236.13)">ЮЗБ</text><text class="cls-2" transform="translate(483.7 312.59)"><tspan class="cls-3">Ф</tspan><tspan x="81.94" y="0">АРМ</tspan></text><path class="cls-4" d="M375.81,235.09V306l88.66-.41-.18-70.53Zm68.48,50.36H414V255.18h30.27Z"/><path class="cls-4" d="M375.81,225.67h88.48l.18-69.15H375.9ZM414,175.58h30.27v30.27H414Z"/><path d="M375.81,147.82v-17a40.05,40.05,0,0,0-3-15.3c-2.13-5.17-3.15-3.72-14.42-4.58-.35,0-.71,0-1.07,0H289.75c-176.41,0-174.67,240.55,1.75,240.55h64.9a55.31,55.31,0,0,0,6.3-.36c7.37-.84,8.64-.95,9.76-3.94a53.68,53.68,0,0,0,3.35-19V312.94h95.38V147.82Zm0,158.21V235.09h88.48l.18,70.53Zm88.48-80.36H375.81l.09-69.15h88.57Z"/><path d="M444.29,175.58H414v30.27h30.27Zm-6.66,24.22H420.68V182.24h16.95Z"/><rect class="cls-5" x="420.68" y="182.24" width="16.95" height="17.56"/><path d="M414,285.45h30.27V255.18H414Zm6.66-23.61h16.95v17.55H420.68Z"/><rect class="cls-5" x="420.68" y="261.84" width="16.95" height="17.56"/><path class="cls-6" d="M317.62,173.17H247.13v23.66h-7.89v23.66h-7.89V252h15.78v39.43H262.9v-7.88h7.89V275.7h7.88v-7.89h7.89v-7.88h7.89V252h7.88v-7.89h7.89V228.38H286.56v-7.89h7.89v-7.88h7.88v-7.89h7.89v-7.89h7.89V189H326V173.17Zm-9.9,23.66-15.57,11.83-12.92,23.66,27.6,1.57-37.37,40.83-9.95,4.92-2.61-26.9-12.57-4.64V221.33s6.29-19.89,6.18-20.55,7.89-18.09,7.89-18.09l3.94-3.69,56.32-1.43Z"/><path class="cls-6" d="M258.4,182.69s-8,17.42-7.89,18.09-6.18,20.55-6.18,20.55V248.1l12.57,4.64,2.61,26.9,9.95-4.92,37.37-40.83-27.6-1.57,12.92-23.66,15.57-11.83,10.94-19.26L262.34,179Z"/></svg>