<svg id="Слой_1" data-name="Слой 1" xmlns="http://www.w3.org/2000/svg" viewBox="0 0 307.61 295.43"><defs><style>.cls-1{fill:#e5e4e4;}.cls-1,.cls-2{stroke:#000;stroke-miterlimit:10;stroke-width:4px;}.cls-2{fill:#c9c8c8;}</style></defs><circle class="cls-1" cx="149.94" cy="152.69" r="71.22"/><path class="cls-2" d="M152.42,81.46a.56.56,0,0,1,.43.92c-4.19,5.06-23.33,30.42-10.12,57.47,14.4,29.48-7.62,14.53-8.75,13.75a.17.17,0,0,0-.1,0c-1.42-.06-31.5-1.61-43.53-38.62a.17.17,0,0,1,0-.14C91.16,113.19,107.42,81.69,152.42,81.46Z"/><path class="cls-2" d="M212.72,119.8s-37.28-5.62-53.46,16.18,8.79,16.53,8.79,16.53,26.74.78,42.22,38.06c0,0,22.5-35.66,2.45-70.8"/><path class="cls-2" d="M87,185.22s19.19,39.24,59.64,38.53c0,0,22.5-22,13.71-54.71s-18.58,0-18.58,0S125.46,191.55,87,185.22Z"/><circle class="cls-1" cx="150.12" cy="152.87" r="20.05"/></svg>