<svg id="Слой_1" data-name="Слой 1" xmlns="http://www.w3.org/2000/svg" viewBox="0 0 466.28 358.26"><defs><style>.cls-1{fill:#6f6f6e;}.cls-1,.cls-2,.cls-3,.cls-4{stroke:#000;stroke-miterlimit:10;stroke-width:3px;}.cls-2{fill:#e5e4e4;}.cls-3{fill:#562e37;}.cls-4{fill:#b1b1b1;}.cls-5{fill:#1d1d1b;}</style></defs><rect class="cls-1" x="114.37" y="118.32" width="294.08" height="155.2"/><rect class="cls-2" x="108.75" y="112.53" width="294.08" height="155.2"/><rect class="cls-3" x="108.75" y="111.78" width="294.08" height="34.42"/><rect class="cls-1" x="101.95" y="105.23" width="294.08" height="155.2"/><rect class="cls-2" x="96.32" y="100.1" width="294.08" height="155.2"/><rect class="cls-3" x="96.32" y="99.35" width="294.08" height="34.42"/><rect class="cls-1" x="89.65" y="93.59" width="294.08" height="155.2"/><rect class="cls-2" x="84.02" y="87.8" width="294.08" height="155.2"/><rect class="cls-4" x="84.02" y="87.05" width="294.08" height="34.42"/><rect class="cls-5" x="104.24" y="104.39" width="246.49" height="1.66"/><polygon points="291.19 145.14 291.19 145.14 349.33 145.14 349.33 139.38 285.43 139.38 285.43 145.14 285.43 150.9 285.43 156.67 285.43 156.67 285.43 156.67 291.19 156.67 291.19 162.43 291.19 168.19 296.95 168.19 296.95 173.95 296.95 179.71 302.71 179.71 302.71 185.47 302.71 191.24 308.35 191.24 308.35 196.69 308.35 202.46 326.41 202.46 326.41 197 326.54 197 326.54 191.24 332.14 191.24 332.14 191.24 332.31 191.24 332.31 185.47 332.31 179.71 337.89 179.71 337.89 179.71 337.98 179.71 337.98 173.95 337.98 168.19 343.66 168.19 343.66 162.43 343.66 156.67 349.33 156.67 349.33 150.9 349.33 145.14 291.19 145.14"/><polygon points="326.44 209.08 309.25 209.08 309.25 214.79 303.56 214.79 303.56 220.52 309.25 220.52 309.25 226.27 326.44 226.27 326.44 220.52 332.14 220.52 332.14 214.79 326.44 214.79 326.44 209.08"/><polygon points="110.28 145.14 110.28 145.14 168.43 145.14 168.43 139.38 104.52 139.38 104.52 145.14 104.52 150.9 104.52 156.67 104.52 156.67 104.52 156.67 110.28 156.67 110.28 162.43 110.28 168.19 116.05 168.19 116.05 173.95 116.05 179.71 121.81 179.71 121.81 185.47 121.81 191.24 127.44 191.24 127.44 196.69 127.44 202.46 145.51 202.46 145.51 197 145.64 197 145.64 191.24 151.23 191.24 151.23 191.24 151.4 191.24 151.4 185.47 151.4 179.71 156.99 179.71 156.99 179.71 157.07 179.71 157.07 173.95 157.07 168.19 162.75 168.19 162.75 162.43 162.75 156.67 168.43 156.67 168.43 150.9 168.43 145.14 110.28 145.14"/><polygon points="145.54 209.08 128.35 209.08 128.35 214.79 122.65 214.79 122.65 220.52 128.35 220.52 128.35 226.27 145.54 226.27 145.54 220.52 151.23 220.52 151.23 214.79 145.54 214.79 145.54 209.08"/><polygon points="200.27 145.14 200.27 145.14 258.41 145.14 258.41 139.38 194.51 139.38 194.51 145.14 194.51 150.9 194.51 156.67 194.51 156.67 194.51 156.67 200.27 156.67 200.27 162.43 200.27 168.19 206.03 168.19 206.03 173.95 206.03 179.71 211.79 179.71 211.79 185.47 211.79 191.24 217.42 191.24 217.42 196.69 217.42 202.46 235.49 202.46 235.49 197 235.62 197 235.62 191.24 241.22 191.24 241.22 191.24 241.38 191.24 241.38 185.47 241.38 179.71 246.97 179.71 246.97 179.71 247.06 179.71 247.06 173.95 247.06 168.19 252.74 168.19 252.74 162.43 252.74 156.67 258.41 156.67 258.41 150.9 258.41 145.14 200.27 145.14"/><polygon points="235.52 209.08 218.33 209.08 218.33 214.79 212.64 214.79 212.64 220.52 218.33 220.52 218.33 226.27 235.52 226.27 235.52 220.52 241.22 220.52 241.22 214.79 235.52 214.79 235.52 209.08"/></svg>