<svg id="Слой_1" data-name="Слой 1" xmlns="http://www.w3.org/2000/svg" viewBox="0 0 663.51 896.02"><defs><style>.cls-1{fill:none;}.cls-2{fill:#fff;}.cls-3{fill:#1d1d1b;}</style></defs><polygon class="cls-1" points="276.58 439.53 276.55 439.53 276.55 439.56 276.58 439.53"/><path class="cls-2" d="M316.59,404.07h13.33V390.74h13.32V377.42h13.33V328.2H263.22v49.22h13.33v13.32h13.32v13.33l.07.07h13.33V426.2H289.94l-.07.07v13.26H276.58l0,0v13.29H263.22v48.54h93.35V452.85H343.24V439.53H329.92V426.2H316.59Zm-26.65-26.65V364.09h13.33v13.33h13.32V364.09h13.33v13.33H316.59v13.32H303.27V377.42Zm40,86.38v13.32h10v13.33H279.69V477.12h10.25V463.8h13.33V450.47h13.32V463.8Z"/><polygon class="cls-3" points="356.57 328.2 356.57 377.42 369.89 377.42 369.89 328.2 377.13 328.2 377.13 314.88 242.74 314.88 242.74 328.2 249.9 328.2 249.9 377.42 263.22 377.42 263.22 328.2 356.57 328.2"/><polygon class="cls-3" points="263.22 501.39 263.22 452.85 249.9 452.85 249.9 501.39 242.74 501.39 242.74 514.72 377.13 514.72 377.13 501.39 369.89 501.39 369.89 452.85 356.57 452.85 356.57 501.39 263.22 501.39"/><rect class="cls-3" x="289.94" y="364.09" width="13.32" height="13.32"/><rect class="cls-3" x="316.59" y="364.09" width="13.32" height="13.32"/><rect class="cls-3" x="303.27" y="377.42" width="13.32" height="13.32"/><polygon class="cls-3" points="316.59 450.47 303.27 450.47 303.27 463.8 289.94 463.8 289.94 477.12 279.69 477.12 279.69 490.45 339.93 490.45 339.93 477.12 329.92 477.12 329.92 463.8 316.59 463.8 316.59 450.47"/><rect class="cls-3" x="263.22" y="377.42" width="13.32" height="13.32"/><polygon class="cls-3" points="343.24 390.74 343.24 390.74 356.57 390.74 356.57 377.42 343.24 377.42 343.24 390.74"/><polygon class="cls-3" points="329.92 390.74 329.92 404.07 343.24 404.07 343.24 390.74 343.24 390.74 329.92 390.74"/><polygon class="cls-3" points="276.55 390.74 276.55 404.07 289.87 404.07 289.87 404.07 289.87 390.74 276.55 390.74"/><polygon class="cls-3" points="276.55 439.56 276.55 439.53 263.22 439.53 263.22 452.85 276.55 452.85 276.55 439.56"/><polygon class="cls-3" points="343.24 452.85 356.57 452.85 356.57 439.53 343.24 439.53 343.24 439.53 343.24 452.85"/><polygon class="cls-3" points="343.24 439.53 343.24 439.53 343.24 426.2 329.92 426.2 329.92 439.53 343.24 439.53"/><polygon class="cls-3" points="289.87 439.53 289.87 426.27 289.87 426.2 276.55 426.2 276.55 439.53 276.58 439.53 289.87 439.53"/><rect class="cls-3" x="289.94" y="404.14" width="13.32" height="22.07"/><rect class="cls-3" x="316.59" y="404.07" width="13.32" height="22.14"/></svg>