<svg id="Слой_1" data-name="Слой 1" xmlns="http://www.w3.org/2000/svg" viewBox="0 0 530.17 574.29"><defs><style>.cls-1{fill:#c14f4f;}.cls-1,.cls-10,.cls-2,.cls-3,.cls-4,.cls-5,.cls-6,.cls-7,.cls-8,.cls-9{stroke:#000;stroke-miterlimit:10;}.cls-1,.cls-10,.cls-4,.cls-5,.cls-6,.cls-7,.cls-8,.cls-9{stroke-width:4px;}.cls-2,.cls-3,.cls-6{fill:#e5e4e4;}.cls-2{stroke-width:3px;}.cls-3{stroke-width:2px;}.cls-5{fill:#e5332a;}.cls-7{fill:#fbbd3d;}.cls-8{fill:#41ae60;}.cls-9{fill:#37a7df;}.cls-10{fill:#333;}</style></defs><rect class="cls-1" x="51.7" y="18.44" width="422.81" height="489.46"/><rect class="cls-2" x="68.99" y="57.87" width="388.6" height="432.32"/><rect class="cls-3" x="68.99" y="37.66" width="388.6" height="1.5"/><path class="cls-4" d="M169.34,83.45l-17.85,19.34c-4,4.34-6.46,12.23-6.46,20.75v301c0,8.52,2.46,16.41,6.46,20.75l18.63,20.19a9.27,9.27,0,0,0,6.72,3.36H335.31a9.23,9.23,0,0,0,6.71-3.36l18.33-19.87c4-4.34,6.46-12.22,6.46-20.74V123.74c0-8.52-2.45-16.4-6.46-20.74L341.49,82.56a9.22,9.22,0,0,0-6.75-3.36L176,80.08A9.3,9.3,0,0,0,169.34,83.45Z"/><path class="cls-4" d="M168.9,83.45l-17.85,19.34c-4,4.34-6.47,12.23-6.47,20.75v301c0,8.52,2.46,16.41,6.47,20.75l18.63,20.19a9.23,9.23,0,0,0,6.71,3.36H334.86a9.23,9.23,0,0,0,6.71-3.36l18.34-19.87c4-4.34,6.46-12.22,6.46-20.74V123.74c0-8.52-2.46-16.4-6.46-20.74L341.05,82.56a9.26,9.26,0,0,0-6.76-3.36l-158.72.88A9.28,9.28,0,0,0,168.9,83.45Z"/><path class="cls-4" d="M168.45,83.45,150.6,102.79c-4,4.34-6.46,12.23-6.46,20.75v301c0,8.52,2.45,16.41,6.46,20.75l18.63,20.19a9.23,9.23,0,0,0,6.71,3.36H334.41a9.25,9.25,0,0,0,6.72-3.36l18.33-19.87c4-4.34,6.46-12.22,6.46-20.74V123.74c0-8.52-2.46-16.4-6.46-20.74L340.6,82.56a9.24,9.24,0,0,0-6.75-3.36l-158.73.88A9.28,9.28,0,0,0,168.45,83.45Z"/><path class="cls-4" d="M168,83.45l-17.85,19.34c-4,4.34-6.46,12.23-6.46,20.75v301c0,8.52,2.46,16.41,6.46,20.75l18.64,20.19a9.23,9.23,0,0,0,6.71,3.36H334a9.23,9.23,0,0,0,6.71-3.36L359,445.62c4-4.34,6.46-12.22,6.46-20.74V123.74c0-8.52-2.45-16.4-6.46-20.74L340.15,82.56a9.22,9.22,0,0,0-6.75-3.36l-158.72.88A9.3,9.3,0,0,0,168,83.45Z"/><path class="cls-4" d="M167.56,83.45l-17.85,19.34c-4,4.34-6.46,12.23-6.46,20.75v301c0,8.52,2.45,16.41,6.46,20.75l18.63,20.19a9.23,9.23,0,0,0,6.71,3.36H333.52a9.23,9.23,0,0,0,6.71-3.36l18.34-19.87c4-4.34,6.46-12.22,6.46-20.74V123.74c0-8.52-2.46-16.4-6.46-20.74L339.71,82.56A9.26,9.26,0,0,0,333,79.2l-158.73.88A9.28,9.28,0,0,0,167.56,83.45Z"/><path class="cls-4" d="M171.13,83.45l-17.85,19.34c-4,4.34-6.46,12.23-6.46,20.75v301c0,8.52,2.45,16.41,6.46,20.75l18.63,20.19a9.23,9.23,0,0,0,6.71,3.36H337.09a9.23,9.23,0,0,0,6.71-3.36l18.34-19.87c4-4.34,6.46-12.22,6.46-20.74V123.74c0-8.52-2.46-16.4-6.46-20.74L343.28,82.56a9.26,9.26,0,0,0-6.75-3.36l-158.73.88A9.28,9.28,0,0,0,171.13,83.45Z"/><path class="cls-4" d="M170.68,83.45l-17.85,19.34c-4,4.34-6.46,12.23-6.46,20.75v301c0,8.52,2.46,16.41,6.46,20.75l18.63,20.19a9.25,9.25,0,0,0,6.72,3.36H336.65a9.25,9.25,0,0,0,6.71-3.36l18.33-19.87c4-4.34,6.46-12.22,6.46-20.74V123.74c0-8.52-2.45-16.4-6.46-20.74L342.83,82.56a9.24,9.24,0,0,0-6.75-3.36l-158.73.88A9.3,9.3,0,0,0,170.68,83.45Z"/><path class="cls-4" d="M170.24,83.45l-17.86,19.34c-4,4.34-6.46,12.23-6.46,20.75v301c0,8.52,2.46,16.41,6.46,20.75L171,465.49a9.23,9.23,0,0,0,6.71,3.36H336.2a9.23,9.23,0,0,0,6.71-3.36l18.33-19.87c4-4.34,6.47-12.22,6.47-20.74V123.74c0-8.52-2.46-16.4-6.47-20.74L342.38,82.56a9.22,9.22,0,0,0-6.75-3.36l-158.72.88A9.28,9.28,0,0,0,170.24,83.45Z"/><path class="cls-4" d="M169.79,83.45l-17.85,19.34c-4,4.34-6.46,12.23-6.46,20.75v301c0,8.52,2.45,16.41,6.46,20.75l18.63,20.19a9.23,9.23,0,0,0,6.71,3.36H335.75a9.23,9.23,0,0,0,6.71-3.36l18.34-19.87c4-4.34,6.46-12.22,6.46-20.74V123.74c0-8.52-2.46-16.4-6.46-20.74L341.94,82.56a9.26,9.26,0,0,0-6.75-3.36l-158.73.88A9.28,9.28,0,0,0,169.79,83.45Z"/><path class="cls-4" d="M169.34,83.45l-17.85,19.34c-4,4.34-6.46,12.23-6.46,20.75v301c0,8.52,2.46,16.41,6.46,20.75l18.63,20.19a9.27,9.27,0,0,0,6.72,3.36H335.31a9.23,9.23,0,0,0,6.71-3.36l18.33-19.87c4-4.34,6.46-12.22,6.46-20.74V123.74c0-8.52-2.45-16.4-6.46-20.74L341.49,82.56a9.22,9.22,0,0,0-6.75-3.36L176,80.08A9.3,9.3,0,0,0,169.34,83.45Z"/><path class="cls-4" d="M168.9,83.45l-17.85,19.34c-4,4.34-6.47,12.23-6.47,20.75v301c0,8.52,2.46,16.41,6.47,20.75l18.63,20.19a9.23,9.23,0,0,0,6.71,3.36H334.86a9.23,9.23,0,0,0,6.71-3.36l18.34-19.87c4-4.34,6.46-12.22,6.46-20.74V123.74c0-8.52-2.46-16.4-6.46-20.74L341.05,82.56a9.26,9.26,0,0,0-6.76-3.36l-158.72.88A9.28,9.28,0,0,0,168.9,83.45Z"/><path class="cls-4" d="M168.45,83.45,150.6,102.79c-4,4.34-6.46,12.23-6.46,20.75v301c0,8.52,2.45,16.41,6.46,20.75l18.63,20.19a9.23,9.23,0,0,0,6.71,3.36H334.41a9.25,9.25,0,0,0,6.72-3.36l18.33-19.87c4-4.34,6.46-12.22,6.46-20.74V123.74c0-8.52-2.46-16.4-6.46-20.74L340.6,82.56a9.24,9.24,0,0,0-6.75-3.36l-158.73.88A9.28,9.28,0,0,0,168.45,83.45Z"/><path class="cls-4" d="M168,83.45l-17.85,19.34c-4,4.34-6.46,12.23-6.46,20.75v301c0,8.52,2.46,16.41,6.46,20.75l18.64,20.19a9.23,9.23,0,0,0,6.71,3.36H334a9.23,9.23,0,0,0,6.71-3.36L359,445.62c4-4.34,6.46-12.22,6.46-20.74V123.74c0-8.52-2.45-16.4-6.46-20.74L340.15,82.56a9.22,9.22,0,0,0-6.75-3.36l-158.72.88A9.3,9.3,0,0,0,168,83.45Z"/><path class="cls-4" d="M167.56,83.45l-17.85,19.34c-4,4.34-6.46,12.23-6.46,20.75v301c0,8.52,2.45,16.41,6.46,20.75l18.63,20.19a9.23,9.23,0,0,0,6.71,3.36H333.52a9.23,9.23,0,0,0,6.71-3.36l18.34-19.87c4-4.34,6.46-12.22,6.46-20.74V123.74c0-8.52-2.46-16.4-6.46-20.74L339.71,82.56A9.26,9.26,0,0,0,333,79.2l-158.73.88A9.28,9.28,0,0,0,167.56,83.45Z"/><path class="cls-4" d="M167.11,83.45l-17.85,19.34c-4,4.34-6.46,12.23-6.46,20.75v301c0,8.52,2.46,16.41,6.46,20.75l18.63,20.19a9.25,9.25,0,0,0,6.72,3.36H333.08a9.23,9.23,0,0,0,6.71-3.36l18.33-19.87c4-4.34,6.46-12.22,6.46-20.74V123.74c0-8.52-2.45-16.4-6.46-20.74L339.26,82.56a9.24,9.24,0,0,0-6.75-3.36l-158.73.88A9.3,9.3,0,0,0,167.11,83.45Z"/><path class="cls-4" d="M150.6,83.45l-17.85,19.34c-4,4.34-6.46,12.23-6.46,20.75v301c0,8.52,2.46,16.41,6.46,20.75l18.63,20.19a9.23,9.23,0,0,0,6.71,3.36H316.56a9.25,9.25,0,0,0,6.72-3.36l18.33-19.87c4-4.34,6.46-12.22,6.46-20.74V123.74c0-8.52-2.46-16.4-6.46-20.74L322.75,82.56A9.24,9.24,0,0,0,316,79.2l-158.73.88A9.28,9.28,0,0,0,150.6,83.45Z"/><path class="cls-4" d="M150.15,83.45,132.3,102.79c-4,4.34-6.46,12.23-6.46,20.75v301c0,8.52,2.46,16.41,6.46,20.75l18.64,20.19a9.23,9.23,0,0,0,6.71,3.36H316.12a9.23,9.23,0,0,0,6.71-3.36l18.33-19.87c4-4.34,6.46-12.22,6.46-20.74V123.74c0-8.52-2.45-16.4-6.46-20.74L322.3,82.56a9.22,9.22,0,0,0-6.75-3.36l-158.72.88A9.32,9.32,0,0,0,150.15,83.45Z"/><path class="cls-4" d="M149.71,83.45l-17.85,19.34c-4,4.34-6.46,12.23-6.46,20.75v301c0,8.52,2.45,16.41,6.46,20.75l18.63,20.19a9.23,9.23,0,0,0,6.71,3.36H315.67a9.23,9.23,0,0,0,6.71-3.36l18.34-19.87c4-4.34,6.46-12.22,6.46-20.74V123.74c0-8.52-2.46-16.4-6.46-20.74L321.86,82.56a9.26,9.26,0,0,0-6.75-3.36l-158.73.88A9.28,9.28,0,0,0,149.71,83.45Z"/><path class="cls-4" d="M149.26,83.45l-17.85,19.34c-4,4.34-6.46,12.23-6.46,20.75v301c0,8.52,2.46,16.41,6.46,20.75L150,465.49a9.25,9.25,0,0,0,6.72,3.36H315.23a9.23,9.23,0,0,0,6.71-3.36l18.33-19.87c4-4.34,6.46-12.22,6.46-20.74V123.74c0-8.52-2.45-16.4-6.46-20.74L321.41,82.56a9.24,9.24,0,0,0-6.75-3.36l-158.73.88A9.3,9.3,0,0,0,149.26,83.45Z"/><path class="cls-4" d="M148.82,83.45,131,102.79c-4,4.34-6.47,12.23-6.47,20.75v301c0,8.52,2.46,16.41,6.47,20.75l18.63,20.19a9.23,9.23,0,0,0,6.71,3.36H314.78a9.23,9.23,0,0,0,6.71-3.36l18.33-19.87c4-4.34,6.47-12.22,6.47-20.74V123.74c0-8.52-2.46-16.4-6.47-20.74L321,82.56a9.26,9.26,0,0,0-6.76-3.36l-158.72.88A9.28,9.28,0,0,0,148.82,83.45Z"/><path class="cls-4" d="M148.37,83.45l-17.85,19.34c-4,4.34-6.46,12.23-6.46,20.75v301c0,8.52,2.45,16.41,6.46,20.75l18.63,20.19a9.23,9.23,0,0,0,6.71,3.36H314.33a9.27,9.27,0,0,0,6.72-3.36l18.33-19.87c4-4.34,6.46-12.22,6.46-20.74V123.74c0-8.52-2.46-16.4-6.46-20.74L320.52,82.56a9.24,9.24,0,0,0-6.75-3.36L155,80.08A9.28,9.28,0,0,0,148.37,83.45Z"/><path class="cls-4" d="M147.92,83.45l-17.85,19.34c-4,4.34-6.46,12.23-6.46,20.75v301c0,8.52,2.46,16.41,6.46,20.75l18.64,20.19a9.23,9.23,0,0,0,6.71,3.36H313.89a9.23,9.23,0,0,0,6.71-3.36l18.33-19.87c4-4.34,6.46-12.22,6.46-20.74V123.74c0-8.52-2.45-16.4-6.46-20.74L320.07,82.56a9.22,9.22,0,0,0-6.75-3.36l-158.72.88A9.3,9.3,0,0,0,147.92,83.45Z"/><path class="cls-4" d="M147.48,83.45l-17.85,19.34c-4,4.34-6.46,12.23-6.46,20.75v301c0,8.52,2.45,16.41,6.46,20.75l18.63,20.19a9.23,9.23,0,0,0,6.71,3.36H313.44a9.23,9.23,0,0,0,6.71-3.36l18.34-19.87c4-4.34,6.46-12.22,6.46-20.74V123.74c0-8.52-2.46-16.4-6.46-20.74L319.63,82.56a9.26,9.26,0,0,0-6.76-3.36l-158.72.88A9.28,9.28,0,0,0,147.48,83.45Z"/><path class="cls-4" d="M147,83.45l-17.85,19.34c-4,4.34-6.46,12.23-6.46,20.75v301c0,8.52,2.46,16.41,6.46,20.75l18.63,20.19a9.23,9.23,0,0,0,6.71,3.36H313a9.25,9.25,0,0,0,6.72-3.36L338,445.62c4-4.34,6.46-12.22,6.46-20.74V123.74c0-8.52-2.46-16.4-6.46-20.74L319.18,82.56a9.24,9.24,0,0,0-6.75-3.36l-158.73.88A9.28,9.28,0,0,0,147,83.45Z"/><path class="cls-4" d="M146.58,83.45l-17.85,19.34c-4,4.34-6.46,12.23-6.46,20.75v301c0,8.52,2.46,16.41,6.46,20.75l18.64,20.19a9.23,9.23,0,0,0,6.71,3.36H312.55a9.23,9.23,0,0,0,6.71-3.36l18.33-19.87c4-4.34,6.46-12.22,6.46-20.74V123.74c0-8.52-2.45-16.4-6.46-20.74L318.73,82.56A9.22,9.22,0,0,0,312,79.2l-158.72.88A9.32,9.32,0,0,0,146.58,83.45Z"/><path class="cls-4" d="M146.14,83.45l-17.85,19.34c-4,4.34-6.46,12.23-6.46,20.75v301c0,8.52,2.45,16.41,6.46,20.75l18.63,20.19a9.23,9.23,0,0,0,6.71,3.36H312.1a9.23,9.23,0,0,0,6.71-3.36l18.34-19.87c4-4.34,6.46-12.22,6.46-20.74V123.74c0-8.52-2.46-16.4-6.46-20.74L318.29,82.56a9.26,9.26,0,0,0-6.75-3.36l-158.73.88A9.28,9.28,0,0,0,146.14,83.45Z"/><path class="cls-4" d="M152.83,83.45,135,102.79c-4,4.34-6.46,12.23-6.46,20.75v301c0,8.52,2.46,16.41,6.46,20.75l18.63,20.19a9.25,9.25,0,0,0,6.72,3.36H318.8a9.23,9.23,0,0,0,6.71-3.36l18.33-19.87c4-4.34,6.46-12.22,6.46-20.74V123.74c0-8.52-2.45-16.4-6.46-20.74L325,82.56a9.24,9.24,0,0,0-6.75-3.36l-158.73.88A9.3,9.3,0,0,0,152.83,83.45Z"/><path class="cls-4" d="M167.56,83.45l-17.85,19.34c-4,4.34-6.46,12.23-6.46,20.75v301c0,8.52,2.45,16.41,6.46,20.75l18.63,20.19a9.23,9.23,0,0,0,6.71,3.36H333.52a9.23,9.23,0,0,0,6.71-3.36l18.34-19.87c4-4.34,6.46-12.22,6.46-20.74V123.74c0-8.52-2.46-16.4-6.46-20.74L339.71,82.56A9.26,9.26,0,0,0,333,79.2l-158.73.88A9.28,9.28,0,0,0,167.56,83.45Z"/><path class="cls-4" d="M166.67,83.45l-17.86,19.34c-4,4.34-6.46,12.23-6.46,20.75v301c0,8.52,2.46,16.41,6.46,20.75l18.64,20.19a9.23,9.23,0,0,0,6.71,3.36H332.63a9.23,9.23,0,0,0,6.71-3.36l18.33-19.87c4-4.34,6.47-12.22,6.47-20.74V123.74c0-8.52-2.46-16.4-6.47-20.74L338.81,82.56a9.22,9.22,0,0,0-6.75-3.36l-158.72.88A9.28,9.28,0,0,0,166.67,83.45Z"/><path class="cls-4" d="M185,83.45l-17.85,19.34c-4,4.34-6.46,12.23-6.46,20.75v301c0,8.52,2.46,16.41,6.46,20.75l18.63,20.19a9.25,9.25,0,0,0,6.72,3.36H350.92a9.25,9.25,0,0,0,6.72-3.36L376,445.62c4-4.34,6.46-12.22,6.46-20.74V123.74c0-8.52-2.46-16.4-6.46-20.74L357.11,82.56a9.24,9.24,0,0,0-6.75-3.36l-158.73.88A9.3,9.3,0,0,0,185,83.45Z"/><path class="cls-5" d="M197.46,83.45l-17.85,19.34c-4,4.34-6.47,12.23-6.47,20.75v301c0,8.52,2.46,16.41,6.47,20.75l18.63,20.19a9.23,9.23,0,0,0,6.71,3.36H363.42a9.23,9.23,0,0,0,6.71-3.36l18.33-19.87c4-4.34,6.47-12.22,6.47-20.74V123.74c0-8.52-2.46-16.4-6.47-20.74L369.61,82.56a9.26,9.26,0,0,0-6.76-3.36l-158.72.88A9.28,9.28,0,0,0,197.46,83.45Z"/><circle class="cls-6" cx="218.1" cy="102.8" r="16.4"/><circle class="cls-4" cx="218.1" cy="102.8" r="8.61"/><circle class="cls-7" cx="312.31" cy="100.99" r="8.5"/><circle class="cls-8" cx="336.81" cy="100.65" r="8.5"/><circle class="cls-9" cx="360.29" cy="100.65" r="8.5"/><rect class="cls-6" x="191.98" y="131.53" width="187.93" height="319.55" rx="71.96"/><rect class="cls-10" x="280.65" y="93.52" width="2.91" height="14.56"/><rect class="cls-10" x="287.42" y="93.52" width="2.91" height="14.56"/></svg>