<svg id="Слой_1" data-name="Слой 1" xmlns="http://www.w3.org/2000/svg" viewBox="0 0 307.55 353.19"><defs><style>.cls-1{fill:#e5e4e4;stroke:#000;stroke-miterlimit:10;stroke-width:4px;}.cls-2{fill:#e4352d;}.cls-3{fill:#a21928;}.cls-4{fill:#1d1d1b;}.cls-5{fill:#fdd903;}.cls-6{fill:#ffef72;}</style></defs><rect class="cls-1" x="78.58" y="21.52" width="149.83" height="297.32" rx="31.95"/><path class="cls-2" d="M111.68,115.24v5h5.2v5.17h5.2v5.17h5.21v5.17h5.2v5.17h41.27v-5.17H179v-5.17h5.2v-5.17h5.21v-5.17h5.2v-5h5.08V73.78h-5V68.61h-5.2V63.44h-5.21V58.27h-5.2V53.1h-5.2V47.93H132.62V53.1h-5.2v5.17h-5.21v5.17H117v5.17h-5.33v5.17H106.6v41.46Zm54.48,7.5h-5v5h-15v-5h-4.95v-5h4.95v-5h15v5h5ZM136.32,63h34.79V77.91h-5V92.85h-5v15h-15v-15h-4.95V77.91h-5Z"/><polygon class="cls-3" points="106.6 73.78 101.4 73.78 101.4 75.06 101.4 115.24 106.6 115.24 106.6 73.78"/><rect class="cls-3" x="132.62" y="42.76" width="41.27" height="5.17"/><polygon class="cls-4" points="161.2 112.78 146.23 112.78 146.23 117.76 141.28 117.76 141.28 122.74 146.23 122.74 146.23 127.75 161.2 127.75 161.2 122.74 166.16 122.74 166.16 117.76 161.2 117.76 161.2 112.78"/><polygon class="cls-4" points="141.28 92.85 146.23 92.85 146.23 107.82 161.2 107.82 161.2 92.85 166.15 92.85 166.15 77.91 171.11 77.91 171.11 62.97 136.32 62.97 136.32 77.91 141.28 77.91 141.28 92.85"/><polygon class="cls-3" points="132.62 47.93 132.59 47.93 127.42 47.93 127.42 53.1 132.62 53.1 132.62 47.93"/><rect class="cls-3" x="122.21" y="53.1" width="5.2" height="5.17"/><rect class="cls-3" x="117.01" y="58.27" width="5.2" height="5.17"/><rect class="cls-3" x="111.68" y="63.44" width="5.33" height="5.17"/><rect class="cls-3" x="106.6" y="68.61" width="5.08" height="5.17"/><rect class="cls-3" x="173.89" y="47.93" width="5.2" height="5.17"/><rect class="cls-3" x="179.09" y="53.1" width="5.2" height="5.17"/><rect class="cls-3" x="184.29" y="58.27" width="5.2" height="5.17"/><rect class="cls-3" x="189.5" y="63.44" width="5.2" height="5.17"/><rect class="cls-3" x="132.49" y="140.93" width="41.27" height="5.14"/><polygon class="cls-3" points="127.29 135.76 127.29 140.93 132.46 140.93 132.49 140.93 132.49 135.76 127.29 135.76"/><rect class="cls-3" x="122.08" y="130.59" width="5.2" height="5.17"/><rect class="cls-3" x="116.88" y="125.42" width="5.2" height="5.17"/><rect class="cls-3" x="111.68" y="120.25" width="5.2" height="5.17"/><rect class="cls-3" x="106.6" y="115.24" width="5.08" height="5"/><rect class="cls-3" x="199.65" y="73.78" width="5.2" height="41.46"/><path class="cls-4" d="M205.11,68.61V63.44H199.9V58.27h-5.2V53.1h-5.2V47.93h-5.21V42.76h-5.23V37.55H127.42v5.21h-5.21v5.17H117V53.1H111.8v5.17h-5.2v5.17h-5.2v5.17H96.19v51.64h5.08v5.17h5.2v5.17h5.21v5.17h5.2v5.17h5.2v5.17h5.34v5.17h51.64V146.1h5.1v-5.17h5.21v-5.17h5.2v-5.17h5.21v-5.17H205v-5.17h5.07V68.61ZM101.4,75.07V73.78h5.2V68.61h5.08V63.44H117V58.27h5.2V53.1h5.21V47.93h5.2V42.76h41.27v5.17h5.2V53.1h5.2v5.17h5.21v5.17h5.2v5.17h5v5.17h5.2v41.46h-5.2v5h-5.08v5.17h-5.2v5.17h-5.21v5.17H179v5.17h-5.2v5.14H132.49v-5.14h-5.2v-5.17h-5.21v-5.17h-5.2v-5.17h-5.2v-5.17H106.6v-5h-5.2Z"/><rect class="cls-3" x="194.7" y="68.61" width="4.95" height="5.17"/><rect class="cls-3" x="194.57" y="115.24" width="5.08" height="5"/><rect class="cls-3" x="173.76" y="135.76" width="5.2" height="5.17"/><rect class="cls-3" x="178.96" y="130.59" width="5.2" height="5.17"/><rect class="cls-3" x="184.16" y="125.42" width="5.2" height="5.17"/><rect class="cls-3" x="189.37" y="120.25" width="5.2" height="5.17"/><path class="cls-5" d="M189.89,256.63h-5V246.57h-5V236.51h-5v-10h-5V216.4h-5V206.35h-5V196.29h-9.17v10.06h-5V216.4h-5v10.06h-5v10h-5v10.06h-5v10.06h-5v10.05h-5v10.06h79.69V266.68h-5Zm-25.12,12.71h-3.68v3.72H150v-3.72h-3.69v-3.71H150v-3.69h11.12v3.69h3.68ZM168.46,236h-3.69v11.11h-3.68v11.12H150V247.12h-3.69V236H142.6v-11.1h25.86Z"/><polygon class="cls-6" points="150.49 196.29 154.62 196.29 155.06 196.29 159.66 196.29 159.66 186.24 155.53 186.24 155.06 186.24 154.62 186.24 150.49 186.24 150.49 196.29"/><rect class="cls-6" x="145.45" y="196.29" width="5.04" height="10.06"/><rect class="cls-6" x="140.41" y="206.35" width="5.04" height="10.06"/><rect class="cls-6" x="135.38" y="216.4" width="5.04" height="10.06"/><rect class="cls-6" x="130.34" y="226.46" width="5.04" height="10.06"/><rect class="cls-6" x="125.3" y="236.51" width="5.04" height="10.06"/><rect class="cls-6" x="120.26" y="246.57" width="5.04" height="10.06"/><rect class="cls-6" x="115.23" y="256.63" width="5.04" height="10.06"/><polygon class="cls-6" points="105.15 281.75 204.97 281.75 204.97 276.74 199.96 276.74 199.96 266.68 194.92 266.68 194.92 276.74 115.22 276.74 115.22 266.68 110.19 266.68 110.19 276.74 105.15 276.74 105.15 281.75"/><rect class="cls-6" x="159.66" y="196.29" width="5.04" height="10.06"/><rect class="cls-6" x="164.7" y="206.35" width="5.04" height="10.06"/><rect class="cls-6" x="169.73" y="216.4" width="5.04" height="10.06"/><rect class="cls-6" x="174.77" y="226.46" width="5.04" height="10.06"/><rect class="cls-6" x="179.81" y="236.51" width="5.04" height="10.06"/><rect class="cls-6" x="184.85" y="246.57" width="5.04" height="10.06"/><rect class="cls-6" x="189.89" y="256.63" width="5.04" height="10.06"/><polygon class="cls-4" points="161.09 261.94 149.97 261.94 149.97 265.63 146.28 265.63 146.28 269.33 149.97 269.33 149.97 273.06 161.09 273.06 161.09 269.33 164.78 269.33 164.78 265.63 161.09 265.63 161.09 261.94"/><polygon class="cls-4" points="142.6 236.01 146.28 236.01 146.28 247.12 149.97 247.12 149.97 258.24 161.09 258.24 161.09 247.12 164.77 247.12 164.77 236.01 168.46 236.01 168.46 224.91 142.6 224.91 142.6 236.01"/><rect class="cls-4" x="105.15" y="266.68" width="5.04" height="10.06"/><rect class="cls-4" x="110.19" y="256.63" width="5.04" height="10.06"/><rect class="cls-4" x="115.23" y="246.57" width="5.04" height="10.06"/><rect class="cls-4" x="120.26" y="236.51" width="5.04" height="10.06"/><rect class="cls-4" x="125.3" y="226.46" width="5.04" height="10.06"/><rect class="cls-4" x="130.34" y="216.4" width="5.04" height="10.06"/><rect class="cls-4" x="135.38" y="206.35" width="5.04" height="10.06"/><rect class="cls-4" x="140.41" y="196.29" width="5.04" height="10.06"/><rect class="cls-4" x="145.45" y="186.24" width="5.04" height="10.06"/><polygon class="cls-4" points="154.62 186.24 155.06 186.24 155.53 186.24 159.66 186.24 159.66 176.18 155.53 176.18 154.62 176.18 150.49 176.18 150.49 186.24 154.62 186.24"/><rect class="cls-4" x="194.92" y="256.63" width="5.04" height="10.06"/><rect class="cls-4" x="189.89" y="246.57" width="5.04" height="10.06"/><rect class="cls-4" x="184.85" y="236.51" width="5.04" height="10.06"/><rect class="cls-4" x="179.81" y="226.46" width="5.04" height="10.06"/><rect class="cls-4" x="174.77" y="216.4" width="5.04" height="10.06"/><rect class="cls-4" x="169.73" y="206.35" width="5.04" height="10.06"/><rect class="cls-4" x="164.7" y="196.29" width="5.04" height="10.06"/><rect class="cls-4" x="159.66" y="186.24" width="5.04" height="10.06"/><polygon class="cls-4" points="205 276.74 205 266.68 199.96 266.68 199.96 276.74 204.97 276.74 204.97 281.75 105.15 281.75 105.15 276.74 100.11 276.74 100.11 281.75 100.11 286.79 105.15 286.79 204.97 286.79 210.01 286.79 210.01 281.75 210.01 276.74 205 276.74"/></svg>