<svg id="Слой_1" data-name="Слой 1" xmlns="http://www.w3.org/2000/svg" xmlns:xlink="http://www.w3.org/1999/xlink" viewBox="0 0 1440 3000"><defs><style>.cls-1{fill:#2d2d2d;}.cls-2,.cls-54{fill:none;}.cls-2{stroke:#9d9d9c;}.cls-10,.cls-11,.cls-13,.cls-14,.cls-15,.cls-16,.cls-17,.cls-18,.cls-19,.cls-2,.cls-20,.cls-21,.cls-23,.cls-24,.cls-25,.cls-26,.cls-27,.cls-3,.cls-39,.cls-40,.cls-41,.cls-42,.cls-43,.cls-44,.cls-45,.cls-47,.cls-5,.cls-50,.cls-53,.cls-56,.cls-58,.cls-59,.cls-6,.cls-60,.cls-61,.cls-62,.cls-63,.cls-64,.cls-65,.cls-66,.cls-67,.cls-68,.cls-69,.cls-7,.cls-70,.cls-71,.cls-74,.cls-75,.cls-76,.cls-77,.cls-8,.cls-9{stroke-miterlimit:10;}.cls-10,.cls-11,.cls-14,.cls-15,.cls-2,.cls-27,.cls-3,.cls-39,.cls-47,.cls-50,.cls-9{stroke-width:2px;}.cls-3{fill:#b2b2b2;stroke:#191918;}.cls-4{fill:#1d1d1b;}.cls-5,.cls-7,.cls-9{fill:#3c3c3b;}.cls-13,.cls-40,.cls-41,.cls-5,.cls-53,.cls-56{stroke:#231f20;stroke-width:0.05px;}.cls-18,.cls-27,.cls-6{fill:#562e37;}.cls-10,.cls-11,.cls-14,.cls-15,.cls-16,.cls-17,.cls-18,.cls-19,.cls-23,.cls-24,.cls-25,.cls-26,.cls-27,.cls-39,.cls-42,.cls-43,.cls-44,.cls-45,.cls-47,.cls-50,.cls-58,.cls-59,.cls-6,.cls-60,.cls-61,.cls-62,.cls-63,.cls-64,.cls-65,.cls-66,.cls-67,.cls-68,.cls-69,.cls-7,.cls-70,.cls-71,.cls-74,.cls-75,.cls-76,.cls-77,.cls-8,.cls-9{stroke:#000;}.cls-14,.cls-16,.cls-20,.cls-22,.cls-8{fill:#6f6f6e;}.cls-10,.cls-69{fill:#706f6f;}.cls-11,.cls-13,.cls-21,.cls-60{fill:#c14f4f;}.cls-12{fill:#191918;}.cls-15,.cls-17,.cls-23,.cls-59,.cls-63,.cls-70{fill:#e5e4e4;}.cls-16,.cls-17,.cls-18,.cls-19,.cls-20,.cls-71,.cls-75,.cls-76,.cls-77{stroke-width:3px;}.cls-19,.cls-39{fill:#b1b1b1;}.cls-20,.cls-21{stroke:#1d1d1b;}.cls-21,.cls-60,.cls-61,.cls-62,.cls-63,.cls-64,.cls-65,.cls-66,.cls-67,.cls-68,.cls-69{stroke-width:4px;}.cls-23,.cls-24,.cls-25,.cls-26,.cls-58,.cls-59,.cls-74{stroke-width:5px;}.cls-25,.cls-41{fill:#1a1a1a;}.cls-26{fill:#575756;}.cls-28{font-size:61.91px;letter-spacing:0.04em;}.cls-28,.cls-29,.cls-46,.cls-48,.cls-49,.cls-51,.cls-52,.cls-73,.cls-78,.cls-79,.cls-80,.cls-81{font-family:Fifaks1.0dev1, "Fifaks 1.0 dev1";}.cls-29{font-size:24.63px;letter-spacing:0.04em;}.cls-30{fill:#e20613;}.cls-31{fill:#fdd903;}.cls-32{fill:#ffef72;}.cls-33,.cls-34,.cls-35{isolation:isolate;}.cls-33,.cls-35{font-size:114.11px;font-family:BrutalType-Bold, Brutal Type;font-weight:700;}.cls-35{letter-spacing:-0.02em;}.cls-36,.cls-58{fill:#fff;}.cls-37,.cls-42{fill:#e5e5e5;}.cls-38,.cls-40,.cls-45,.cls-62,.cls-74,.cls-75{fill:#e5332a;}.cls-43,.cls-56,.cls-57{fill:#35a8e0;}.cls-44,.cls-72{fill:#fcbd3d;}.cls-46{font-size:35.34px;letter-spacing:0.04em;}.cls-47{fill:#5a8ca0;}.cls-48{font-size:24.35px;letter-spacing:0.04em;}.cls-49{font-size:34.94px;letter-spacing:0.04em;}.cls-50{fill:#4ea577;}.cls-51{font-size:23.07px;letter-spacing:0.04em;}.cls-52{font-size:33.11px;letter-spacing:0.04em;}.cls-53,.cls-55{fill:#00c462;}.cls-59{fill-opacity:0.33;}.cls-64,.cls-76{fill:#fbbd3d;}.cls-65,.cls-77{fill:#41ae60;}.cls-66{fill:#37a7df;}.cls-67{fill:#c9c8c8;}.cls-68{fill:#333;}.cls-70{stroke-width:6px;}.cls-73{font-size:87.33px;letter-spacing:0.04em;}.cls-78{font-size:30.91px;letter-spacing:0.04em;}.cls-79{font-size:35.56px;letter-spacing:0.04em;}.cls-80{font-size:51.03px;letter-spacing:0.04em;}.cls-81{font-size:54.34px;letter-spacing:0.04em;}</style></defs><rect class="cls-1" width="1440" height="3000"/><rect class="cls-2" width="1440" height="3000"/><line class="cls-2" y1="100" x2="1440" y2="100"/><line class="cls-2" y1="200" x2="1440" y2="200"/><line class="cls-2" y1="300" x2="1440" y2="300"/><line class="cls-2" y1="400" x2="1440" y2="400"/><line class="cls-2" y1="500" x2="1440" y2="500"/><line class="cls-2" y1="600" x2="1440" y2="600"/><line class="cls-2" y1="700" x2="1440" y2="700"/><line class="cls-2" y1="800" x2="1440" y2="800"/><line class="cls-2" y1="900" x2="1440" y2="900"/><line class="cls-2" y1="1000" x2="1440" y2="1000"/><line class="cls-2" y1="1100" x2="1440" y2="1100"/><line class="cls-2" y1="1200" x2="1440" y2="1200"/><line class="cls-2" y1="1300" x2="1440" y2="1300"/><line class="cls-2" y1="1400" x2="1440" y2="1400"/><line class="cls-2" y1="1500" x2="1440" y2="1500"/><line class="cls-2" y1="1600" x2="1440" y2="1600"/><line class="cls-2" y1="1700" x2="1440" y2="1700"/><line class="cls-2" y1="1800" x2="1440" y2="1800"/><line class="cls-2" y1="1900" x2="1440" y2="1900"/><line class="cls-2" y1="2000" x2="1440" y2="2000"/><line class="cls-2" y1="2100" x2="1440" y2="2100"/><line class="cls-2" y1="2200" x2="1440" y2="2200"/><line class="cls-2" y1="2300" x2="1440" y2="2300"/><line class="cls-2" y1="2400" x2="1440" y2="2400"/><line class="cls-2" y1="2500" x2="1440" y2="2500"/><line class="cls-2" y1="2600" x2="1440" y2="2600"/><line class="cls-2" y1="2700" x2="1440" y2="2700"/><line class="cls-2" y1="2800" x2="1440" y2="2800"/><line class="cls-2" y1="2900" x2="1440" y2="2900"/><line class="cls-2" x1="1337.14" y1="3000" x2="1337.14"/><line class="cls-2" x1="1234.29" y1="3000" x2="1234.29"/><line class="cls-2" x1="1131.43" y1="3000" x2="1131.43"/><line class="cls-2" x1="1028.57" y1="3000" x2="1028.57"/><line class="cls-2" x1="925.71" y1="3000" x2="925.71"/><line class="cls-2" x1="822.86" y1="3000" x2="822.86"/><line class="cls-2" x1="720" y1="3000" x2="720"/><line class="cls-2" x1="617.14" y1="3000" x2="617.14"/><line class="cls-2" x1="514.29" y1="3000" x2="514.29"/><line class="cls-2" x1="411.43" y1="3000" x2="411.43"/><line class="cls-2" x1="308.57" y1="3000" x2="308.57"/><line class="cls-2" x1="205.71" y1="3000" x2="205.71"/><line class="cls-2" x1="102.86" y1="3000" x2="102.86"/><rect class="cls-3" x="1" width="1438" height="72.87"/><rect class="cls-4" x="140.27" y="2277.72" width="129.74" height="1.4"/><polygon class="cls-5" points="292.11 2270.68 287.46 2270.68 287.46 2272.87 285.56 2272.87 285.56 2270.68 280.91 2270.68 280.91 2272.87 278.71 2272.87 278.71 2277.53 280.91 2277.53 280.91 2279.72 283.11 2279.72 283.11 2281.92 285.28 2281.92 285.28 2284.08 287.73 2284.08 287.73 2281.92 289.91 2281.92 289.91 2279.72 292.11 2279.72 292.11 2277.53 294.31 2277.53 294.31 2272.87 292.11 2272.87 292.11 2270.68"/><polygon class="cls-5" points="128.19 2106.76 123.54 2106.76 123.54 2108.96 121.64 2108.96 121.64 2106.76 116.99 2106.76 116.99 2108.96 114.79 2108.96 114.79 2113.61 116.99 2113.61 116.99 2115.81 119.19 2115.81 119.19 2118.01 121.36 2118.01 121.36 2120.16 123.81 2120.16 123.81 2118.01 125.99 2118.01 125.99 2115.81 128.19 2115.81 128.19 2113.61 130.39 2113.61 130.39 2108.96 128.19 2108.96 128.19 2106.76"/><circle class="cls-6" cx="921.82" cy="2085.19" r="7.04"/><circle class="cls-7" cx="939.73" cy="2085.19" r="7.04"/><circle class="cls-8" cx="957.82" cy="2085.19" r="7.04"/><rect class="cls-4" x="979.79" y="2085.97" width="106.75" height="1.33"/><circle class="cls-9" cx="152.03" cy="38.45" r="21.4"/><circle class="cls-10" cx="98.16" cy="38.45" r="21.4"/><circle class="cls-11" cx="44.29" cy="38.45" r="21.4"/><rect class="cls-12" x="217.71" y="36.43" width="1070.11" height="4.03"/><polygon class="cls-13" points="1356.3 17.08 1342.86 17.08 1342.86 23.43 1337.38 23.43 1337.38 17.08 1323.94 17.08 1323.94 23.43 1317.59 23.43 1317.59 36.87 1323.94 36.87 1323.94 43.22 1330.29 43.22 1330.29 49.57 1336.57 49.57 1336.57 55.79 1343.65 55.79 1343.65 49.57 1349.95 49.57 1349.95 43.22 1356.3 43.22 1356.3 36.87 1362.65 36.87 1362.65 23.43 1356.3 23.43 1356.3 17.08"/><path class="cls-5" d="M1414.1,23.43V17.08h-13.44v6.35h-5.49V17.08h-13.43v6.35h-6.35V36.87h6.35v6.35h6.35v6.35h6.27v6.22h7.09V49.57h6.29V43.22h6.36V36.87h6.35V23.43Zm-.74,12.7H1407v6.35h-6.35V48.7h-5.49V42.48h-6.34V36.13h-6.35v-12h12v6.35h7.09V24.17h11.83Z"/><rect class="cls-14" x="89.98" y="1968.4" width="447.68" height="425.37"/><rect class="cls-15" x="82.49" y="1959.98" width="446.58" height="424.33"/><rect class="cls-11" x="82.49" y="1959.38" width="446.58" height="27.76"/><circle class="cls-6" cx="95.89" cy="1972.82" r="7.12"/><circle class="cls-7" cx="114.01" cy="1972.82" r="7.12"/><circle class="cls-8" cx="132.3" cy="1972.82" r="7.12"/><rect class="cls-4" x="154.53" y="1973.61" width="107.97" height="1.34"/><rect class="cls-4" x="373.37" y="1974.05" width="124.65" height="1.34"/><rect class="cls-4" x="139.53" y="120.1" width="254.06" height="1.71"/><rect class="cls-16" x="90.47" y="95.67" width="303.12" height="159.97"/><rect class="cls-17" x="85.1" y="89.7" width="303.12" height="159.97"/><rect class="cls-18" x="85.1" y="88.92" width="303.12" height="35.48"/><rect class="cls-4" x="106.14" y="106.82" width="254.06" height="1.71"/><polygon points="336.63 212.67 318.91 212.67 318.91 218.56 313.04 218.56 313.04 224.46 318.91 224.46 318.91 230.39 336.63 230.39 336.63 224.46 342.5 224.46 342.5 218.56 336.63 218.56 336.63 212.67"/><polygon points="360.22 152.7 354.33 152.7 354.33 146.77 348.42 146.77 348.42 140.83 306.14 140.83 306.14 146.77 300.25 146.77 300.25 152.71 294.35 152.71 294.35 153.68 294.35 176.28 312.06 176.28 312.06 153.68 312.06 152.71 318.94 152.71 318.94 146.77 331.15 146.77 331.15 152.7 336.64 152.7 336.64 170.39 336.64 176.28 336.64 177.28 330.73 177.28 330.73 182.19 330.73 183.19 324.82 183.19 324.82 188.1 324.82 189.07 318.91 189.07 318.91 206.79 336.63 206.79 336.63 189.07 336.63 189.07 336.63 188.1 342.53 188.1 342.53 183.19 342.53 182.19 348.43 182.19 348.43 177.28 348.43 176.28 354.33 176.28 354.33 170.39 360.22 170.39 360.22 152.7"/><polygon points="242.53 212.67 224.82 212.67 224.82 218.56 218.94 218.56 218.94 224.46 224.82 224.46 224.82 230.39 242.53 230.39 242.53 224.46 248.41 224.46 248.41 218.56 242.53 218.56 242.53 212.67"/><polygon points="266.13 152.7 260.23 152.7 260.23 146.77 254.32 146.77 254.32 140.83 212.05 140.83 212.05 146.77 206.15 146.77 206.15 152.71 200.26 152.71 200.26 153.68 200.26 176.28 217.96 176.28 217.96 153.68 217.96 152.71 224.84 152.71 224.84 146.77 237.06 146.77 237.06 152.7 242.54 152.7 242.54 170.39 242.54 176.28 242.54 177.28 236.63 177.28 236.63 182.19 236.63 183.19 230.72 183.19 230.72 188.1 230.72 189.07 224.82 189.07 224.82 206.79 242.53 206.79 242.53 189.07 242.53 189.07 242.53 188.1 248.44 188.1 248.44 183.19 248.44 182.19 254.33 182.19 254.33 177.28 254.33 176.28 260.23 176.28 260.23 170.39 266.13 170.39 266.13 152.7"/><polygon points="148.44 212.67 130.72 212.67 130.72 218.56 124.85 218.56 124.85 224.46 130.72 224.46 130.72 230.39 148.44 230.39 148.44 224.46 154.31 224.46 154.31 218.56 148.44 218.56 148.44 212.67"/><polygon points="172.03 152.7 166.13 152.7 166.13 146.77 160.22 146.77 160.22 140.83 117.95 140.83 117.95 146.77 112.06 146.77 112.06 152.71 106.16 152.71 106.16 153.68 106.16 176.28 123.86 176.28 123.86 153.68 123.86 152.71 130.75 152.71 130.75 146.77 142.96 146.77 142.96 152.7 148.44 152.7 148.44 170.39 148.44 176.28 148.44 177.28 142.53 177.28 142.53 182.19 142.53 183.19 136.62 183.19 136.62 188.1 136.62 189.07 130.72 189.07 130.72 206.79 148.44 206.79 148.44 189.07 148.44 189.07 148.44 188.1 154.34 188.1 154.34 183.19 154.34 182.19 160.24 182.19 160.24 177.28 160.24 176.28 166.13 176.28 166.13 170.39 172.03 170.39 172.03 152.7"/><rect class="cls-4" x="106.09" y="130.34" width="254.06" height="1.71"/><rect class="cls-16" x="57.03" y="105.91" width="303.12" height="159.97"/><rect class="cls-17" x="51.66" y="99.94" width="303.12" height="159.97"/><rect class="cls-18" x="51.66" y="99.17" width="303.12" height="35.48"/><rect class="cls-4" x="71.93" y="117.07" width="254.06" height="1.71"/><polygon points="302.42 222.91 284.7 222.91 284.7 228.8 278.83 228.8 278.83 234.71 284.7 234.71 284.7 240.63 302.42 240.63 302.42 234.71 308.29 234.71 308.29 228.8 302.42 228.8 302.42 222.91"/><polygon points="326.01 162.94 320.12 162.94 320.12 157.01 314.2 157.01 314.2 151.07 271.93 151.07 271.93 157.01 266.04 157.01 266.04 162.95 260.14 162.95 260.14 163.92 260.14 186.52 277.85 186.52 277.85 163.92 277.85 162.95 284.73 162.95 284.73 157.01 296.94 157.01 296.94 162.94 302.43 162.94 302.43 180.63 302.43 186.52 302.43 187.52 296.52 187.52 296.52 192.43 296.52 193.43 290.61 193.43 290.61 198.34 290.61 199.31 284.7 199.31 284.7 217.03 302.42 217.03 302.42 199.31 302.42 199.31 302.42 198.34 308.32 198.34 308.32 193.43 308.32 192.43 314.22 192.43 314.22 187.52 314.22 186.52 320.12 186.52 320.12 180.63 326.01 180.63 326.01 162.94"/><polygon points="208.32 222.91 190.6 222.91 190.6 228.8 184.73 228.8 184.73 234.71 190.6 234.71 190.6 240.63 208.32 240.63 208.32 234.71 214.19 234.71 214.19 228.8 208.32 228.8 208.32 222.91"/><polygon points="231.91 162.94 226.02 162.94 226.02 157.01 220.11 157.01 220.11 151.07 177.84 151.07 177.84 157.01 171.94 157.01 171.94 162.95 166.05 162.95 166.05 163.92 166.05 186.52 183.75 186.52 183.75 163.92 183.75 162.95 190.63 162.95 190.63 157.01 202.85 157.01 202.85 162.94 208.33 162.94 208.33 180.63 208.33 186.52 208.33 187.52 202.42 187.52 202.42 192.43 202.42 193.43 196.51 193.43 196.51 198.34 196.51 199.31 190.6 199.31 190.6 217.03 208.32 217.03 208.32 199.31 208.32 199.31 208.32 198.34 214.23 198.34 214.23 193.43 214.23 192.43 220.12 192.43 220.12 187.52 220.12 186.52 226.02 186.52 226.02 180.63 231.91 180.63 231.91 162.94"/><polygon points="114.23 222.91 96.51 222.91 96.51 228.8 90.64 228.8 90.64 234.71 96.51 234.71 96.51 240.63 114.23 240.63 114.23 234.71 120.1 234.71 120.1 228.8 114.23 228.8 114.23 222.91"/><polygon points="137.82 162.94 131.92 162.94 131.92 157.01 126.01 157.01 126.01 151.07 83.74 151.07 83.74 157.01 77.84 157.01 77.84 162.95 71.95 162.95 71.95 163.92 71.95 186.52 89.65 186.52 89.65 163.92 89.65 162.95 96.53 162.95 96.53 157.01 108.75 157.01 108.75 162.94 114.23 162.94 114.23 180.63 114.23 186.52 114.23 187.52 108.32 187.52 108.32 192.43 108.32 193.43 102.41 193.43 102.41 198.34 102.41 199.31 96.51 199.31 96.51 217.03 114.23 217.03 114.23 199.31 114.22 199.31 114.22 198.34 120.13 198.34 120.13 193.43 120.13 192.43 126.02 192.43 126.02 187.52 126.02 186.52 131.92 186.52 131.92 180.63 137.82 180.63 137.82 162.94"/><rect class="cls-4" x="72.27" y="140.55" width="254.06" height="1.71"/><rect class="cls-16" x="23.21" y="116.12" width="303.12" height="159.97"/><rect class="cls-17" x="17.84" y="110.15" width="303.12" height="159.97"/><rect class="cls-19" x="17.84" y="109.38" width="303.12" height="35.48"/><rect class="cls-4" x="38.1" y="127.28" width="254.06" height="1.71"/><polygon points="268.6 233.13 250.88 233.13 250.88 239.01 245.01 239.01 245.01 244.92 250.88 244.92 250.88 250.84 268.6 250.84 268.6 244.92 274.47 244.92 274.47 239.01 268.6 239.01 268.6 233.13"/><polygon points="292.19 173.15 286.29 173.15 286.29 167.22 280.38 167.22 280.38 161.29 238.11 161.29 238.11 167.22 232.22 167.22 232.22 173.16 226.32 173.16 226.32 174.13 226.32 196.73 244.03 196.73 244.03 174.13 244.03 173.16 250.91 173.16 250.91 167.22 263.12 167.22 263.12 173.15 268.61 173.15 268.61 190.84 268.61 196.73 268.61 197.73 262.69 197.73 262.69 202.64 262.69 203.64 256.78 203.64 256.78 208.56 256.78 209.53 250.88 209.53 250.88 227.24 268.6 227.24 268.6 209.53 268.6 209.53 268.6 208.56 274.5 208.56 274.5 203.64 274.5 202.64 280.4 202.64 280.4 197.73 280.4 196.73 286.29 196.73 286.29 190.84 292.19 190.84 292.19 173.15"/><polygon points="174.5 233.13 156.78 233.13 156.78 239.01 150.91 239.01 150.91 244.92 156.78 244.92 156.78 250.84 174.5 250.84 174.5 244.92 180.37 244.92 180.37 239.01 174.5 239.01 174.5 233.13"/><polygon points="198.09 173.15 192.2 173.15 192.2 167.22 186.29 167.22 186.29 161.29 144.01 161.29 144.01 167.22 138.12 167.22 138.12 173.16 132.22 173.16 132.22 174.13 132.22 196.73 149.93 196.73 149.93 174.13 149.93 173.16 156.81 173.16 156.81 167.22 169.03 167.22 169.03 173.15 174.51 173.15 174.51 190.84 174.51 196.73 174.51 197.73 168.6 197.73 168.6 202.64 168.6 203.64 162.69 203.64 162.69 208.56 162.69 209.53 156.78 209.53 156.78 227.24 174.5 227.24 174.5 209.53 174.5 209.53 174.5 208.56 180.41 208.56 180.41 203.64 180.41 202.64 186.3 202.64 186.3 197.73 186.3 196.73 192.2 196.73 192.2 190.84 198.09 190.84 198.09 173.15"/><polygon points="80.41 233.13 62.69 233.13 62.69 239.01 56.82 239.01 56.82 244.92 62.69 244.92 62.69 250.84 80.41 250.84 80.41 244.92 86.28 244.92 86.28 239.01 80.41 239.01 80.41 233.13"/><polygon points="104 173.15 98.1 173.15 98.1 167.22 92.19 167.22 92.19 161.29 49.92 161.29 49.92 167.22 44.02 167.22 44.02 173.16 38.13 173.16 38.13 174.13 38.13 196.73 55.83 196.73 55.83 174.13 55.83 173.16 62.71 173.16 62.71 167.22 74.93 167.22 74.93 173.15 80.41 173.15 80.41 190.84 80.41 196.73 80.41 197.73 74.5 197.73 74.5 202.64 74.5 203.64 68.59 203.64 68.59 208.56 68.59 209.53 62.69 209.53 62.69 227.24 80.41 227.24 80.41 209.53 80.4 209.53 80.4 208.56 86.31 208.56 86.31 203.64 86.31 202.64 92.2 202.64 92.2 197.73 92.2 196.73 98.1 196.73 98.1 190.84 104 190.84 104 173.15"/><rect class="cls-20" x="670.15" y="138.25" width="724.42" height="382.31"/><rect class="cls-17" x="657.32" y="123.98" width="724.42" height="382.31"/><rect class="cls-21" x="657.32" y="122.14" width="724.42" height="84.79"/><rect class="cls-4" x="705.75" y="164.91" width="607.19" height="4.1"/><rect class="cls-16" x="298.04" y="338.04" width="294.08" height="155.2"/><rect class="cls-17" x="292.42" y="332.24" width="294.08" height="155.2"/><rect class="cls-18" x="292.42" y="331.5" width="294.08" height="34.42"/><rect class="cls-16" x="285.62" y="324.94" width="294.08" height="155.2"/><rect class="cls-17" x="280" y="319.82" width="294.08" height="155.2"/><rect class="cls-18" x="280" y="319.07" width="294.08" height="34.42"/><rect class="cls-16" x="273.32" y="313.31" width="294.08" height="155.2"/><rect class="cls-17" x="267.69" y="307.52" width="294.08" height="155.2"/><rect class="cls-19" x="267.69" y="306.77" width="294.08" height="34.42"/><rect class="cls-4" x="287.91" y="324.11" width="246.49" height="1.66"/><polygon points="474.86 362.89 474.86 362.89 533 362.89 533 357.13 469.1 357.13 469.1 362.89 469.1 368.65 469.1 374.41 469.1 374.41 469.1 374.41 474.86 374.41 474.86 380.17 474.86 385.94 480.62 385.94 480.62 391.7 480.62 397.46 486.38 397.46 486.38 403.22 486.38 408.98 492.02 408.98 492.02 414.44 492.02 420.2 510.08 420.2 510.08 414.74 510.21 414.74 510.21 408.98 515.81 408.98 515.81 408.98 515.98 408.98 515.98 403.22 515.98 397.46 521.57 397.46 521.57 397.46 521.65 397.46 521.65 391.7 521.65 385.94 527.33 385.94 527.33 380.17 527.33 374.41 533 374.41 533 368.65 533 362.89 474.86 362.89"/><polygon points="510.11 426.82 492.93 426.82 492.93 432.54 487.23 432.54 487.23 438.26 492.93 438.26 492.93 444.01 510.11 444.01 510.11 438.26 515.81 438.26 515.81 432.54 510.11 432.54 510.11 426.82"/><polygon points="293.95 362.89 293.95 362.89 352.1 362.89 352.1 357.13 288.19 357.13 288.19 362.89 288.19 368.65 288.19 374.41 288.19 374.41 288.19 374.41 293.95 374.41 293.95 380.17 293.95 385.94 299.72 385.94 299.72 391.7 299.72 397.46 305.48 397.46 305.48 403.22 305.48 408.98 311.11 408.98 311.11 414.44 311.11 420.2 329.18 420.2 329.18 414.74 329.31 414.74 329.31 408.98 334.9 408.98 334.9 408.98 335.07 408.98 335.07 403.22 335.07 397.46 340.66 397.46 340.66 397.46 340.75 397.46 340.75 391.7 340.75 385.94 346.42 385.94 346.42 380.17 346.42 374.41 352.1 374.41 352.1 368.65 352.1 362.89 293.95 362.89"/><polygon points="329.21 426.82 312.02 426.82 312.02 432.54 306.32 432.54 306.32 438.26 312.02 438.26 312.02 444.01 329.21 444.01 329.21 438.26 334.9 438.26 334.9 432.54 329.21 432.54 329.21 426.82"/><polygon points="383.94 362.89 383.94 362.89 442.08 362.89 442.08 357.13 378.18 357.13 378.18 362.89 378.18 368.65 378.18 374.41 378.18 374.41 378.18 374.41 383.94 374.41 383.94 380.17 383.94 385.94 389.7 385.94 389.7 391.7 389.7 397.46 395.46 397.46 395.46 403.22 395.46 408.98 401.09 408.98 401.09 414.44 401.09 420.2 419.16 420.2 419.16 414.74 419.29 414.74 419.29 408.98 424.89 408.98 424.89 408.98 425.05 408.98 425.05 403.22 425.05 397.46 430.64 397.46 430.64 397.46 430.73 397.46 430.73 391.7 430.73 385.94 436.4 385.94 436.4 380.17 436.4 374.41 442.08 374.41 442.08 368.65 442.08 362.89 383.94 362.89"/><polygon points="419.19 426.82 402 426.82 402 432.54 396.31 432.54 396.31 438.26 402 438.26 402 444.01 419.19 444.01 419.19 438.26 424.89 438.26 424.89 432.54 419.19 432.54 419.19 426.82"/><circle class="cls-16" cx="397.97" cy="1266.47" r="16.28"/><rect x="348.98" y="1259.63" width="14.13" height="14.13"/><rect x="390.91" y="1259.41" width="14.13" height="14.13"/><circle class="cls-16" cx="478.05" cy="1221.61" r="16.28"/><rect x="429.06" y="1214.76" width="14.13" height="14.13"/><rect x="470.99" y="1214.54" width="14.13" height="14.13"/><rect class="cls-22" x="49.78" y="1179.07" width="582.96" height="248.78"/><rect class="cls-23" x="39.69" y="1167.3" width="582.96" height="250.5"/><rect class="cls-24" x="58.72" y="1297.2" width="545.01" height="28.42"/><rect class="cls-25" x="39.69" y="1166.51" width="582.96" height="36.24"/><rect class="cls-23" x="62.54" y="1293.38" width="537.27" height="36.2"/><rect class="cls-26" x="62.38" y="1293.38" width="458.04" height="36.2"/><circle class="cls-27" cx="56.93" cy="1184.84" r="10.18"/><circle class="cls-9" cx="85.05" cy="1185.11" r="10.18"/><circle class="cls-14" cx="113.41" cy="1185.11" r="10.18"/><text class="cls-28" transform="translate(113.41 1277.57) scale(1 0.89)">идет процесс..</text><text class="cls-29" transform="translate(273.32 1983.98) scale(1 0.89)">юзбфарм</text><rect class="cls-30" x="317.39" y="1363.44" width="6.15" height="18.41"/><rect class="cls-30" x="320.49" y="1379.29" width="6.15" height="8.72"/><rect class="cls-30" x="324.05" y="1385.44" width="5.63" height="5.63"/><rect class="cls-30" x="361.4" y="1385.44" width="5.63" height="5.63"/><rect class="cls-30" x="364.5" y="1378.79" width="6.13" height="9.18"/><rect class="cls-30" x="367.56" y="1363.44" width="6.13" height="18.42"/><rect class="cls-30" x="364.49" y="1357.29" width="6.13" height="9.21"/><rect class="cls-30" x="361.42" y="1353.71" width="6.13" height="6.13"/><rect class="cls-30" x="358.35" y="1350.64" width="6.13" height="6.13"/><rect class="cls-30" x="352.2" y="1347.58" width="9.22" height="6.13"/><rect class="cls-30" x="336.34" y="1344.49" width="18.43" height="6.13"/><rect class="cls-30" x="326.61" y="1350.62" width="12.77" height="3.07"/><rect class="cls-30" x="329.69" y="1347.56" width="9.69" height="3.07"/><rect class="cls-30" x="355.26" y="1382.36" width="6.15" height="6.15"/><rect class="cls-30" x="351.68" y="1378.82" width="6.15" height="6.15"/><rect class="cls-30" x="348.61" y="1375.75" width="6.15" height="6.15"/><rect class="cls-30" x="345.53" y="1372.67" width="6.15" height="6.15"/><rect class="cls-30" x="342.46" y="1369.6" width="6.15" height="6.15"/><rect class="cls-30" x="339.39" y="1366.53" width="6.15" height="6.15"/><rect class="cls-30" x="336.31" y="1363.45" width="6.15" height="6.15"/><rect class="cls-30" x="333.24" y="1360.38" width="6.15" height="6.15"/><rect class="cls-30" x="330.17" y="1357.31" width="6.15" height="6.15"/><rect class="cls-30" x="323.56" y="1353.7" width="9.68" height="6.69"/><rect class="cls-30" x="320.46" y="1357.31" width="6.15" height="9.22"/><rect class="cls-30" x="327.14" y="1388.51" width="5.63" height="5.63"/><rect class="cls-30" x="358.33" y="1388.51" width="5.63" height="5.63"/><rect class="cls-30" x="330.19" y="1391.57" width="9.21" height="6.14"/><rect class="cls-30" x="351.68" y="1391.57" width="9.21" height="6.14"/><rect class="cls-30" x="336.34" y="1394.65" width="18.42" height="6.14"/><rect class="cls-4" x="315.42" y="1364.23" width="6.15" height="18.41"/><rect class="cls-4" x="318.51" y="1380.08" width="6.15" height="8.72"/><rect class="cls-4" x="322.08" y="1386.22" width="5.63" height="5.63"/><rect class="cls-4" x="359.43" y="1386.22" width="5.63" height="5.63"/><rect class="cls-4" x="362.53" y="1379.58" width="6.13" height="9.18"/><rect class="cls-4" x="365.59" y="1364.23" width="6.13" height="18.42"/><rect class="cls-4" x="362.52" y="1358.08" width="6.13" height="9.21"/><rect class="cls-4" x="359.44" y="1354.5" width="6.13" height="6.13"/><rect class="cls-4" x="356.38" y="1351.43" width="6.13" height="6.13"/><rect class="cls-4" x="350.23" y="1348.36" width="9.22" height="6.13"/><rect class="cls-4" x="334.36" y="1345.28" width="18.43" height="6.13"/><rect class="cls-4" x="324.64" y="1351.41" width="12.77" height="3.07"/><rect class="cls-4" x="327.72" y="1348.35" width="9.69" height="3.07"/><rect class="cls-4" x="353.28" y="1383.15" width="6.15" height="6.15"/><rect class="cls-4" x="349.71" y="1379.61" width="6.15" height="6.15"/><rect class="cls-4" x="346.64" y="1376.54" width="6.15" height="6.15"/><rect class="cls-4" x="343.56" y="1373.46" width="6.15" height="6.15"/><rect class="cls-4" x="340.49" y="1370.39" width="6.15" height="6.15"/><rect class="cls-4" x="337.42" y="1367.32" width="6.15" height="6.15"/><rect class="cls-4" x="334.34" y="1364.24" width="6.15" height="6.15"/><rect class="cls-4" x="331.27" y="1361.17" width="6.15" height="6.15"/><rect class="cls-4" x="328.2" y="1358.1" width="6.15" height="6.15"/><rect class="cls-4" x="321.59" y="1354.48" width="9.68" height="6.69"/><rect class="cls-4" x="318.49" y="1358.1" width="6.15" height="9.22"/><rect class="cls-4" x="325.17" y="1389.29" width="5.63" height="5.63"/><rect class="cls-4" x="356.36" y="1389.29" width="5.63" height="5.63"/><rect class="cls-4" x="328.22" y="1392.36" width="9.21" height="6.14"/><rect class="cls-4" x="349.71" y="1392.36" width="9.21" height="6.14"/><rect class="cls-4" x="334.36" y="1395.43" width="18.42" height="6.14"/><polygon class="cls-31" points="521.85 1294.14 503.36 1329.74 540.34 1329.74 521.85 1294.14"/><rect class="cls-32" x="520.24" y="1295.16" width="1.61" height="3.55"/><rect class="cls-32" x="518.46" y="1298.71" width="1.78" height="3.55"/><rect class="cls-32" x="516.68" y="1302.25" width="1.78" height="3.55"/><rect class="cls-32" x="514.91" y="1305.8" width="1.78" height="3.55"/><rect class="cls-32" x="513.13" y="1309.35" width="1.78" height="3.55"/><rect class="cls-32" x="511.35" y="1312.89" width="1.78" height="3.55"/><rect class="cls-32" x="509.58" y="1316.44" width="1.78" height="3.55"/><rect class="cls-32" x="507.8" y="1319.99" width="1.78" height="3.55"/><rect class="cls-32" x="506.02" y="1323.53" width="1.78" height="3.55"/><rect class="cls-32" x="504.24" y="1327.08" width="35.21" height="1.77"/><rect class="cls-32" x="523.47" y="1298.71" width="1.78" height="3.55"/><rect class="cls-32" x="525.25" y="1302.25" width="1.78" height="3.55"/><rect class="cls-32" x="527.02" y="1305.8" width="1.78" height="3.55"/><rect class="cls-32" x="528.8" y="1309.35" width="1.78" height="3.55"/><rect class="cls-32" x="530.58" y="1312.89" width="1.78" height="3.55"/><rect class="cls-32" x="532.36" y="1316.44" width="1.78" height="3.55"/><rect class="cls-32" x="534.13" y="1319.99" width="1.78" height="3.55"/><rect class="cls-32" x="535.91" y="1323.53" width="1.78" height="3.55"/><rect class="cls-32" x="521.69" y="1295.16" width="1.78" height="3.55"/><rect class="cls-4" x="502.47" y="1328.85" width="38.76" height="1.78"/><rect class="cls-4" x="520.05" y="1316.63" width="3.92" height="3.92"/><rect class="cls-4" x="520.05" y="1321.86" width="3.92" height="3.92"/><rect class="cls-4" x="518.75" y="1323.16" width="1.3" height="1.31"/><rect class="cls-4" x="523.98" y="1323.16" width="1.3" height="1.31"/><rect class="cls-4" x="518.75" y="1312.72" width="6.52" height="3.92"/><rect class="cls-4" x="517.45" y="1308.8" width="9.12" height="3.92"/><rect class="cls-4" x="502.47" y="1327.08" width="1.78" height="3.55"/><rect class="cls-4" x="504.24" y="1323.53" width="1.78" height="3.55"/><rect class="cls-4" x="506.02" y="1319.99" width="1.78" height="3.55"/><rect class="cls-4" x="507.8" y="1316.44" width="1.78" height="3.55"/><rect class="cls-4" x="509.58" y="1312.89" width="1.78" height="3.55"/><rect class="cls-4" x="511.35" y="1309.35" width="1.78" height="3.55"/><rect class="cls-4" x="513.13" y="1305.8" width="1.78" height="3.55"/><rect class="cls-4" x="514.91" y="1302.25" width="1.78" height="3.55"/><rect class="cls-4" x="516.68" y="1298.71" width="1.78" height="3.55"/><rect class="cls-4" x="518.46" y="1295.16" width="1.78" height="3.55"/><rect class="cls-4" x="520.24" y="1291.61" width="1.78" height="3.55"/><rect class="cls-4" x="537.69" y="1323.53" width="1.78" height="3.55"/><rect class="cls-4" x="535.91" y="1319.99" width="1.78" height="3.55"/><rect class="cls-4" x="534.13" y="1316.44" width="1.78" height="3.55"/><rect class="cls-4" x="532.36" y="1312.89" width="1.78" height="3.55"/><rect class="cls-4" x="530.58" y="1309.35" width="1.78" height="3.55"/><rect class="cls-4" x="528.8" y="1305.8" width="1.78" height="3.55"/><rect class="cls-4" x="527.02" y="1302.25" width="1.78" height="3.55"/><rect class="cls-4" x="525.25" y="1298.71" width="1.78" height="3.55"/><rect class="cls-4" x="523.47" y="1295.16" width="1.78" height="3.55"/><rect class="cls-4" x="521.69" y="1291.61" width="1.78" height="3.55"/><rect class="cls-4" x="539.45" y="1327.08" width="1.78" height="3.55"/><text class="cls-33" transform="translate(1016.68 350.15)">ЮЗБ</text><g class="cls-34"><text class="cls-35" transform="translate(1016.68 439.68)">Ф</text><text class="cls-33" transform="translate(1115.39 439.68)">АРМ</text></g><rect class="cls-36" x="902.12" y="273.58" width="102.44" height="158.83"/><path d="M819.8,479c-181.18,0-183-247-1.79-247h70.5c11.57.88,12.62-.61,14.8,4.7a41.08,41.08,0,0,1,3.06,15.71v17.47h98V439.37h-98v15.68a55.19,55.19,0,0,1-3.43,19.5c-1.15,3.08-2.45,3.19-10,4.05a56.06,56.06,0,0,1-6.48.38Zm86.68-200.15-.1,71h90.86l.19-71Zm-.1,80.69v72.82l91-.42-.19-72.44Z"/><rect x="945.62" y="298.4" width="31.08" height="31.08"/><rect class="cls-37" x="952.47" y="305.24" width="17.4" height="18.03"/><rect x="945.62" y="380.14" width="31.08" height="31.08"/><rect class="cls-37" x="952.47" y="386.99" width="17.4" height="18.03"/><polygon class="cls-38" points="864.31 320.11 864.31 307.93 850.64 307.93 850.64 295.74 823.29 295.74 823.29 307.93 809.62 307.93 809.62 320.11 795.95 320.11 795.95 307.93 782.28 307.93 782.28 295.74 754.93 295.74 754.93 307.93 741.26 307.93 741.26 320.11 727.59 320.11 727.59 356.66 741.26 356.66 741.26 368.84 754.93 368.84 754.93 381.03 768.6 381.03 768.6 393.21 782.28 393.21 782.28 405.4 795.95 405.4 795.95 417.58 809.62 417.58 809.62 405.4 823.29 405.4 823.29 393.21 836.96 393.21 836.96 381.03 850.64 381.03 850.64 368.84 864.31 368.84 864.31 356.66 877.98 356.66 877.98 320.11 864.31 320.11"/><rect class="cls-14" x="496.58" y="2865.74" width="453.18" height="80.07"/><rect class="cls-15" x="489.47" y="2877.29" width="452.33" height="61.08"/><rect class="cls-39" x="489.47" y="2854.19" width="452.33" height="23.11"/><rect class="cls-4" x="499.3" y="2864.82" width="431.08" height="1.84"/><rect class="cls-40" x="178.84" y="2011.35" width="281.01" height="281.01" rx="11.42"/><rect class="cls-41" x="174.25" y="2006.76" width="281.01" height="281.01" rx="11.42"/><polygon class="cls-38" points="405.27 2102.67 405.27 2083.63 383.9 2083.63 383.9 2064.58 341.17 2064.58 341.17 2083.63 319.8 2083.63 319.8 2102.67 298.43 2102.67 298.43 2083.63 277.06 2083.63 277.06 2064.58 234.33 2064.58 234.33 2083.63 212.96 2083.63 212.96 2102.67 191.6 2102.67 191.6 2159.79 212.96 2159.79 212.96 2178.84 234.33 2178.84 234.33 2197.88 255.7 2197.88 255.7 2216.92 277.06 2216.92 277.06 2235.96 298.43 2235.96 298.43 2255 319.8 2255 319.8 2235.96 341.17 2235.96 341.17 2216.92 362.54 2216.92 362.54 2197.88 383.9 2197.88 383.9 2178.84 405.27 2178.84 405.27 2159.79 426.64 2159.79 426.64 2102.67 405.27 2102.67"/><polygon class="cls-5" points="519.25 1967.29 514.78 1967.29 514.78 1969.4 512.96 1969.4 512.96 1967.29 508.49 1967.29 508.49 1969.4 506.38 1969.4 506.38 1973.87 508.49 1973.87 508.49 1975.98 510.6 1975.98 510.6 1978.09 512.69 1978.09 512.69 1980.16 515.04 1980.16 515.04 1978.09 517.14 1978.09 517.14 1975.98 519.25 1975.98 519.25 1973.87 521.36 1973.87 521.36 1969.4 519.25 1969.4 519.25 1967.29"/><rect class="cls-42" x="108.24" y="2316.58" width="403.47" height="42.47" rx="5.84"/><path class="cls-43" d="M115,2316.58H198.6v42.47H115a5.84,5.84,0,0,1-5.83-5.84h0v-30.8a5.83,5.83,0,0,1,5.83-5.83Z"/><rect class="cls-42" x="105.32" y="2319.18" width="403.47" height="42.47" rx="5.84"/><path class="cls-44" d="M110.65,2319.7h83.62v42.47H110.65a5.84,5.84,0,0,1-5.84-5.84h0v-30.8a5.83,5.83,0,0,1,5.84-5.83Z"/><rect class="cls-42" x="101.89" y="2321.99" width="403.47" height="42.47" rx="5.84"/><path class="cls-45" d="M106.75,2322.19h82.64v42H106.75a5.76,5.76,0,0,1-5.76-5.76h0V2328A5.77,5.77,0,0,1,106.75,2322.19Z"/><path d="M156,2357.46l-8-10.3a11.25,11.25,0,1,0-1.53,1.19l8,10.29a1,1,0,0,0,1.53-1.18Zm-16.78-9.34a9.3,9.3,0,1,1,10.41-8.07A9.31,9.31,0,0,1,139.24,2348.12Z"/><text class="cls-46" transform="translate(196.8 2359.79) scale(1 0.89)">КАК ВЫЛЕЧИТЬ ПК?</text><rect class="cls-14" x="769.55" y="1933.57" width="442.63" height="420.58"/><rect class="cls-15" x="763.45" y="1927.54" width="441.55" height="419.55"/><rect class="cls-47" x="763.45" y="1926.94" width="441.55" height="27.45"/><circle class="cls-6" cx="777.3" cy="1940.67" r="7.04"/><circle class="cls-7" cx="795.21" cy="1940.67" r="7.04"/><circle class="cls-8" cx="813.3" cy="1940.67" r="7.04"/><rect class="cls-4" x="835.27" y="1941.45" width="106.75" height="1.33"/><rect class="cls-4" x="1051.06" y="1941.45" width="123.25" height="1.33"/><text class="cls-48" transform="translate(952.73 1951.71) scale(1 0.89)">юзбфарм</text><polygon class="cls-5" points="1195.3 1934.77 1190.88 1934.77 1190.88 1936.85 1189.07 1936.85 1189.07 1934.77 1184.66 1934.77 1184.66 1936.85 1182.57 1936.85 1182.57 1941.27 1184.66 1941.27 1184.66 1943.36 1186.74 1943.36 1186.74 1945.45 1188.81 1945.45 1188.81 1947.49 1191.14 1947.49 1191.14 1945.45 1193.21 1945.45 1193.21 1943.36 1195.3 1943.36 1195.3 1941.27 1197.38 1941.27 1197.38 1936.85 1195.3 1936.85 1195.3 1934.77"/><rect class="cls-42" x="788.91" y="2280.12" width="398.93" height="41.99" rx="5.77"/><path class="cls-43" d="M795.58,2280.12h82.68v42H795.58a5.77,5.77,0,0,1-5.77-5.77h0v-30.45a5.77,5.77,0,0,1,5.77-5.77Z"/><rect class="cls-42" x="786.03" y="2282.7" width="398.93" height="41.99" rx="5.77"/><path class="cls-44" d="M791.29,2283.2H874v42H791.29a5.77,5.77,0,0,1-5.77-5.76h0V2289a5.78,5.78,0,0,1,5.77-5.77Z"/><rect class="cls-42" x="782.63" y="2285.47" width="398.93" height="41.99" rx="5.77"/><path class="cls-45" d="M787.45,2285.67h81.7v41.5h-81.7a5.71,5.71,0,0,1-5.71-5.7h0v-30.09A5.71,5.71,0,0,1,787.45,2285.67Z"/><path d="M836.16,2320.54l-7.88-10.18a11.13,11.13,0,1,0-1.52,1.18l7.88,10.17a1,1,0,0,0,1.52-1.17Zm-16.59-9.24a9.19,9.19,0,1,1,10.29-8A9.19,9.19,0,0,1,819.57,2311.3Z"/><text class="cls-49" transform="translate(876.48 2322.85) scale(1 0.89)">КАК УСЫПИТЬ ПК?</text><rect class="cls-14" x="954.57" y="1492.25" width="419.43" height="398.53"/><rect class="cls-15" x="946.57" y="1484.32" width="418.4" height="397.55"/><rect class="cls-50" x="946.57" y="1483.76" width="418.4" height="26.01"/><circle class="cls-6" cx="959.7" cy="1496.76" r="6.67"/><circle class="cls-7" cx="976.66" cy="1496.76" r="6.67"/><circle class="cls-8" cx="993.81" cy="1496.76" r="6.67"/><rect class="cls-4" x="1014.63" y="1497.51" width="101.15" height="1.26"/><rect class="cls-4" x="1219.1" y="1497.51" width="116.79" height="1.26"/><text class="cls-51" transform="translate(1125.93 1507.22) scale(1 0.89)">юзбфарм</text><polygon class="cls-5" points="1355.78 1491.17 1351.59 1491.17 1351.59 1493.15 1349.88 1493.15 1349.88 1491.17 1345.7 1491.17 1345.7 1493.15 1343.72 1493.15 1343.72 1497.33 1345.7 1497.33 1345.7 1499.31 1347.67 1499.31 1347.67 1501.29 1349.63 1501.29 1349.63 1503.23 1351.84 1503.23 1351.84 1501.29 1353.8 1501.29 1353.8 1499.31 1355.78 1499.31 1355.78 1497.33 1357.76 1497.33 1357.76 1493.15 1355.78 1493.15 1355.78 1491.17"/><rect class="cls-42" x="970.7" y="1818.42" width="378.01" height="39.79" rx="5.47"/><path class="cls-43" d="M977,1818.42h78.34v39.79H977a5.47,5.47,0,0,1-5.47-5.47h0v-28.86a5.47,5.47,0,0,1,5.47-5.46Z"/><rect class="cls-42" x="967.96" y="1820.86" width="378.01" height="39.79" rx="5.47"/><path class="cls-44" d="M973,1821.34h78.34v39.79H973a5.47,5.47,0,0,1-5.47-5.47h0v-28.85a5.47,5.47,0,0,1,5.47-5.47Z"/><rect class="cls-42" x="964.75" y="1823.49" width="378.01" height="39.79" rx="5.47"/><path class="cls-45" d="M969.31,1823.68h77.42V1863H969.31a5.4,5.4,0,0,1-5.4-5.4h0v-28.52A5.4,5.4,0,0,1,969.31,1823.68Z"/><path d="M1015.47,1856.72l-7.47-9.64a10.55,10.55,0,1,0-1.43,1.11l7.46,9.64a.91.91,0,0,0,1.44-1.11ZM999.75,1848a8.71,8.71,0,1,1,9.75-7.56A8.72,8.72,0,0,1,999.75,1848Z"/><text class="cls-52" transform="translate(1053.68 1858.9) scale(1 0.89)">КАК УБИТЬ ВИРУС?</text><rect class="cls-53" x="1029.16" y="1532.51" width="267.04" height="267.04" rx="17.3"/><rect class="cls-41" x="1024.8" y="1528.15" width="267.04" height="267.04" rx="17.3"/><rect class="cls-54" x="1120.37" y="1621.37" width="79.87" height="85.21"/><polygon class="cls-37" points="1203.8 1706.58 1202.91 1706.58 1202.02 1706.58 1200.24 1706.58 1200.24 1720.78 1202.02 1720.78 1202.91 1720.78 1203.8 1720.78 1204.69 1720.78 1205.58 1720.78 1205.58 1706.58 1204.69 1706.58 1203.8 1706.58"/><polygon class="cls-37" points="1090.18 1635.57 1089.3 1635.57 1088.4 1635.57 1086.63 1635.57 1086.63 1649.77 1088.4 1649.77 1089.3 1649.77 1090.18 1649.77 1091.08 1649.77 1091.97 1649.77 1091.97 1635.57 1091.08 1635.57 1090.18 1635.57"/><polygon class="cls-37" points="1075.98 1649.77 1075.09 1649.77 1074.2 1649.77 1072.42 1649.77 1072.42 1663.97 1074.2 1663.97 1075.09 1663.97 1075.98 1663.97 1076.87 1663.97 1077.77 1663.97 1077.77 1649.77 1076.87 1649.77 1075.98 1649.77"/><polygon class="cls-37" points="1104.39 1706.58 1103.5 1706.58 1102.61 1706.58 1100.83 1706.58 1100.83 1720.78 1102.61 1720.78 1103.5 1720.78 1104.39 1720.78 1105.28 1720.78 1106.16 1720.78 1106.16 1706.58 1105.28 1706.58 1104.39 1706.58"/><polygon class="cls-37" points="1090.18 1720.78 1089.3 1720.78 1088.4 1720.78 1086.63 1720.78 1086.63 1734.98 1088.4 1734.98 1089.3 1734.98 1090.18 1734.98 1091.08 1734.98 1091.97 1734.98 1091.97 1720.78 1091.08 1720.78 1090.18 1720.78"/><polygon class="cls-37" points="1075.98 1734.98 1075.09 1734.98 1074.2 1734.98 1072.42 1734.98 1072.42 1749.18 1074.2 1749.18 1075.09 1749.18 1075.98 1749.18 1076.87 1749.18 1077.77 1749.18 1077.77 1734.98 1076.87 1734.98 1075.98 1734.98"/><polygon class="cls-37" points="1218 1635.57 1217.11 1635.57 1216.22 1635.57 1214.44 1635.57 1214.44 1706.58 1216.22 1706.58 1217.11 1706.58 1218 1706.58 1218.89 1706.58 1219.78 1706.58 1219.78 1635.57 1218.89 1635.57 1218 1635.57"/><polygon class="cls-37" points="1117.7 1706.58 1118.59 1706.58 1119.48 1706.58 1120.37 1706.58 1120.37 1621.37 1119.48 1621.37 1118.59 1621.37 1117.7 1621.37 1116.81 1621.37 1115.03 1621.37 1115.03 1706.58 1116.81 1706.58 1117.7 1706.58"/><polygon class="cls-37" points="1231.31 1635.57 1232.2 1635.57 1233.09 1635.57 1233.98 1635.57 1233.98 1621.37 1233.09 1621.37 1232.2 1621.37 1231.31 1621.37 1230.42 1621.37 1228.64 1621.37 1228.64 1635.57 1230.42 1635.57 1231.31 1635.57"/><polygon class="cls-37" points="1245.51 1649.77 1246.4 1649.77 1247.29 1649.77 1248.18 1649.77 1248.18 1635.57 1247.29 1635.57 1246.4 1635.57 1245.51 1635.57 1244.62 1635.57 1242.84 1635.57 1242.84 1649.77 1244.62 1649.77 1245.51 1649.77"/><polygon class="cls-37" points="1117.7 1592.96 1118.59 1592.96 1119.48 1592.96 1120.37 1592.96 1120.37 1578.76 1119.48 1578.76 1118.59 1578.76 1117.7 1578.76 1116.81 1578.76 1115.03 1578.76 1115.03 1592.96 1116.81 1592.96 1117.7 1592.96"/><polygon class="cls-37" points="1230.42 1720.78 1231.31 1720.78 1232.2 1720.78 1233.09 1720.78 1233.98 1720.78 1233.98 1706.58 1233.09 1706.58 1232.2 1706.58 1231.31 1706.58 1230.42 1706.58 1228.64 1706.58 1228.64 1720.78 1230.42 1720.78"/><polygon class="cls-37" points="1244.62 1734.98 1245.51 1734.98 1246.4 1734.98 1247.29 1734.98 1248.18 1734.98 1248.18 1720.78 1247.29 1720.78 1246.4 1720.78 1245.51 1720.78 1244.62 1720.78 1242.84 1720.78 1242.84 1734.98 1244.62 1734.98"/><polygon class="cls-37" points="1258.82 1749.18 1259.71 1749.18 1260.6 1749.18 1261.49 1749.18 1262.38 1749.18 1262.38 1734.98 1261.49 1734.98 1260.6 1734.98 1259.71 1734.98 1258.82 1734.98 1257.04 1734.98 1257.04 1749.18 1258.82 1749.18"/><polygon class="cls-37" points="1258.82 1663.97 1259.71 1663.97 1260.6 1663.97 1261.49 1663.97 1262.38 1663.97 1262.38 1649.77 1261.49 1649.77 1260.6 1649.77 1259.71 1649.77 1258.82 1649.77 1257.04 1649.77 1257.04 1663.97 1258.82 1663.97"/><polygon class="cls-37" points="1202.02 1621.37 1202.91 1621.37 1203.8 1621.37 1204.69 1621.37 1205.58 1621.37 1205.58 1592.96 1204.69 1592.96 1203.8 1592.96 1202.91 1592.96 1202.02 1592.96 1200.24 1592.96 1200.24 1621.37 1202.02 1621.37"/><polygon class="cls-37" points="1131.01 1607.17 1131.9 1607.17 1132.79 1607.17 1133.68 1607.17 1134.57 1607.17 1134.57 1592.96 1133.68 1592.96 1132.79 1592.96 1131.9 1592.96 1131.01 1592.96 1129.23 1592.96 1129.23 1607.17 1131.01 1607.17"/><polygon class="cls-37" points="1230.42 1592.96 1231.31 1592.96 1232.2 1592.96 1233.09 1592.96 1233.98 1592.96 1233.98 1578.76 1233.09 1578.76 1232.2 1578.76 1231.31 1578.76 1230.42 1578.76 1228.64 1578.76 1228.64 1592.96 1230.42 1592.96"/><polygon class="cls-55" points="1120.37 1706.58 1119.48 1706.58 1118.59 1706.58 1117.7 1706.58 1116.81 1706.58 1115.03 1706.58 1115.03 1720.78 1116.81 1720.78 1117.7 1720.78 1118.59 1720.78 1119.48 1720.78 1120.37 1720.78 1200.24 1720.78 1200.24 1706.58 1120.37 1706.58"/><polygon class="cls-55" points="1091.97 1621.37 1091.08 1621.37 1090.18 1621.37 1089.3 1621.37 1088.4 1621.37 1086.63 1621.37 1086.63 1635.57 1088.4 1635.57 1089.3 1635.57 1090.18 1635.57 1091.08 1635.57 1091.97 1635.57 1100.83 1635.57 1100.83 1706.58 1102.61 1706.58 1103.5 1706.58 1104.39 1706.58 1105.28 1706.58 1106.16 1706.58 1115.03 1706.58 1115.03 1621.37 1091.97 1621.37"/><polygon class="cls-55" points="1077.77 1635.57 1076.87 1635.57 1075.98 1635.57 1075.09 1635.57 1074.2 1635.57 1072.42 1635.57 1072.42 1649.77 1074.2 1649.77 1075.09 1649.77 1075.98 1649.77 1076.87 1649.77 1077.77 1649.77 1086.63 1649.77 1086.63 1635.57 1077.77 1635.57"/><polygon class="cls-55" points="1063.56 1649.77 1062.67 1649.77 1061.78 1649.77 1060.89 1649.77 1060 1649.77 1058.22 1649.77 1058.22 1663.97 1060 1663.97 1060.89 1663.97 1061.78 1663.97 1062.67 1663.97 1063.56 1663.97 1072.42 1663.97 1072.42 1649.77 1063.56 1649.77"/><polygon class="cls-55" points="1091.97 1706.58 1091.08 1706.58 1090.18 1706.58 1089.3 1706.58 1088.4 1706.58 1086.63 1706.58 1086.63 1720.78 1088.4 1720.78 1089.3 1720.78 1090.18 1720.78 1091.08 1720.78 1091.97 1720.78 1100.83 1720.78 1100.83 1706.58 1091.97 1706.58"/><polygon class="cls-55" points="1077.77 1720.78 1076.87 1720.78 1075.98 1720.78 1075.09 1720.78 1074.2 1720.78 1072.42 1720.78 1072.42 1734.98 1074.2 1734.98 1075.09 1734.98 1075.98 1734.98 1076.87 1734.98 1077.77 1734.98 1086.63 1734.98 1086.63 1720.78 1077.77 1720.78"/><polygon class="cls-55" points="1063.56 1734.98 1062.67 1734.98 1061.78 1734.98 1060.89 1734.98 1060 1734.98 1058.22 1734.98 1058.22 1749.18 1060 1749.18 1060.89 1749.18 1061.78 1749.18 1062.67 1749.18 1063.56 1749.18 1072.42 1749.18 1072.42 1734.98 1063.56 1734.98"/><polygon class="cls-55" points="1218 1706.58 1217.11 1706.58 1216.22 1706.58 1214.44 1706.58 1214.44 1720.78 1216.22 1720.78 1217.11 1720.78 1218 1720.78 1218.89 1720.78 1219.78 1720.78 1228.64 1720.78 1228.64 1706.58 1219.78 1706.58 1218.89 1706.58 1218 1706.58"/><polygon class="cls-55" points="1232.2 1720.78 1231.31 1720.78 1230.42 1720.78 1228.64 1720.78 1228.64 1734.98 1230.42 1734.98 1231.31 1734.98 1232.2 1734.98 1233.09 1734.98 1233.98 1734.98 1242.84 1734.98 1242.84 1720.78 1233.98 1720.78 1233.09 1720.78 1232.2 1720.78"/><polygon class="cls-55" points="1246.4 1734.98 1245.51 1734.98 1244.62 1734.98 1242.84 1734.98 1242.84 1749.18 1244.62 1749.18 1245.51 1749.18 1246.4 1749.18 1247.29 1749.18 1248.18 1749.18 1257.04 1749.18 1257.04 1734.98 1248.18 1734.98 1247.29 1734.98 1246.4 1734.98"/><polygon class="cls-55" points="1205.58 1621.37 1204.69 1621.37 1203.8 1621.37 1202.91 1621.37 1202.02 1621.37 1200.24 1621.37 1200.24 1706.58 1202.02 1706.58 1202.91 1706.58 1203.8 1706.58 1204.69 1706.58 1205.58 1706.58 1214.44 1706.58 1214.44 1635.57 1216.22 1635.57 1217.11 1635.57 1218 1635.57 1218.89 1635.57 1219.78 1635.57 1228.64 1635.57 1228.64 1621.37 1205.58 1621.37"/><polygon class="cls-55" points="1233.98 1635.57 1233.09 1635.57 1232.2 1635.57 1231.31 1635.57 1230.42 1635.57 1228.64 1635.57 1228.64 1649.77 1230.42 1649.77 1231.31 1649.77 1232.2 1649.77 1233.09 1649.77 1233.98 1649.77 1242.84 1649.77 1242.84 1635.57 1233.98 1635.57"/><polygon class="cls-55" points="1244.62 1663.97 1245.51 1663.97 1246.4 1663.97 1247.29 1663.97 1248.18 1663.97 1257.04 1663.97 1257.04 1649.77 1248.18 1649.77 1247.29 1649.77 1246.4 1649.77 1245.51 1649.77 1244.62 1649.77 1242.84 1649.77 1242.84 1663.97 1244.62 1663.97"/><polygon class="cls-55" points="1091.97 1578.76 1091.08 1578.76 1090.18 1578.76 1089.3 1578.76 1088.4 1578.76 1086.63 1578.76 1086.63 1592.96 1088.4 1592.96 1089.3 1592.96 1090.18 1592.96 1091.08 1592.96 1091.97 1592.96 1115.03 1592.96 1115.03 1578.76 1091.97 1578.76"/><polygon class="cls-55" points="1117.7 1621.37 1118.59 1621.37 1119.48 1621.37 1120.37 1621.37 1200.24 1621.37 1200.24 1592.96 1191.38 1592.96 1190.48 1592.96 1189.6 1592.96 1188.7 1592.96 1187.82 1592.96 1186.04 1592.96 1186.04 1607.17 1134.57 1607.17 1133.68 1607.17 1132.79 1607.17 1131.9 1607.17 1131.01 1607.17 1129.23 1607.17 1129.23 1592.96 1120.37 1592.96 1119.48 1592.96 1118.59 1592.96 1117.7 1592.96 1116.81 1592.96 1115.03 1592.96 1115.03 1621.37 1116.81 1621.37 1117.7 1621.37"/><polygon class="cls-55" points="1202.91 1592.96 1203.8 1592.96 1204.69 1592.96 1205.58 1592.96 1228.64 1592.96 1228.64 1578.76 1205.58 1578.76 1204.69 1578.76 1203.8 1578.76 1202.91 1578.76 1202.02 1578.76 1200.24 1578.76 1200.24 1592.96 1202.02 1592.96 1202.91 1592.96"/><rect class="cls-56" x="851.96" y="1978.8" width="277.38" height="277.38" rx="31.15"/><rect class="cls-41" x="847.42" y="1974.27" width="277.38" height="277.38" rx="31.15"/><path class="cls-37" d="M1064.91,2039.24v-11.36h-11.36v-11.36H928.4v11.36H917v11.36H905.68v90.86H917v11.36H928.4v44.77h11.36v12.21h11.33v11.36h81v-11.36h10.07v-11.35h11.36v-45.45h11.36v-11.35h11.36v-91Zm-136.5,57v-22.72h11.36v-11.35h22.71v11.35h11.36v22.72H962.48v11.36H939.77v-11.36Zm11.36,79.51V2153h11.32v22.72Zm34.07-.21H962.48V2153h11.36Zm22.93,0H985.39V2153h11.36Zm11.36-45.22h-34.3V2119h11.36V2107.6h11.36V2119h11.57Zm11.36,22.71v22.51h-11.36V2153Zm22.71,22.72h-11.36V2153h11.36Zm11.36-90.87h0v11.36H1042.2v11.36h-22.72v-11.36h-11.36v-22.72h11.36v-11.35h22.71v11.35h11.36Z"/><path class="cls-57" d="M1060.47,2038.34V2027h-11.36v-11.36H924V2027H912.6v11.35H901.25v90.87H912.6v11.36H924v44.79h11.35v12.22h11.36v11.36h81v-11.36h10.07v-11.35h11.36V2140.8h11.36v-11.36h11.35v-91.1Zm-136.5,57v-22.71h11.34v-11.36H958v11.36h11.35v22.71H958v11.36H935.31v-11.36Zm11.34,79.51v-22.72h11.36v22.72Zm34.07-.22H958v-22.5h11.35Zm22.94,0H981v-22.5h11.36Zm11.36-45.21h-34.3v-11.36h11.36v-11.36H992.1v11.36h11.57Zm11.35,22.71v22.5h-11.35v-22.5Zm22.72,22.72h-11.36v-22.72h11.36Zm11.36-90.84h0v11.36h-11.35v11.36H1015v-11.36h-11.36v-22.74H1015v-11.36h22.72v11.36h11.35Z"/><rect class="cls-57" x="1090.32" y="1138.46" width="218.29" height="234.25"/><rect class="cls-58" x="1080.7" y="1121.27" width="218.29" height="241.96"/><image width="111" height="111" transform="translate(1090.44 1130.79) scale(1.8)" xlink:href="Y:%5Chse%5Ckkomp%5C%D1%88%D1%80%D0%B5%D1%84%D1%82%5Cqr%5Cbarcode%20(2).png"/><path d="M1099.67,1344.85v-8h3.86v13.94h-3.71v-2.53h-.14a4.21,4.21,0,0,1-1.57,2,5.14,5.14,0,0,1-5.12.11,4.41,4.41,0,0,1-1.66-1.81,6.22,6.22,0,0,1-.6-2.8v-8.88h3.86V1345a2.83,2.83,0,0,0,.67,2,2.27,2.27,0,0,0,1.75.71,2.66,2.66,0,0,0,1.3-.32,2.4,2.4,0,0,0,1-1A3,3,0,0,0,1099.67,1344.85Z"/><path d="M1118.21,1340.83l-3.54.21a1.89,1.89,0,0,0-.39-.82,2.24,2.24,0,0,0-.78-.59,2.73,2.73,0,0,0-1.16-.22,2.84,2.84,0,0,0-1.51.38,1.13,1.13,0,0,0-.62,1,1.06,1.06,0,0,0,.4.84,3.18,3.18,0,0,0,1.37.56l2.52.5a6.2,6.2,0,0,1,3,1.35,3.14,3.14,0,0,1,1,2.43,3.83,3.83,0,0,1-.8,2.4,5.24,5.24,0,0,1-2.2,1.61,8.24,8.24,0,0,1-3.21.58,7.43,7.43,0,0,1-4.4-1.16,4.48,4.48,0,0,1-1.92-3.15l3.8-.2a2,2,0,0,0,.84,1.29,3.51,3.51,0,0,0,3.33,0,1.17,1.17,0,0,0,.63-1,1.07,1.07,0,0,0-.44-.87,3.33,3.33,0,0,0-1.35-.52l-2.41-.48a5.73,5.73,0,0,1-3-1.42,3.49,3.49,0,0,1-1-2.56,3.73,3.73,0,0,1,.73-2.32,4.73,4.73,0,0,1,2.06-1.49,8.29,8.29,0,0,1,3.12-.53,6.85,6.85,0,0,1,4.16,1.12A4.3,4.3,0,0,1,1118.21,1340.83Z"/><path d="M1121,1350.79V1332.2h3.87v7h.12a5,5,0,0,1,.74-1.15,3.88,3.88,0,0,1,1.27-1,4.34,4.34,0,0,1,2-.39,5.27,5.27,0,0,1,2.82.79,5.6,5.6,0,0,1,2.06,2.39,10.7,10.7,0,0,1,0,7.92,5.57,5.57,0,0,1-2,2.42,5.24,5.24,0,0,1-2.88.83,4.42,4.42,0,0,1-1.91-.38,3.77,3.77,0,0,1-1.28-.94,4.53,4.53,0,0,1-.76-1.14h-.17v2.23Zm3.79-7a6.22,6.22,0,0,0,.34,2.17,3.22,3.22,0,0,0,1,1.44,2.52,2.52,0,0,0,1.59.51,2.48,2.48,0,0,0,1.6-.52,3.29,3.29,0,0,0,1-1.45,6.18,6.18,0,0,0,.34-2.15,6.25,6.25,0,0,0-.33-2.12,3.31,3.31,0,0,0-1-1.44,2.81,2.81,0,0,0-3.2,0,3.13,3.13,0,0,0-1,1.42A6.12,6.12,0,0,0,1124.83,1343.82Z"/><path d="M1145.89,1341.62v3.07h-8.48v-3.07Z"/><path d="M1149.18,1356v-19.17H1153v2.34h.18a5,5,0,0,1,.74-1.15,3.88,3.88,0,0,1,1.27-1,4.34,4.34,0,0,1,2-.39,5.21,5.21,0,0,1,2.81.79,5.54,5.54,0,0,1,2.06,2.39,9,9,0,0,1,.78,4,9.25,9.25,0,0,1-.75,3.93,5.52,5.52,0,0,1-2,2.42,5.18,5.18,0,0,1-2.87.83,4.42,4.42,0,0,1-1.91-.38,3.77,3.77,0,0,1-1.28-.94,4.53,4.53,0,0,1-.76-1.14h-.12V1356Zm3.79-12.2a6.22,6.22,0,0,0,.34,2.17,3.14,3.14,0,0,0,1,1.44,2.52,2.52,0,0,0,1.59.51,2.43,2.43,0,0,0,1.59-.52,3.23,3.23,0,0,0,1-1.45,6.18,6.18,0,0,0,.34-2.15,6,6,0,0,0-.34-2.12,3.16,3.16,0,0,0-1-1.44,2.79,2.79,0,0,0-3.19,0,3.13,3.13,0,0,0-1,1.42A6.12,6.12,0,0,0,1153,1343.82Z"/><path d="M1169.21,1342.73v8.06h-3.87V1332.2h3.76v7.11h.16a4,4,0,0,1,1.53-1.94,4.63,4.63,0,0,1,2.64-.7,5,5,0,0,1,2.54.63,4.27,4.27,0,0,1,1.68,1.81,6,6,0,0,1,.6,2.8v8.88h-3.87v-8.19a2.79,2.79,0,0,0-.65-2,2.36,2.36,0,0,0-1.83-.72,2.77,2.77,0,0,0-1.4.34,2.38,2.38,0,0,0-.94,1A3.33,3.33,0,0,0,1169.21,1342.73Z"/><path d="M1185.27,1351.05a5.65,5.65,0,0,1-2.38-.47,3.76,3.76,0,0,1-1.64-1.38,4.06,4.06,0,0,1-.61-2.3,4,4,0,0,1,.43-2,3.49,3.49,0,0,1,1.16-1.28,5.59,5.59,0,0,1,1.67-.72,13.62,13.62,0,0,1,2-.35c.81-.08,1.46-.16,2-.24a2.74,2.74,0,0,0,1.08-.34.75.75,0,0,0,.33-.67v0a1.69,1.69,0,0,0-.54-1.34,2.27,2.27,0,0,0-1.52-.47,2.68,2.68,0,0,0-1.66.46,2.12,2.12,0,0,0-.82,1.15l-3.58-.29a4.88,4.88,0,0,1,1.07-2.2,5.28,5.28,0,0,1,2.07-1.44,8,8,0,0,1,2.93-.5,9,9,0,0,1,2.23.27,5.75,5.75,0,0,1,1.9.85,4.09,4.09,0,0,1,1.31,1.46,4.48,4.48,0,0,1,.48,2.14v9.4h-3.67v-1.93h-.1a4.12,4.12,0,0,1-.9,1.14,4.21,4.21,0,0,1-1.36.78A5.58,5.58,0,0,1,1185.27,1351.05Zm1.11-2.67a3.13,3.13,0,0,0,1.5-.34,2.56,2.56,0,0,0,1-.92,2.33,2.33,0,0,0,.37-1.31v-1.48a1.75,1.75,0,0,1-.49.21c-.21.06-.45.12-.71.17l-.78.14-.7.1a5.13,5.13,0,0,0-1.19.32,1.87,1.87,0,0,0-.79.59,1.43,1.43,0,0,0-.28.91,1.38,1.38,0,0,0,.57,1.2A2.43,2.43,0,0,0,1186.38,1348.38Z"/><path d="M1196.12,1350.79v-13.94h3.75v2.43h.15a3.58,3.58,0,0,1,1.28-2,3.3,3.3,0,0,1,2.06-.67,4.64,4.64,0,0,1,.63,0,3.14,3.14,0,0,1,.59.1v3.43a4.08,4.08,0,0,0-.75-.15,7.22,7.22,0,0,0-.88-.06,3,3,0,0,0-1.52.37,2.67,2.67,0,0,0-1.06,1,2.93,2.93,0,0,0-.38,1.5v7.89Z"/><path d="M1206.57,1350.79v-13.94h3.68v2.46h.16a3.89,3.89,0,0,1,1.46-1.93,4.08,4.08,0,0,1,2.43-.71,4.16,4.16,0,0,1,2.44.71,3.4,3.4,0,0,1,1.34,1.93h.15a3.69,3.69,0,0,1,1.55-1.92,4.78,4.78,0,0,1,2.65-.72,4.23,4.23,0,0,1,3.17,1.24,4.79,4.79,0,0,1,1.22,3.51v9.37H1223v-8.61a2.26,2.26,0,0,0-.61-1.74,2.16,2.16,0,0,0-1.54-.59,2.11,2.11,0,0,0-1.65.67,2.58,2.58,0,0,0-.59,1.76v8.51h-3.75v-8.69a2.27,2.27,0,0,0-.58-1.64,2.06,2.06,0,0,0-1.54-.61,2.12,2.12,0,0,0-1.16.33,2.25,2.25,0,0,0-.81.89,2.92,2.92,0,0,0-.3,1.35v8.37Z"/><path d="M1232.13,1351a2.16,2.16,0,0,1-1.54-3.7,2.17,2.17,0,0,1,3.06,0,2.05,2.05,0,0,1,.66,1.53,2,2,0,0,1-.31,1.09,2.3,2.3,0,0,1-.79.79A2,2,0,0,1,1232.13,1351Z"/><path d="M1243.77,1351.06a7.07,7.07,0,0,1-3.68-.91,6.1,6.1,0,0,1-2.36-2.54,8.94,8.94,0,0,1,0-7.5,6.15,6.15,0,0,1,2.37-2.53,7,7,0,0,1,3.64-.91,7.32,7.32,0,0,1,3.2.66,5.39,5.39,0,0,1,2.17,1.86,5.56,5.56,0,0,1,.88,2.82h-3.65a2.84,2.84,0,0,0-.81-1.69,2.39,2.39,0,0,0-1.72-.64,2.57,2.57,0,0,0-1.57.49,3.14,3.14,0,0,0-1,1.41,6,6,0,0,0-.37,2.24,6.1,6.1,0,0,0,.37,2.27,3,3,0,0,0,1,1.42,2.76,2.76,0,0,0,2.76.22,2.38,2.38,0,0,0,.88-.79,3.06,3.06,0,0,0,.46-1.26H1250a5.71,5.71,0,0,1-.87,2.81,5.24,5.24,0,0,1-2.14,1.89A7.15,7.15,0,0,1,1243.77,1351.06Z"/><path d="M1258.78,1351.06a7.08,7.08,0,0,1-3.65-.9,6.09,6.09,0,0,1-2.38-2.52,9,9,0,0,1,0-7.55,6.09,6.09,0,0,1,2.38-2.52,7.85,7.85,0,0,1,7.3,0,6.09,6.09,0,0,1,2.38,2.52,9,9,0,0,1,0,7.55,6.09,6.09,0,0,1-2.38,2.52A7.08,7.08,0,0,1,1258.78,1351.06Zm0-3a2.39,2.39,0,0,0,1.6-.55,3.42,3.42,0,0,0,1-1.5,7.3,7.3,0,0,0,0-4.34,3.4,3.4,0,0,0-1-1.51,2.34,2.34,0,0,0-1.6-.55,2.44,2.44,0,0,0-1.63.55,3.33,3.33,0,0,0-1,1.51,7.3,7.3,0,0,0,0,4.34,3.35,3.35,0,0,0,1,1.5A2.49,2.49,0,0,0,1258.8,1348.07Z"/><path d="M1268.16,1350.79v-13.94h3.69v2.46h.16a3.82,3.82,0,0,1,1.45-1.93,4.1,4.1,0,0,1,2.43-.71,4.19,4.19,0,0,1,2.45.71,3.45,3.45,0,0,1,1.34,1.93h.14a3.74,3.74,0,0,1,1.55-1.92,4.81,4.81,0,0,1,2.66-.72,4.25,4.25,0,0,1,3.17,1.24,4.79,4.79,0,0,1,1.22,3.51v9.37h-3.86v-8.61a2.23,2.23,0,0,0-.62-1.74,2.14,2.14,0,0,0-1.54-.59,2.09,2.09,0,0,0-1.64.67,2.53,2.53,0,0,0-.59,1.76v8.51h-3.75v-8.69a2.27,2.27,0,0,0-.58-1.64,2.07,2.07,0,0,0-1.54-.61,2.1,2.1,0,0,0-1.16.33,2.25,2.25,0,0,0-.81.89,2.92,2.92,0,0,0-.3,1.35v8.37Z"/><rect class="cls-59" x="39.69" y="1166.36" width="582.96" height="250.5"/><rect class="cls-60" x="964.25" y="555.92" width="422.81" height="489.46"/><rect class="cls-17" x="981.54" y="595.35" width="388.6" height="432.32"/><rect class="cls-15" x="981.54" y="575.14" width="388.6" height="1.5"/><path class="cls-61" d="M1081.89,620.93,1064,640.27c-4,4.34-6.46,12.23-6.46,20.74V962c0,8.52,2.46,16.41,6.46,20.75l18.63,20.19a9.25,9.25,0,0,0,6.72,3.36h158.47a9.23,9.23,0,0,0,6.71-3.36l18.33-19.87c4-4.34,6.46-12.22,6.46-20.74V661.22c0-8.52-2.45-16.4-6.46-20.74L1254,620a9.24,9.24,0,0,0-6.75-3.36l-158.73.88A9.3,9.3,0,0,0,1081.89,620.93Z"/><path class="cls-61" d="M1081.45,620.93l-17.86,19.34c-4,4.34-6.46,12.23-6.46,20.74V962c0,8.52,2.46,16.41,6.46,20.75l18.64,20.19a9.23,9.23,0,0,0,6.71,3.36h158.47a9.23,9.23,0,0,0,6.71-3.36l18.33-19.87c4-4.34,6.47-12.22,6.47-20.74V661.22c0-8.52-2.46-16.4-6.47-20.74L1253.6,620a9.26,9.26,0,0,0-6.76-3.36l-158.72.88A9.28,9.28,0,0,0,1081.45,620.93Z"/><path class="cls-61" d="M1081,620.93l-17.85,19.34c-4,4.34-6.46,12.23-6.46,20.74V962c0,8.52,2.45,16.41,6.46,20.75l18.63,20.19a9.23,9.23,0,0,0,6.71,3.36H1247a9.27,9.27,0,0,0,6.72-3.36L1272,983.1c4-4.34,6.46-12.22,6.46-20.74V661.22c0-8.52-2.46-16.4-6.46-20.74L1253.15,620a9.24,9.24,0,0,0-6.75-3.36l-158.73.88A9.28,9.28,0,0,0,1081,620.93Z"/><path class="cls-61" d="M1080.55,620.93l-17.85,19.34c-4,4.34-6.46,12.23-6.46,20.74V962c0,8.52,2.46,16.41,6.46,20.75l18.64,20.19a9.23,9.23,0,0,0,6.71,3.36h158.47a9.23,9.23,0,0,0,6.71-3.36l18.33-19.87c4-4.34,6.46-12.22,6.46-20.74V661.22c0-8.52-2.45-16.4-6.46-20.74L1252.7,620a9.22,9.22,0,0,0-6.75-3.36l-158.72.88A9.3,9.3,0,0,0,1080.55,620.93Z"/><path class="cls-61" d="M1080.11,620.93l-17.85,19.34c-4,4.34-6.46,12.23-6.46,20.74V962c0,8.52,2.45,16.41,6.46,20.75l18.63,20.19a9.23,9.23,0,0,0,6.71,3.36h158.47a9.23,9.23,0,0,0,6.71-3.36l18.34-19.87c4-4.34,6.46-12.22,6.46-20.74V661.22c0-8.52-2.46-16.4-6.46-20.74L1252.26,620a9.26,9.26,0,0,0-6.76-3.36l-158.72.88A9.28,9.28,0,0,0,1080.11,620.93Z"/><path class="cls-61" d="M1083.68,620.93l-17.85,19.34c-4,4.34-6.46,12.23-6.46,20.74V962c0,8.52,2.45,16.41,6.46,20.75l18.63,20.19a9.23,9.23,0,0,0,6.71,3.36h158.47a9.23,9.23,0,0,0,6.71-3.36l18.34-19.87c4-4.34,6.46-12.22,6.46-20.74V661.22c0-8.52-2.46-16.4-6.46-20.74L1255.83,620a9.26,9.26,0,0,0-6.76-3.36l-158.72.88A9.28,9.28,0,0,0,1083.68,620.93Z"/><path class="cls-61" d="M1083.23,620.93l-17.85,19.34c-4,4.34-6.46,12.23-6.46,20.74V962c0,8.52,2.46,16.41,6.46,20.75L1084,1003a9.23,9.23,0,0,0,6.71,3.36h158.47a9.25,9.25,0,0,0,6.72-3.36l18.33-19.87c4-4.34,6.46-12.22,6.46-20.74V661.22c0-8.52-2.46-16.4-6.46-20.74L1255.38,620a9.24,9.24,0,0,0-6.75-3.36l-158.73.88A9.28,9.28,0,0,0,1083.23,620.93Z"/><path class="cls-61" d="M1082.78,620.93l-17.85,19.34c-4,4.34-6.46,12.23-6.46,20.74V962c0,8.52,2.46,16.41,6.46,20.75l18.64,20.19a9.23,9.23,0,0,0,6.71,3.36h158.47a9.23,9.23,0,0,0,6.71-3.36l18.33-19.87c4-4.34,6.46-12.22,6.46-20.74V661.22c0-8.52-2.45-16.4-6.46-20.74L1254.93,620a9.22,9.22,0,0,0-6.75-3.36l-158.72.88A9.32,9.32,0,0,0,1082.78,620.93Z"/><path class="cls-61" d="M1082.34,620.93l-17.85,19.34c-4,4.34-6.46,12.23-6.46,20.74V962c0,8.52,2.45,16.41,6.46,20.75l18.63,20.19a9.23,9.23,0,0,0,6.71,3.36H1248.3A9.23,9.23,0,0,0,1255,1003l18.34-19.87c4-4.34,6.46-12.22,6.46-20.74V661.22c0-8.52-2.46-16.4-6.46-20.74L1254.49,620a9.26,9.26,0,0,0-6.75-3.36l-158.73.88A9.28,9.28,0,0,0,1082.34,620.93Z"/><path class="cls-61" d="M1081.89,620.93,1064,640.27c-4,4.34-6.46,12.23-6.46,20.74V962c0,8.52,2.46,16.41,6.46,20.75l18.63,20.19a9.25,9.25,0,0,0,6.72,3.36h158.47a9.23,9.23,0,0,0,6.71-3.36l18.33-19.87c4-4.34,6.46-12.22,6.46-20.74V661.22c0-8.52-2.45-16.4-6.46-20.74L1254,620a9.24,9.24,0,0,0-6.75-3.36l-158.73.88A9.3,9.3,0,0,0,1081.89,620.93Z"/><path class="cls-61" d="M1081.45,620.93l-17.86,19.34c-4,4.34-6.46,12.23-6.46,20.74V962c0,8.52,2.46,16.41,6.46,20.75l18.64,20.19a9.23,9.23,0,0,0,6.71,3.36h158.47a9.23,9.23,0,0,0,6.71-3.36l18.33-19.87c4-4.34,6.47-12.22,6.47-20.74V661.22c0-8.52-2.46-16.4-6.47-20.74L1253.6,620a9.26,9.26,0,0,0-6.76-3.36l-158.72.88A9.28,9.28,0,0,0,1081.45,620.93Z"/><path class="cls-61" d="M1081,620.93l-17.85,19.34c-4,4.34-6.46,12.23-6.46,20.74V962c0,8.52,2.45,16.41,6.46,20.75l18.63,20.19a9.23,9.23,0,0,0,6.71,3.36H1247a9.27,9.27,0,0,0,6.72-3.36L1272,983.1c4-4.34,6.46-12.22,6.46-20.74V661.22c0-8.52-2.46-16.4-6.46-20.74L1253.15,620a9.24,9.24,0,0,0-6.75-3.36l-158.73.88A9.28,9.28,0,0,0,1081,620.93Z"/><path class="cls-61" d="M1080.55,620.93l-17.85,19.34c-4,4.34-6.46,12.23-6.46,20.74V962c0,8.52,2.46,16.41,6.46,20.75l18.64,20.19a9.23,9.23,0,0,0,6.71,3.36h158.47a9.23,9.23,0,0,0,6.71-3.36l18.33-19.87c4-4.34,6.46-12.22,6.46-20.74V661.22c0-8.52-2.45-16.4-6.46-20.74L1252.7,620a9.22,9.22,0,0,0-6.75-3.36l-158.72.88A9.3,9.3,0,0,0,1080.55,620.93Z"/><path class="cls-61" d="M1080.11,620.93l-17.85,19.34c-4,4.34-6.46,12.23-6.46,20.74V962c0,8.52,2.45,16.41,6.46,20.75l18.63,20.19a9.23,9.23,0,0,0,6.71,3.36h158.47a9.23,9.23,0,0,0,6.71-3.36l18.34-19.87c4-4.34,6.46-12.22,6.46-20.74V661.22c0-8.52-2.46-16.4-6.46-20.74L1252.26,620a9.26,9.26,0,0,0-6.76-3.36l-158.72.88A9.28,9.28,0,0,0,1080.11,620.93Z"/><path class="cls-61" d="M1079.66,620.93l-17.85,19.34c-4,4.34-6.46,12.23-6.46,20.74V962c0,8.52,2.46,16.41,6.46,20.75l18.63,20.19a9.23,9.23,0,0,0,6.71,3.36h158.47a9.25,9.25,0,0,0,6.72-3.36l18.33-19.87c4-4.34,6.46-12.22,6.46-20.74V661.22c0-8.52-2.46-16.4-6.46-20.74L1251.81,620a9.24,9.24,0,0,0-6.75-3.36l-158.73.88A9.28,9.28,0,0,0,1079.66,620.93Z"/><path class="cls-61" d="M1063.15,620.93l-17.85,19.34c-4,4.34-6.46,12.23-6.46,20.74V962c0,8.52,2.45,16.41,6.46,20.75l18.63,20.19a9.23,9.23,0,0,0,6.71,3.36h158.47a9.25,9.25,0,0,0,6.72-3.36l18.33-19.87c4-4.34,6.46-12.22,6.46-20.74V661.22c0-8.52-2.46-16.4-6.46-20.74L1235.3,620a9.24,9.24,0,0,0-6.75-3.36l-158.73.88A9.28,9.28,0,0,0,1063.15,620.93Z"/><path class="cls-61" d="M1062.7,620.93l-17.85,19.34c-4,4.34-6.46,12.23-6.46,20.74V962c0,8.52,2.46,16.41,6.46,20.75l18.64,20.19a9.23,9.23,0,0,0,6.71,3.36h158.47a9.23,9.23,0,0,0,6.71-3.36l18.33-19.87c4-4.34,6.46-12.22,6.46-20.74V661.22c0-8.52-2.45-16.4-6.46-20.74L1234.85,620a9.22,9.22,0,0,0-6.75-3.36l-158.72.88A9.3,9.3,0,0,0,1062.7,620.93Z"/><path class="cls-61" d="M1062.26,620.93l-17.85,19.34c-4,4.34-6.46,12.23-6.46,20.74V962c0,8.52,2.45,16.41,6.46,20.75L1063,1003a9.23,9.23,0,0,0,6.71,3.36h158.47a9.23,9.23,0,0,0,6.71-3.36l18.34-19.87c4-4.34,6.46-12.22,6.46-20.74V661.22c0-8.52-2.46-16.4-6.46-20.74L1234.41,620a9.26,9.26,0,0,0-6.76-3.36l-158.72.88A9.28,9.28,0,0,0,1062.26,620.93Z"/><path class="cls-61" d="M1061.81,620.93,1044,640.27c-4,4.34-6.46,12.23-6.46,20.74V962c0,8.52,2.46,16.41,6.46,20.75l18.63,20.19a9.25,9.25,0,0,0,6.72,3.36h158.46a9.25,9.25,0,0,0,6.72-3.36l18.33-19.87c4-4.34,6.46-12.22,6.46-20.74V661.22c0-8.52-2.46-16.4-6.46-20.74L1234,620a9.24,9.24,0,0,0-6.75-3.36l-158.73.88A9.3,9.3,0,0,0,1061.81,620.93Z"/><path class="cls-61" d="M1061.37,620.93l-17.86,19.34c-4,4.34-6.46,12.23-6.46,20.74V962c0,8.52,2.46,16.41,6.46,20.75l18.64,20.19a9.23,9.23,0,0,0,6.71,3.36h158.47A9.23,9.23,0,0,0,1234,1003l18.33-19.87c4-4.34,6.46-12.22,6.46-20.74V661.22c0-8.52-2.45-16.4-6.46-20.74L1233.51,620a9.22,9.22,0,0,0-6.75-3.36l-158.72.88A9.28,9.28,0,0,0,1061.37,620.93Z"/><path class="cls-61" d="M1060.92,620.93l-17.85,19.34c-4,4.34-6.46,12.23-6.46,20.74V962c0,8.52,2.45,16.41,6.46,20.75L1061.7,1003a9.23,9.23,0,0,0,6.71,3.36h158.47a9.23,9.23,0,0,0,6.71-3.36l18.34-19.87c4-4.34,6.46-12.22,6.46-20.74V661.22c0-8.52-2.46-16.4-6.46-20.74L1233.07,620a9.26,9.26,0,0,0-6.75-3.36l-158.73.88A9.28,9.28,0,0,0,1060.92,620.93Z"/><path class="cls-61" d="M1060.47,620.93l-17.85,19.34c-4,4.34-6.46,12.23-6.46,20.74V962c0,8.52,2.46,16.41,6.46,20.75l18.63,20.19a9.25,9.25,0,0,0,6.72,3.36h158.47a9.23,9.23,0,0,0,6.71-3.36l18.33-19.87c4-4.34,6.46-12.22,6.46-20.74V661.22c0-8.52-2.45-16.4-6.46-20.74L1232.62,620a9.22,9.22,0,0,0-6.75-3.36l-158.73.88A9.3,9.3,0,0,0,1060.47,620.93Z"/><path class="cls-61" d="M1060,620.93l-17.85,19.34c-4,4.34-6.47,12.23-6.47,20.74V962c0,8.52,2.46,16.41,6.47,20.75l18.63,20.19a9.23,9.23,0,0,0,6.71,3.36H1226a9.23,9.23,0,0,0,6.71-3.36L1251,983.1c4-4.34,6.46-12.22,6.46-20.74V661.22c0-8.52-2.46-16.4-6.46-20.74L1232.18,620a9.26,9.26,0,0,0-6.76-3.36l-158.72.88A9.28,9.28,0,0,0,1060,620.93Z"/><path class="cls-61" d="M1059.58,620.93l-17.85,19.34c-4,4.34-6.46,12.23-6.46,20.74V962c0,8.52,2.45,16.41,6.46,20.75l18.63,20.19a9.23,9.23,0,0,0,6.71,3.36h158.47a9.25,9.25,0,0,0,6.72-3.36l18.33-19.87c4-4.34,6.46-12.22,6.46-20.74V661.22c0-8.52-2.46-16.4-6.46-20.74L1231.73,620a9.24,9.24,0,0,0-6.75-3.36l-158.73.88A9.28,9.28,0,0,0,1059.58,620.93Z"/><path class="cls-61" d="M1059.13,620.93l-17.85,19.34c-4,4.34-6.46,12.23-6.46,20.74V962c0,8.52,2.46,16.41,6.46,20.75l18.64,20.19a9.23,9.23,0,0,0,6.71,3.36H1225.1a9.23,9.23,0,0,0,6.71-3.36l18.33-19.87c4-4.34,6.46-12.22,6.46-20.74V661.22c0-8.52-2.45-16.4-6.46-20.74L1231.28,620a9.22,9.22,0,0,0-6.75-3.36l-158.72.88A9.3,9.3,0,0,0,1059.13,620.93Z"/><path class="cls-61" d="M1058.69,620.93l-17.85,19.34c-4,4.34-6.46,12.23-6.46,20.74V962c0,8.52,2.45,16.41,6.46,20.75l18.63,20.19a9.23,9.23,0,0,0,6.71,3.36h158.47a9.23,9.23,0,0,0,6.71-3.36l18.34-19.87c4-4.34,6.46-12.22,6.46-20.74V661.22c0-8.52-2.46-16.4-6.46-20.74L1230.84,620a9.26,9.26,0,0,0-6.75-3.36l-158.73.88A9.28,9.28,0,0,0,1058.69,620.93Z"/><path class="cls-61" d="M1065.38,620.93l-17.85,19.34c-4,4.34-6.46,12.23-6.46,20.74V962c0,8.52,2.46,16.41,6.46,20.75l18.63,20.19a9.25,9.25,0,0,0,6.71,3.36h158.47a9.25,9.25,0,0,0,6.72-3.36l18.33-19.87c4-4.34,6.46-12.22,6.46-20.74V661.22c0-8.52-2.46-16.4-6.46-20.74L1237.53,620a9.24,9.24,0,0,0-6.75-3.36l-158.73.88A9.3,9.3,0,0,0,1065.38,620.93Z"/><path class="cls-61" d="M1080.11,620.93l-17.85,19.34c-4,4.34-6.46,12.23-6.46,20.74V962c0,8.52,2.45,16.41,6.46,20.75l18.63,20.19a9.23,9.23,0,0,0,6.71,3.36h158.47a9.23,9.23,0,0,0,6.71-3.36l18.34-19.87c4-4.34,6.46-12.22,6.46-20.74V661.22c0-8.52-2.46-16.4-6.46-20.74L1252.26,620a9.26,9.26,0,0,0-6.76-3.36l-158.72.88A9.28,9.28,0,0,0,1080.11,620.93Z"/><path class="cls-61" d="M1079.21,620.93l-17.85,19.34c-4,4.34-6.46,12.23-6.46,20.74V962c0,8.52,2.46,16.41,6.46,20.75L1080,1003a9.23,9.23,0,0,0,6.71,3.36h158.47a9.23,9.23,0,0,0,6.71-3.36l18.33-19.87c4-4.34,6.46-12.22,6.46-20.74V661.22c0-8.52-2.45-16.4-6.46-20.74L1251.36,620a9.22,9.22,0,0,0-6.75-3.36l-158.72.88A9.32,9.32,0,0,0,1079.21,620.93Z"/><path class="cls-61" d="M1097.51,620.93l-17.85,19.34c-4,4.34-6.46,12.23-6.46,20.74V962c0,8.52,2.45,16.41,6.46,20.75l18.63,20.19a9.23,9.23,0,0,0,6.71,3.36h158.47a9.25,9.25,0,0,0,6.72-3.36l18.33-19.87c4-4.34,6.46-12.22,6.46-20.74V661.22c0-8.52-2.46-16.4-6.46-20.74L1269.66,620a9.24,9.24,0,0,0-6.75-3.36l-158.73.88A9.28,9.28,0,0,0,1097.51,620.93Z"/><path class="cls-62" d="M1110,620.93l-17.86,19.34c-4,4.34-6.46,12.23-6.46,20.74V962c0,8.52,2.46,16.41,6.46,20.75l18.64,20.19a9.23,9.23,0,0,0,6.71,3.36H1276a9.23,9.23,0,0,0,6.71-3.36L1301,983.1c4-4.34,6.46-12.22,6.46-20.74V661.22c0-8.52-2.45-16.4-6.46-20.74L1282.15,620a9.22,9.22,0,0,0-6.75-3.36l-158.72.88A9.28,9.28,0,0,0,1110,620.93Z"/><circle class="cls-63" cx="1130.65" cy="640.28" r="16.4"/><circle class="cls-61" cx="1130.65" cy="640.28" r="8.61"/><circle class="cls-64" cx="1224.86" cy="638.47" r="8.5"/><circle class="cls-65" cx="1249.36" cy="638.13" r="8.5"/><circle class="cls-66" cx="1272.84" cy="638.13" r="8.5"/><rect class="cls-63" x="1104.53" y="669.01" width="187.93" height="319.55" rx="71.96"/><circle class="cls-63" cx="1199.57" cy="750.56" r="71.22"/><path class="cls-67" d="M1202.05,679.34a.56.56,0,0,1,.43.91c-4.19,5.06-23.33,30.42-10.12,57.47,14.4,29.48-7.62,14.53-8.75,13.75l-.09,0c-1.43-.05-31.51-1.6-43.54-38.62a.15.15,0,0,1,0-.13C1140.8,711.06,1157.05,679.56,1202.05,679.34Z"/><path class="cls-67" d="M1262.35,717.68s-37.28-5.63-53.46,16.17,8.8,16.54,8.8,16.54,26.74.77,42.21,38.05c0,0,22.5-35.66,2.45-70.8"/><path class="cls-67" d="M1136.6,783.1s19.2,39.23,59.65,38.53c0,0,22.49-22,13.7-54.71s-18.57,0-18.57,0S1175.1,789.43,1136.6,783.1Z"/><circle class="cls-63" cx="1199.75" cy="750.74" r="20.05"/><circle class="cls-63" cx="1199.57" cy="905.64" r="71.22"/><path class="cls-67" d="M1203.27,834.42s-25.68,28.13-10.91,58.38-8.79,13.72-8.79,13.72-31.3-.7-43.62-38.69C1140,867.83,1156.13,834.06,1203.27,834.42Z"/><path class="cls-67" d="M1262.35,872.75s-37.28-5.62-53.46,16.18,8.8,16.53,8.8,16.53,27.08,1.41,42.55,38.69c0,0,22.16-36.29,2.11-71.43"/><path class="cls-67" d="M1136.6,938.17s19.18,39.4,59.63,38.69c0,0,22.51-22.15,13.72-54.87s-18.57,0-18.57,0S1175.1,944.51,1136.6,938.17Z"/><circle class="cls-63" cx="1199.75" cy="905.82" r="20.05"/><rect class="cls-68" x="1193.2" y="631" width="2.91" height="14.56"/><rect class="cls-68" x="1199.97" y="631" width="2.91" height="14.56"/><rect class="cls-69" x="349.01" y="543.06" width="496.57" height="574.85"/><rect class="cls-17" x="369.31" y="589.37" width="456.4" height="507.73"/><rect class="cls-15" x="369.31" y="565.64" width="456.4" height="1.76"/><rect class="cls-70" x="388.18" y="1059.11" width="419.53" height="15.59"/><rect class="cls-71" x="388.05" y="1058.96" width="207.66" height="15.45"/><polygon class="cls-72" points="597.51 630.51 628.25 735.22 707.23 659.91 681.49 765.97 787.55 740.22 712.23 819.2 816.95 849.95 712.23 880.68 787.55 959.66 681.49 933.92 707.23 1039.99 628.25 964.66 597.51 1069.38 566.77 964.66 487.8 1039.99 513.54 933.92 407.47 959.66 482.79 880.68 378.07 849.95 482.79 819.2 407.47 740.22 513.54 765.97 487.8 659.91 566.77 735.22 597.51 630.51"/><text class="cls-73" transform="translate(485.83 828.65) scale(1 0.89)">ВИРУС</text><text class="cls-73" transform="translate(393.5 884.55) scale(1 0.89)">ОБНАРУЖЕН</text><rect class="cls-38" x="677.63" y="966.2" width="267.1" height="258.58"/><rect class="cls-70" x="670.21" y="949.49" width="267.1" height="267.1"/><polygon class="cls-74" points="805.23 1127.56 763.99 1056.14 722.76 984.72 805.23 984.72 887.69 984.72 846.46 1056.14 805.23 1127.56"/><circle class="cls-74" cx="805.9" cy="1171.51" r="32.69"/><circle class="cls-75" cx="687.28" cy="965.3" r="9.33"/><circle class="cls-76" cx="713.06" cy="965.54" r="9.33"/><circle class="cls-77" cx="739.08" cy="965.54" r="9.33"/><text class="cls-78" transform="translate(385.05 1059.19) scale(1 0.89)">50%</text><rect class="cls-14" x="208.29" y="1491.78" width="646.43" height="398.98"/><rect class="cls-15" x="200.8" y="1484.63" width="644.84" height="398"/><rect class="cls-9" x="200.8" y="1483.76" width="644.84" height="40.08"/><circle class="cls-6" cx="221.03" cy="1503.8" r="10.27"/><circle class="cls-7" cx="247.18" cy="1503.8" r="10.27"/><circle class="cls-8" cx="273.6" cy="1503.8" r="10.27"/><rect class="cls-4" x="305.69" y="1504.95" width="155.9" height="1.94"/><rect class="cls-4" x="620.83" y="1504.95" width="179.99" height="1.94"/><text class="cls-79" transform="translate(477.23 1519.92) scale(1 0.89)">юзбфарм</text><polygon class="cls-22" points="831.47 1495.18 825.02 1495.18 825.02 1498.23 822.38 1498.23 822.38 1495.18 815.93 1495.18 815.93 1498.23 812.88 1498.23 812.88 1504.68 815.93 1504.68 815.93 1507.73 818.98 1507.73 818.98 1510.78 822 1510.78 822 1513.77 825.4 1513.77 825.4 1510.78 828.42 1510.78 828.42 1507.73 831.47 1507.73 831.47 1504.68 834.52 1504.68 834.52 1498.23 831.47 1498.23 831.47 1495.18"/><rect class="cls-42" x="237.99" y="1781.02" width="582.6" height="61.32" rx="8.43"/><path class="cls-43" d="M247.72,1781H368.47v61.32H247.72a8.42,8.42,0,0,1-8.42-8.42h0v-44.48a8.42,8.42,0,0,1,8.42-8.42Z"/><rect class="cls-42" x="233.77" y="1784.78" width="582.6" height="61.32" rx="8.43"/><path class="cls-44" d="M241.46,1785.52H362.21v61.33H241.46a8.43,8.43,0,0,1-8.42-8.43h0V1794a8.42,8.42,0,0,1,8.42-8.43Z"/><rect class="cls-42" x="228.82" y="1788.83" width="582.6" height="61.32" rx="8.43"/><path class="cls-45" d="M235.84,1789.13H355.17v60.6H235.84a8.32,8.32,0,0,1-8.32-8.33h0v-43.94A8.32,8.32,0,0,1,235.84,1789.13Z"/><path d="M307,1840.05l-11.51-14.87a16.27,16.27,0,1,0-2.22,1.72l11.51,14.86a1.4,1.4,0,0,0,2.22-1.71Zm-24.23-13.49a13.43,13.43,0,1,1,15-11.64A13.43,13.43,0,0,1,282.76,1826.56Z"/><text class="cls-80" transform="translate(365.88 1843.42) scale(1 0.89)">КАК ОЖИВИТЬ ПК?</text><rect class="cls-38" x="236.99" y="1556.1" width="588.37" height="182.88" rx="27.27"/><rect class="cls-41" x="226.2" y="1549.36" width="588.37" height="182.88" rx="27.27"/><polygon class="cls-40" points="403.29 1585.67 362.72 1585.67 362.72 1604.85 346.17 1604.85 346.17 1585.67 305.59 1585.67 305.59 1604.85 286.41 1604.85 286.41 1645.42 305.59 1645.42 305.59 1664.6 324.76 1664.6 324.76 1683.78 343.71 1683.78 343.71 1702.56 365.11 1702.56 365.11 1683.78 384.12 1683.78 384.12 1664.6 403.29 1664.6 403.29 1645.42 422.47 1645.42 422.47 1604.85 403.29 1604.85 403.29 1585.67"/><polygon class="cls-40" points="577.83 1585.67 537.24 1585.67 537.24 1604.85 520.69 1604.85 520.69 1585.67 480.12 1585.67 480.12 1604.85 460.95 1604.85 460.95 1645.42 480.12 1645.42 480.12 1664.6 499.29 1664.6 499.29 1683.78 518.24 1683.78 518.24 1702.56 539.64 1702.56 539.64 1683.78 558.64 1683.78 558.64 1664.6 577.83 1664.6 577.83 1645.42 597 1645.42 597 1604.85 577.83 1604.85 577.83 1585.67"/><path class="cls-40" d="M752.36,1604.85v-19.18H711.77v19.18H695.22v-19.18H654.65v19.18H635.48v40.58h19.17v19.16h19.17v19.19h18.95v18.78h21.4v-18.78h19v-19.19h19.19v-19.16h19.17v-40.58Zm-2.23,38.36H731v19.17H711.77v18.78H695.22v-18.78H676.05v-19.17H656.88v-36.13H693v19.18h21.4v-19.18h35.73Z"/><text class="cls-81" transform="translate(499.3 2933.86) scale(1 0.89)">by Bozhik Maxim</text></svg>