<svg id="Слой_1" data-name="Слой 1" xmlns="http://www.w3.org/2000/svg" viewBox="0 0 530.26 348.01"><defs><style>.cls-1{fill:#1d1d1b;}.cls-2{fill:#6f6f6e;}.cls-2,.cls-3,.cls-4,.cls-5{stroke:#000;stroke-miterlimit:10;stroke-width:3px;}.cls-3{fill:#e5e4e4;}.cls-4{fill:#562e37;}.cls-5{fill:#b1b1b1;}</style></defs><rect class="cls-1" x="220.75" y="130.7" width="254.06" height="1.71"/><rect class="cls-2" x="171.69" y="106.27" width="303.12" height="159.97"/><rect class="cls-3" x="166.32" y="100.3" width="303.12" height="159.97"/><rect class="cls-4" x="166.32" y="99.53" width="303.12" height="35.48"/><rect class="cls-1" x="187.36" y="117.43" width="254.06" height="1.71"/><polygon points="417.85 223.28 400.14 223.28 400.14 229.16 394.26 229.16 394.26 235.06 400.14 235.06 400.14 240.99 417.85 240.99 417.85 235.06 423.73 235.06 423.73 229.16 417.85 229.16 417.85 223.28"/><polygon points="441.45 163.3 435.55 163.3 435.55 157.37 429.64 157.37 429.64 151.44 387.37 151.44 387.37 157.37 381.47 157.37 381.47 163.31 375.58 163.31 375.58 164.28 375.58 186.88 393.28 186.88 393.28 164.28 393.28 163.31 400.16 163.31 400.16 157.37 412.38 157.37 412.38 163.3 417.86 163.3 417.86 181 417.86 186.88 417.86 187.88 411.95 187.88 411.95 192.79 411.95 193.79 406.04 193.79 406.04 198.71 406.04 199.67 400.14 199.67 400.14 217.39 417.85 217.39 417.85 199.67 417.85 199.67 417.85 198.71 423.76 198.71 423.76 193.79 423.76 192.79 429.65 192.79 429.65 187.88 429.65 186.88 435.55 186.88 435.55 181 441.45 181 441.45 163.3"/><polygon points="323.76 223.28 306.04 223.28 306.04 229.16 300.17 229.16 300.17 235.06 306.04 235.06 306.04 240.99 323.76 240.99 323.76 235.06 329.63 235.06 329.63 229.16 323.76 229.16 323.76 223.28"/><polygon points="347.35 163.3 341.45 163.3 341.45 157.37 335.54 157.37 335.54 151.44 293.27 151.44 293.27 157.37 287.38 157.37 287.38 163.31 281.48 163.31 281.48 164.28 281.48 186.88 299.19 186.88 299.19 164.28 299.19 163.31 306.07 163.31 306.07 157.37 318.28 157.37 318.28 163.3 323.77 163.3 323.77 181 323.77 186.88 323.77 187.88 317.85 187.88 317.85 192.79 317.85 193.79 311.94 193.79 311.94 198.71 311.94 199.67 306.04 199.67 306.04 217.39 323.76 217.39 323.76 199.67 323.76 199.67 323.76 198.71 329.66 198.71 329.66 193.79 329.66 192.79 335.56 192.79 335.56 187.88 335.56 186.88 341.45 186.88 341.45 181 347.35 181 347.35 163.3"/><polygon points="229.66 223.28 211.94 223.28 211.94 229.16 206.07 229.16 206.07 235.06 211.94 235.06 211.94 240.99 229.66 240.99 229.66 235.06 235.53 235.06 235.53 229.16 229.66 229.16 229.66 223.28"/><polygon points="253.25 163.3 247.36 163.3 247.36 157.37 241.44 157.37 241.44 151.44 199.18 151.44 199.18 157.37 193.28 157.37 193.28 163.31 187.38 163.31 187.38 164.28 187.38 186.88 205.09 186.88 205.09 164.28 205.09 163.31 211.97 163.31 211.97 157.37 224.18 157.37 224.18 163.3 229.67 163.3 229.67 181 229.67 186.88 229.67 187.88 223.76 187.88 223.76 192.79 223.76 193.79 217.85 193.79 217.85 198.71 217.85 199.67 211.94 199.67 211.94 217.39 229.66 217.39 229.66 199.67 229.66 199.67 229.66 198.71 235.56 198.71 235.56 193.79 235.56 192.79 241.46 192.79 241.46 187.88 241.46 186.88 247.36 186.88 247.36 181 253.25 181 253.25 163.3"/><rect class="cls-1" x="187.31" y="140.94" width="254.06" height="1.71"/><rect class="cls-2" x="138.26" y="116.51" width="303.12" height="159.97"/><rect class="cls-3" x="132.88" y="110.54" width="303.12" height="159.97"/><rect class="cls-4" x="132.88" y="109.77" width="303.12" height="35.48"/><rect class="cls-1" x="153.15" y="127.67" width="254.06" height="1.71"/><polygon points="383.64 233.52 365.93 233.52 365.93 239.41 360.05 239.41 360.05 245.31 365.93 245.31 365.93 251.24 383.64 251.24 383.64 245.31 389.51 245.31 389.51 239.41 383.64 239.41 383.64 233.52"/><polygon points="407.24 173.55 401.34 173.55 401.34 167.62 395.43 167.62 395.43 161.68 353.16 161.68 353.16 167.62 347.26 167.62 347.26 173.56 341.37 173.56 341.37 174.53 341.37 197.13 359.07 197.13 359.07 174.53 359.07 173.56 365.95 173.56 365.95 167.62 378.17 167.62 378.17 173.55 383.65 173.55 383.65 191.24 383.65 197.13 383.65 198.12 377.74 198.12 377.74 203.04 377.74 204.03 371.83 204.03 371.83 208.95 371.83 209.92 365.93 209.92 365.93 227.64 383.64 227.64 383.64 209.92 383.64 209.92 383.64 208.95 389.55 208.95 389.55 204.03 389.55 203.04 395.44 203.04 395.44 198.12 395.44 197.13 401.34 197.13 401.34 191.24 407.24 191.24 407.24 173.55"/><polygon points="289.55 233.52 271.83 233.52 271.83 239.41 265.96 239.41 265.96 245.31 271.83 245.31 271.83 251.24 289.55 251.24 289.55 245.31 295.42 245.31 295.42 239.41 289.55 239.41 289.55 233.52"/><polygon points="313.14 173.55 307.24 173.55 307.24 167.62 301.33 167.62 301.33 161.68 259.06 161.68 259.06 167.62 253.16 167.62 253.16 173.56 247.27 173.56 247.27 174.53 247.27 197.13 264.97 197.13 264.97 174.53 264.97 173.56 271.85 173.56 271.85 167.62 284.07 167.62 284.07 173.55 289.55 173.55 289.55 191.24 289.55 197.13 289.55 198.12 283.64 198.12 283.64 203.04 283.64 204.03 277.73 204.03 277.73 208.95 277.73 209.92 271.83 209.92 271.83 227.64 289.55 227.64 289.55 209.92 289.55 209.92 289.55 208.95 295.45 208.95 295.45 204.03 295.45 203.04 301.34 203.04 301.34 198.12 301.34 197.13 307.24 197.13 307.24 191.24 313.14 191.24 313.14 173.55"/><polygon points="195.45 233.52 177.73 233.52 177.73 239.41 171.86 239.41 171.86 245.31 177.73 245.31 177.73 251.24 195.45 251.24 195.45 245.31 201.32 245.31 201.32 239.41 195.45 239.41 195.45 233.52"/><polygon points="219.04 173.55 213.15 173.55 213.15 167.62 207.23 167.62 207.23 161.68 164.96 161.68 164.96 167.62 159.07 167.62 159.07 173.56 153.17 173.56 153.17 174.53 153.17 197.13 170.88 197.13 170.88 174.53 170.88 173.56 177.76 173.56 177.76 167.62 189.97 167.62 189.97 173.55 195.46 173.55 195.46 191.24 195.46 197.13 195.46 198.12 189.55 198.12 189.55 203.04 189.55 204.03 183.63 204.03 183.63 208.95 183.63 209.92 177.73 209.92 177.73 227.64 195.45 227.64 195.45 209.92 195.45 209.92 195.45 208.95 201.35 208.95 201.35 204.03 201.35 203.04 207.25 203.04 207.25 198.12 207.25 197.13 213.15 197.13 213.15 191.24 219.04 191.24 219.04 173.55"/><rect class="cls-1" x="153.49" y="151.15" width="254.06" height="1.71"/><rect class="cls-2" x="104.43" y="126.72" width="303.12" height="159.97"/><rect class="cls-3" x="99.06" y="120.75" width="303.12" height="159.97"/><rect class="cls-5" x="99.06" y="119.98" width="303.12" height="35.48"/><rect class="cls-1" x="119.33" y="137.88" width="254.06" height="1.71"/><polygon points="349.82 246.48 332.1 246.48 332.1 252.37 326.23 252.37 326.23 258.27 332.1 258.27 332.1 264.2 349.82 264.2 349.82 258.27 355.69 258.27 355.69 252.37 349.82 252.37 349.82 246.48"/><polygon points="373.41 186.5 367.52 186.5 367.52 180.58 361.61 180.58 361.61 174.64 319.34 174.64 319.34 180.58 313.44 180.58 313.44 186.52 307.55 186.52 307.55 187.48 307.55 210.09 325.25 210.09 325.25 187.48 325.25 186.52 332.13 186.52 332.13 180.58 344.35 180.58 344.35 186.5 349.83 186.5 349.83 204.2 349.83 210.09 349.83 211.08 343.92 211.08 343.92 216 343.92 216.99 338.01 216.99 338.01 221.91 338.01 222.88 332.1 222.88 332.1 240.59 349.82 240.59 349.82 222.88 349.82 222.88 349.82 221.91 355.73 221.91 355.73 216.99 355.73 216 361.62 216 361.62 211.08 361.62 210.09 367.52 210.09 367.52 204.2 373.41 204.2 373.41 186.5"/><polygon points="255.72 246.48 238.01 246.48 238.01 252.37 232.14 252.37 232.14 258.27 238.01 258.27 238.01 264.2 255.72 264.2 255.72 258.27 261.6 258.27 261.6 252.37 255.72 252.37 255.72 246.48"/><polygon points="279.32 186.5 273.42 186.5 273.42 180.58 267.51 180.58 267.51 174.64 225.24 174.64 225.24 180.58 219.34 180.58 219.34 186.52 213.45 186.52 213.45 187.48 213.45 210.09 231.15 210.09 231.15 187.48 231.15 186.52 238.03 186.52 238.03 180.58 250.25 180.58 250.25 186.5 255.73 186.5 255.73 204.2 255.73 210.09 255.73 211.08 249.82 211.08 249.82 216 249.82 216.99 243.91 216.99 243.91 221.91 243.91 222.88 238.01 222.88 238.01 240.59 255.72 240.59 255.72 222.88 255.72 222.88 255.72 221.91 261.63 221.91 261.63 216.99 261.63 216 267.52 216 267.52 211.08 267.52 210.09 273.42 210.09 273.42 204.2 279.32 204.2 279.32 186.5"/><polygon points="161.63 246.48 143.91 246.48 143.91 252.37 138.04 252.37 138.04 258.27 143.91 258.27 143.91 264.2 161.63 264.2 161.63 258.27 167.5 258.27 167.5 252.37 161.63 252.37 161.63 246.48"/><polygon points="185.22 186.5 179.32 186.5 179.32 180.58 173.41 180.58 173.41 174.64 131.14 174.64 131.14 180.58 125.25 180.58 125.25 186.52 119.35 186.52 119.35 187.48 119.35 210.09 137.06 210.09 137.06 187.48 137.06 186.52 143.94 186.52 143.94 180.58 156.15 180.58 156.15 186.5 161.64 186.5 161.64 204.2 161.64 210.09 161.64 211.08 155.72 211.08 155.72 216 155.72 216.99 149.81 216.99 149.81 221.91 149.81 222.88 143.91 222.88 143.91 240.59 161.63 240.59 161.63 222.88 161.63 222.88 161.63 221.91 167.53 221.91 167.53 216.99 167.53 216 173.43 216 173.43 211.08 173.43 210.09 179.32 210.09 179.32 204.2 185.22 204.2 185.22 186.5"/></svg>