<svg id="Слой_1" data-name="Слой 1" xmlns="http://www.w3.org/2000/svg" viewBox="0 0 331.25 349.67"><defs><style>.cls-1{fill:#35a8e0;}.cls-2{fill:#fff;stroke:#000;stroke-miterlimit:10;stroke-width:5px;}</style></defs><rect class="cls-1" x="87.71" y="76.29" width="218.29" height="234.25"/><rect class="cls-2" x="78.09" y="59.1" width="218.29" height="241.96"/><path d="M97.05,282.68v-8h3.87v13.94H97.21v-2.53h-.15a4.13,4.13,0,0,1-1.56,2,5.12,5.12,0,0,1-5.13.1,4.3,4.3,0,0,1-1.65-1.8,6.1,6.1,0,0,1-.6-2.81v-8.87H92v8.18a2.88,2.88,0,0,0,.66,2,2.29,2.29,0,0,0,1.76.71,2.66,2.66,0,0,0,1.3-.32,2.4,2.4,0,0,0,1-1A2.92,2.92,0,0,0,97.05,282.68Z"/><path d="M115.6,278.65l-3.54.22a1.89,1.89,0,0,0-.39-.82,2.24,2.24,0,0,0-.78-.59,2.76,2.76,0,0,0-1.16-.22,2.81,2.81,0,0,0-1.52.38,1.12,1.12,0,0,0-.61,1,1.06,1.06,0,0,0,.4.84,3,3,0,0,0,1.37.55l2.52.51a6.28,6.28,0,0,1,3,1.35,3.12,3.12,0,0,1,1,2.43,3.83,3.83,0,0,1-.8,2.4,5.24,5.24,0,0,1-2.2,1.61,8.24,8.24,0,0,1-3.21.58,7.5,7.5,0,0,1-4.4-1.16,4.41,4.41,0,0,1-1.92-3.15l3.8-.2a1.91,1.91,0,0,0,.83,1.28,3,3,0,0,0,1.7.44,3.06,3.06,0,0,0,1.64-.39,1.21,1.21,0,0,0,.63-1,1.08,1.08,0,0,0-.45-.87,3.27,3.27,0,0,0-1.34-.52l-2.41-.48a5.73,5.73,0,0,1-3-1.42,3.49,3.49,0,0,1-1-2.56,3.73,3.73,0,0,1,.73-2.32,4.69,4.69,0,0,1,2.06-1.5,8.46,8.46,0,0,1,3.12-.52,6.94,6.94,0,0,1,4.16,1.11A4.34,4.34,0,0,1,115.6,278.65Z"/><path d="M118.43,288.62V270h3.87v7h.12a5.34,5.34,0,0,1,.73-1.15,4,4,0,0,1,1.28-1,4.34,4.34,0,0,1,1.95-.39,5.21,5.21,0,0,1,2.81.79,5.54,5.54,0,0,1,2.06,2.39,9,9,0,0,1,.78,4,9.25,9.25,0,0,1-.75,3.93,5.52,5.52,0,0,1-2,2.42,5.17,5.17,0,0,1-2.87.82,4.43,4.43,0,0,1-1.91-.37,3.91,3.91,0,0,1-1.28-.94,4.53,4.53,0,0,1-.76-1.14h-.18v2.23Zm3.79-7a6.22,6.22,0,0,0,.34,2.17,3.25,3.25,0,0,0,1,1.44,2.71,2.71,0,0,0,3.18,0,3.26,3.26,0,0,0,1-1.46,6.36,6.36,0,0,0,.34-2.14,6,6,0,0,0-.34-2.12,3.1,3.1,0,0,0-1-1.44,2.52,2.52,0,0,0-1.6-.52,2.59,2.59,0,0,0-1.6.5,3.19,3.19,0,0,0-1,1.42A6.12,6.12,0,0,0,122.22,281.65Z"/><path d="M143.28,279.45v3.07H134.8v-3.07Z"/><path d="M146.57,293.84V274.68h3.81V277h.17a5.41,5.41,0,0,1,.74-1.15,4.1,4.1,0,0,1,1.27-1,4.42,4.42,0,0,1,2-.39,5.23,5.23,0,0,1,2.81.79,5.54,5.54,0,0,1,2.06,2.39,9,9,0,0,1,.77,4,9.41,9.41,0,0,1-.74,3.93,5.52,5.52,0,0,1-2,2.42,5.17,5.17,0,0,1-2.87.82,4.4,4.4,0,0,1-1.91-.37,3.91,3.91,0,0,1-1.28-.94,4.58,4.58,0,0,1-.77-1.14h-.11v7.45Zm3.78-12.19a6.21,6.21,0,0,0,.35,2.17,3.25,3.25,0,0,0,1,1.44,2.48,2.48,0,0,0,1.59.51,2.51,2.51,0,0,0,1.59-.52,3.26,3.26,0,0,0,1-1.46,6.36,6.36,0,0,0,.34-2.14,6.2,6.2,0,0,0-.34-2.12,3.1,3.1,0,0,0-1-1.44,2.52,2.52,0,0,0-1.6-.52,2.59,2.59,0,0,0-1.6.5,3.19,3.19,0,0,0-1,1.42A6.11,6.11,0,0,0,150.35,281.65Z"/><path d="M166.6,280.56v8.06h-3.87V270h3.76v7.11h.16a4,4,0,0,1,1.53-1.94,4.63,4.63,0,0,1,2.64-.7,5,5,0,0,1,2.53.63,4.26,4.26,0,0,1,1.69,1.8,6.13,6.13,0,0,1,.6,2.81v8.88h-3.87v-8.19a2.79,2.79,0,0,0-.65-2,2.37,2.37,0,0,0-1.84-.72,2.75,2.75,0,0,0-1.39.34,2.32,2.32,0,0,0-.94,1A3.21,3.21,0,0,0,166.6,280.56Z"/><path d="M182.66,288.88a5.81,5.81,0,0,1-2.38-.47,3.79,3.79,0,0,1-1.65-1.39,4.12,4.12,0,0,1-.6-2.3,4,4,0,0,1,.43-2,3.46,3.46,0,0,1,1.16-1.27,5.59,5.59,0,0,1,1.67-.72,12.39,12.39,0,0,1,2-.35c.81-.08,1.46-.16,2-.24a2.74,2.74,0,0,0,1.08-.34.75.75,0,0,0,.33-.67v-.05a1.69,1.69,0,0,0-.54-1.34,2.28,2.28,0,0,0-1.53-.47,2.7,2.7,0,0,0-1.66.46,2.11,2.11,0,0,0-.81,1.15l-3.58-.29a4.88,4.88,0,0,1,1.07-2.2,5.21,5.21,0,0,1,2.07-1.44,8,8,0,0,1,2.93-.5,9,9,0,0,1,2.23.27,6,6,0,0,1,1.9.84,4.21,4.21,0,0,1,1.31,1.47,4.48,4.48,0,0,1,.48,2.14v9.4h-3.67v-1.94h-.11a3.7,3.7,0,0,1-.9,1.15,3.88,3.88,0,0,1-1.35.77A5.31,5.31,0,0,1,182.66,288.88Zm1.11-2.67a3.16,3.16,0,0,0,1.5-.34,2.56,2.56,0,0,0,1-.92,2.36,2.36,0,0,0,.37-1.31v-1.48a1.83,1.83,0,0,1-.5.21c-.2.06-.44.12-.7.17l-.78.14-.71.1a5.27,5.27,0,0,0-1.19.32,1.9,1.9,0,0,0-.78.59,1.55,1.55,0,0,0,.29,2.11A2.41,2.41,0,0,0,183.77,286.21Z"/><path d="M193.51,288.62V274.68h3.75v2.43h.14a3.64,3.64,0,0,1,1.28-2,3.35,3.35,0,0,1,2.07-.67,4.74,4.74,0,0,1,.63,0,3.14,3.14,0,0,1,.59.1v3.43a4.08,4.08,0,0,0-.75-.15,7.38,7.38,0,0,0-.89-.06,3.12,3.12,0,0,0-1.51.36,2.76,2.76,0,0,0-1.06,1,2.93,2.93,0,0,0-.38,1.5v7.89Z"/><path d="M204,288.62V274.68h3.68v2.46h.16a3.87,3.87,0,0,1,1.45-1.93,4.11,4.11,0,0,1,2.44-.71,4.16,4.16,0,0,1,2.44.71,3.4,3.4,0,0,1,1.34,1.93h.15a3.72,3.72,0,0,1,1.54-1.92,4.81,4.81,0,0,1,2.66-.72,4.25,4.25,0,0,1,3.17,1.24,4.78,4.78,0,0,1,1.22,3.5v9.38h-3.86V280a2.3,2.3,0,0,0-.61-1.75,2.22,2.22,0,0,0-1.55-.58,2.09,2.09,0,0,0-1.64.67,2.56,2.56,0,0,0-.59,1.76v8.51h-3.75v-8.7a2.26,2.26,0,0,0-.58-1.63,2.06,2.06,0,0,0-1.54-.61,2.1,2.1,0,0,0-1.16.33,2.25,2.25,0,0,0-.81.89,2.92,2.92,0,0,0-.3,1.35v8.37Z"/><path d="M229.52,288.85a2.09,2.09,0,0,1-1.54-.64,2.15,2.15,0,0,1,0-3.06,2.17,2.17,0,0,1,3.06,0,2,2,0,0,1,.65,1.53,2.05,2.05,0,0,1-.3,1.09,2.39,2.39,0,0,1-.79.79A2,2,0,0,1,229.52,288.85Z"/><path d="M241.16,288.89a7,7,0,0,1-3.68-.91,6.09,6.09,0,0,1-2.36-2.54,8.94,8.94,0,0,1,0-7.5,6.13,6.13,0,0,1,2.36-2.53,7,7,0,0,1,3.65-.91,7.32,7.32,0,0,1,3.2.66A5.3,5.3,0,0,1,246.5,277a5.37,5.37,0,0,1,.88,2.81h-3.64a2.91,2.91,0,0,0-.82-1.68,2.33,2.33,0,0,0-1.72-.64,2.54,2.54,0,0,0-1.56.49,3.07,3.07,0,0,0-1,1.41,5.93,5.93,0,0,0-.37,2.24,6.13,6.13,0,0,0,.37,2.27,3.14,3.14,0,0,0,1,1.42,2.78,2.78,0,0,0,2.77.22,2.46,2.46,0,0,0,.88-.79,3.2,3.2,0,0,0,.46-1.26h3.64a5.81,5.81,0,0,1-.86,2.81,5.32,5.32,0,0,1-2.14,1.89A7.18,7.18,0,0,1,241.16,288.89Z"/><path d="M256.17,288.89a7.08,7.08,0,0,1-3.65-.9,6.12,6.12,0,0,1-2.38-2.53,9,9,0,0,1,0-7.54,6.09,6.09,0,0,1,2.38-2.52,7.85,7.85,0,0,1,7.3,0,6,6,0,0,1,2.37,2.52,8.88,8.88,0,0,1,0,7.54,6,6,0,0,1-2.37,2.53A7.11,7.11,0,0,1,256.17,288.89Zm0-3a2.41,2.41,0,0,0,1.6-.55,3.4,3.4,0,0,0,1-1.51,7.27,7.27,0,0,0,0-4.33,3.4,3.4,0,0,0-1-1.51,2.36,2.36,0,0,0-1.6-.55,2.44,2.44,0,0,0-1.63.55,3.33,3.33,0,0,0-1,1.51,7.27,7.27,0,0,0,0,4.33,3.33,3.33,0,0,0,1,1.51A2.49,2.49,0,0,0,256.19,285.9Z"/><path d="M265.55,288.62V274.68h3.69v2.46h.16a3.82,3.82,0,0,1,1.45-1.93,4.53,4.53,0,0,1,4.87,0,3.42,3.42,0,0,1,1.35,1.93h.14a3.74,3.74,0,0,1,1.55-1.92,4.8,4.8,0,0,1,2.65-.72,4.23,4.23,0,0,1,3.17,1.24,4.74,4.74,0,0,1,1.22,3.5v9.38H282V280a2.3,2.3,0,0,0-.62-1.75,2.18,2.18,0,0,0-1.54-.58,2.09,2.09,0,0,0-1.64.67,2.52,2.52,0,0,0-.59,1.76v8.51h-3.75v-8.7a2.26,2.26,0,0,0-.59-1.63,2,2,0,0,0-1.53-.61,2.1,2.1,0,0,0-1.16.33,2.25,2.25,0,0,0-.81.89,2.92,2.92,0,0,0-.3,1.35v8.37Z"/></svg>