<svg id="Слой_1" data-name="Слой 1" xmlns="http://www.w3.org/2000/svg" viewBox="0 0 699.55 777.04"><defs><style>.cls-1{fill:#706f6f;stroke-width:4px;}.cls-1,.cls-10,.cls-11,.cls-2,.cls-3,.cls-4,.cls-5,.cls-8,.cls-9{stroke:#000;stroke-miterlimit:10;}.cls-2,.cls-3,.cls-4{fill:#e5e4e4;}.cls-10,.cls-11,.cls-2,.cls-5,.cls-9{stroke-width:3px;}.cls-3{stroke-width:2px;}.cls-4{stroke-width:6px;}.cls-6{fill:#fcbd3d;}.cls-7,.cls-8,.cls-9{fill:#e5332a;}.cls-8{stroke-width:5px;}.cls-10{fill:#fbbd3d;}.cls-11{fill:#41ae60;}</style></defs><rect class="cls-1" x="53.49" y="20.43" width="496.57" height="574.85"/><rect class="cls-2" x="73.8" y="66.74" width="456.4" height="507.73"/><rect class="cls-3" x="73.8" y="43.01" width="456.4" height="1.76"/><rect class="cls-4" x="92.66" y="536.48" width="419.53" height="15.59"/><rect class="cls-5" x="92.53" y="536.34" width="207.66" height="15.45"/><polygon class="cls-6" points="301.99 107.88 332.74 212.6 411.72 137.28 385.97 243.34 492.03 217.6 416.71 296.58 521.43 327.32 416.71 358.06 492.03 437.04 385.97 411.29 411.72 517.36 332.74 442.04 301.99 546.75 271.26 442.04 192.28 517.36 218.02 411.29 111.95 437.04 187.28 358.06 82.55 327.32 187.28 296.58 111.95 217.6 218.02 243.34 192.28 137.28 271.26 212.6 301.99 107.88"/><rect class="cls-7" x="382.11" y="443.58" width="267.1" height="258.58"/><rect class="cls-4" x="374.69" y="426.87" width="267.1" height="267.1"/><polygon class="cls-8" points="509.71 604.93 468.47 533.51 427.24 462.09 509.71 462.09 592.17 462.09 550.94 533.51 509.71 604.93"/><circle class="cls-8" cx="510.39" cy="648.88" r="32.69"/><circle class="cls-9" cx="391.76" cy="442.67" r="9.33"/><circle class="cls-10" cx="417.54" cy="442.92" r="9.33"/><circle class="cls-11" cx="443.56" cy="442.92" r="9.33"/></svg>