<svg id="Слой_1" data-name="Слой 1" xmlns="http://www.w3.org/2000/svg" viewBox="0 0 605.74 560.06"><defs><style>.cls-1{fill:#562e37;}.cls-1,.cls-10,.cls-11,.cls-12,.cls-13,.cls-2,.cls-3,.cls-5,.cls-6,.cls-7{stroke:#000;}.cls-1,.cls-10,.cls-11,.cls-12,.cls-13,.cls-15,.cls-16,.cls-2,.cls-3,.cls-5,.cls-6,.cls-7,.cls-9{stroke-miterlimit:10;}.cls-2,.cls-9{fill:#3c3c3b;}.cls-3,.cls-5{fill:#6f6f6e;}.cls-4{fill:#1d1d1b;}.cls-5,.cls-6,.cls-7{stroke-width:2px;}.cls-6{fill:#e5e4e4;}.cls-7{fill:#5a8ca0;}.cls-8{font-size:24.35px;letter-spacing:0.04em;}.cls-14,.cls-8{font-family:Fifaks1.0dev1, "Fifaks 1.0 dev1";}.cls-15,.cls-16,.cls-9{stroke:#231f20;stroke-width:0.05px;}.cls-10,.cls-17{fill:#e5e5e5;}.cls-11,.cls-15,.cls-18{fill:#35a8e0;}.cls-12{fill:#fcbd3d;}.cls-13{fill:#e5332a;}.cls-14{font-size:34.94px;letter-spacing:0.04em;}.cls-16{fill:#1a1a1a;}</style></defs><circle class="cls-1" cx="265.04" cy="223.4" r="7.04"/><circle class="cls-2" cx="282.95" cy="223.4" r="7.04"/><circle class="cls-3" cx="301.04" cy="223.4" r="7.04"/><rect class="cls-4" x="323.01" y="224.18" width="106.75" height="1.33"/><rect class="cls-5" x="112.77" y="71.78" width="442.63" height="420.58"/><rect class="cls-6" x="106.67" y="65.75" width="441.55" height="419.55"/><rect class="cls-7" x="106.67" y="65.15" width="441.55" height="27.45"/><circle class="cls-1" cx="120.52" cy="78.88" r="7.04"/><circle class="cls-2" cx="138.43" cy="78.88" r="7.04"/><circle class="cls-3" cx="156.52" cy="78.88" r="7.04"/><rect class="cls-4" x="178.49" y="79.66" width="106.75" height="1.33"/><rect class="cls-4" x="394.28" y="79.66" width="123.25" height="1.33"/><text class="cls-8" transform="translate(295.95 89.91) scale(1 0.89)">юзбфарм</text><polygon class="cls-9" points="538.52 72.97 534.1 72.97 534.1 75.06 532.29 75.06 532.29 72.97 527.88 72.97 527.88 75.06 525.79 75.06 525.79 79.48 527.88 79.48 527.88 81.57 529.97 81.57 529.97 83.66 532.03 83.66 532.03 85.7 534.36 85.7 534.36 83.66 536.43 83.66 536.43 81.57 538.52 81.57 538.52 79.48 540.61 79.48 540.61 75.06 538.52 75.06 538.52 72.97"/><rect class="cls-10" x="132.14" y="418.33" width="398.93" height="41.99" rx="5.77"/><path class="cls-11" d="M138.8,418.33h82.68v42H138.8a5.77,5.77,0,0,1-5.77-5.77h0V424.1a5.77,5.77,0,0,1,5.77-5.77Z"/><rect class="cls-10" x="129.25" y="420.91" width="398.93" height="41.99" rx="5.77"/><path class="cls-12" d="M134.52,421.41H217.2v42H134.52a5.77,5.77,0,0,1-5.77-5.77h0V427.18a5.77,5.77,0,0,1,5.77-5.77Z"/><rect class="cls-10" x="125.86" y="423.68" width="398.93" height="41.99" rx="5.77"/><path class="cls-13" d="M130.67,423.88h81.7v41.5h-81.7a5.7,5.7,0,0,1-5.7-5.7h0v-30.1A5.7,5.7,0,0,1,130.67,423.88Z"/><path d="M179.38,458.75l-7.88-10.18a11.14,11.14,0,1,0-1.51,1.17l7.88,10.18a1,1,0,0,0,1.51-1.17Zm-16.59-9.24a9.19,9.19,0,1,1,10.29-8A9.19,9.19,0,0,1,162.79,449.51Z"/><text class="cls-14" transform="translate(219.71 461.06) scale(1 0.89)">КАК УСЫПИТЬ ПК?</text><rect class="cls-15" x="195.18" y="117.01" width="277.38" height="277.38" rx="31.15"/><rect class="cls-16" x="190.64" y="112.48" width="277.38" height="277.38" rx="31.15"/><path class="cls-17" d="M408.13,177.45V166.09H396.77V154.73H271.62v11.36H260.26v11.36H248.9v90.86h11.36v11.36h11.36v44.77H283v12.21h11.33V348h81V336.65h10.07V325.3h11.36V279.85h11.36V268.5h11.36V177.45Zm-136.5,57V211.73H283V200.38H305.7v11.35h11.36v22.72H305.7v11.36H283V234.45ZM283,314V291.24h11.32V314Zm34.07-.22H305.7v-22.5h11.36Zm22.93,0H328.61v-22.5H340Zm11.36-45.21h-34.3V257.17h11.36V245.81h11.36v11.36h11.57Zm11.36,22.71v22.5H351.35v-22.5ZM385.42,314H374.06V291.24h11.36Zm11.36-90.87h0v11.36H385.42v11.36H362.7V234.45H351.34V211.73H362.7V200.38h22.71v11.35h11.36Z"/><path class="cls-18" d="M403.69,176.55V165.2H392.33V153.84H267.18V165.2H255.82v11.35H244.47v90.87h11.35v11.36h11.36v44.79h11.35v12.21h11.36v11.36h81V335.78H381V324.44h11.35V279h11.36V267.65H415v-91.1Zm-136.5,57V210.85h11.34V199.49h22.72v11.36h11.36v22.71H301.25v11.36H278.53V233.56Zm11.34,79.51V290.35h11.36v22.72Zm34.08-.22H301.25v-22.5h11.36Zm22.93,0H324.19v-22.5h11.35Zm11.36-45.21H312.6V256.28H324V244.92h11.36v11.36h11.57Zm11.36,22.71v22.5H346.9v-22.5ZM381,313.07H369.62V290.35H381Zm11.35-90.84h0v11.36H381V245H358.26V233.59H346.9V210.85h11.36V199.49H381v11.36h11.35Z"/></svg>