<svg id="Слой_1" data-name="Слой 1" xmlns="http://www.w3.org/2000/svg" viewBox="0 0 918.09 521.22"><defs><style>.cls-1{font-size:126.65px;}.cls-1,.cls-2{font-family:BrutalType-Bold, Brutal Type;font-weight:700;}.cls-2{font-size:94.72px;}.cls-3{letter-spacing:-0.02em;}.cls-4{fill:#fff;}.cls-5{fill:#a2a2a2;}.cls-6{fill:#e5332a;}</style></defs><text class="cls-1" transform="translate(479.57 236.13)">ЮЗБ</text><text class="cls-2" transform="translate(483.7 312.59)"><tspan class="cls-3">Ф</tspan><tspan x="81.94" y="0">АРМ</tspan></text><path class="cls-4" d="M375.81,235.09V306l88.66-.41-.18-70.53Zm68.48,50.36H414V255.18h30.27Z"/><path class="cls-4" d="M375.81,225.67h88.48l.18-69.15H375.9ZM414,175.58h30.27v30.27H414Z"/><path d="M375.81,147.82v-17a40.05,40.05,0,0,0-3-15.3c-2.13-5.17-3.15-3.72-14.42-4.58-.35,0-.71,0-1.07,0H289.75c-176.41,0-174.67,240.55,1.75,240.55h64.9a55.31,55.31,0,0,0,6.3-.36c7.37-.84,8.64-.95,9.76-3.94a53.68,53.68,0,0,0,3.35-19V312.94h95.38V147.82Zm-27.66,84.49H334.84v11.86H321.53V256H308.21V267.9H294.9v11.87H281.59v11.86H268.28V279.77H255V267.9H241.65V256H228.34V244.17H215V232.31H201.71V196.72H215V184.85h13.31V173H255v11.86h13.32v11.87h13.31V184.85H294.9V173h26.63v11.86h13.31v11.87h13.31ZM375.81,306V235.09h88.48l.18,70.53Zm88.48-80.36H375.81l.09-69.15h88.57Z"/><path d="M444.29,175.58H414v30.27h30.27Zm-6.66,24.22H420.68V182.24h16.95Z"/><rect class="cls-5" x="420.68" y="182.24" width="16.95" height="17.56"/><path d="M414,285.45h30.27V255.18H414Zm6.66-23.61h16.95v17.55H420.68Z"/><rect class="cls-5" x="420.68" y="261.84" width="16.95" height="17.56"/><polygon class="cls-6" points="334.84 184.85 321.53 184.85 321.53 172.99 294.9 172.99 294.9 184.85 281.59 184.85 281.59 196.72 268.28 196.72 268.28 184.85 254.96 184.85 254.96 172.99 228.34 172.99 228.34 184.85 215.03 184.85 215.03 196.72 201.71 196.72 201.71 232.31 215.03 232.31 215.03 244.17 228.34 244.17 228.34 256.04 241.65 256.04 241.65 267.9 254.96 267.9 254.96 279.77 268.28 279.77 268.28 291.63 281.59 291.63 281.59 279.77 294.9 279.77 294.9 267.9 308.21 267.9 308.21 256.04 321.53 256.04 321.53 244.17 334.84 244.17 334.84 232.31 348.15 232.31 348.15 196.72 334.84 196.72 334.84 184.85"/></svg>