<svg id="Слой_1" data-name="Слой 1" xmlns="http://www.w3.org/2000/svg" xmlns:xlink="http://www.w3.org/1999/xlink" viewBox="0 0 414 896"><defs><style>.cls-1{fill:#2d2d2d;}.cls-2,.cls-35{fill:none;}.cls-2{stroke:#9d9d9c;}.cls-10,.cls-11,.cls-13,.cls-2,.cls-24,.cls-25,.cls-26,.cls-28,.cls-29,.cls-3,.cls-30,.cls-31,.cls-33,.cls-34,.cls-37,.cls-38,.cls-39,.cls-4,.cls-40,.cls-44,.cls-6,.cls-8,.cls-9{stroke-miterlimit:10;}.cls-2,.cls-24,.cls-25,.cls-26,.cls-3,.cls-37,.cls-4{stroke-width:2px;}.cls-3{fill:#b2b2b2;stroke:#191918;}.cls-11,.cls-4{fill:#c14f4f;}.cls-10,.cls-13,.cls-24,.cls-25,.cls-26,.cls-28,.cls-29,.cls-30,.cls-31,.cls-37,.cls-38,.cls-39,.cls-4,.cls-40,.cls-8{stroke:#000;}.cls-5{fill:#191918;}.cls-37,.cls-39,.cls-6{fill:#3c3c3b;}.cls-33,.cls-34,.cls-44,.cls-6{stroke:#231f20;stroke-width:0.05px;}.cls-29,.cls-7{fill:#35a8e0;}.cls-21,.cls-8{fill:#fff;}.cls-8{stroke-width:5px;}.cls-24,.cls-40,.cls-42,.cls-9{fill:#6f6f6e;}.cls-11,.cls-9{stroke:#1d1d1b;}.cls-10,.cls-9{stroke-width:3px;}.cls-10,.cls-13,.cls-25{fill:#e5e4e4;}.cls-11,.cls-13{stroke-width:4px;}.cls-12{fill:#1d1d1b;}.cls-14{fill:#878787;}.cls-15{fill:#a21928;}.cls-16{fill:#fdd903;}.cls-17{fill:#ffef72;}.cls-18,.cls-19,.cls-20{isolation:isolate;}.cls-18,.cls-20{font-size:35.44px;font-family:BrutalType-Bold, Brutal Type;font-weight:700;}.cls-20{letter-spacing:-0.02em;}.cls-22,.cls-28{fill:#e5e5e5;}.cls-23,.cls-31,.cls-44{fill:#e5332a;}.cls-26{fill:#4ea577;}.cls-27{font-size:20.68px;letter-spacing:0.04em;}.cls-27,.cls-32,.cls-41,.cls-43{font-family:Fifaks1.0dev1, "Fifaks 1.0 dev1";}.cls-30{fill:#fcbd3d;}.cls-32{font-size:29.67px;letter-spacing:0.04em;}.cls-33,.cls-36{fill:#00c462;}.cls-34{fill:#1a1a1a;}.cls-38{fill:#562e37;}.cls-41{font-size:14.92px;letter-spacing:0.04em;}.cls-43{font-size:21.41px;letter-spacing:0.04em;}</style></defs><rect class="cls-1" y="0.54" width="414" height="895.46"/><polyline class="cls-2" points="1440 0.54 0 0.54 0 2800.54"/><line class="cls-2" y1="100.54" x2="1440" y2="100.54"/><line class="cls-2" y1="200.54" x2="1440" y2="200.54"/><line class="cls-2" y1="300.54" x2="1440" y2="300.54"/><line class="cls-2" y1="400.54" x2="1440" y2="400.54"/><line class="cls-2" y1="500.54" x2="1440" y2="500.54"/><line class="cls-2" y1="600.54" x2="1440" y2="600.54"/><line class="cls-2" y1="700.54" x2="1440" y2="700.54"/><line class="cls-2" y1="800.54" x2="1440" y2="800.54"/><line class="cls-2" x1="411.43" y1="2800.54" x2="411.43" y2="0.54"/><line class="cls-2" x1="308.57" y1="2800.54" x2="308.57" y2="0.54"/><line class="cls-2" x1="205.71" y1="2800.54" x2="205.71" y2="0.54"/><line class="cls-2" x1="102.86" y1="2800.54" x2="102.86" y2="0.54"/><rect class="cls-3" x="1" y="0.54" width="412.19" height="49.59"/><circle class="cls-4" cx="26.8" cy="25.18" r="15.82"/><rect class="cls-5" x="64.2" y="24.69" width="282.53" height="2.98"/><path class="cls-6" d="M397.88,16.07V11.38h-9.94v4.69h-4.05V11.38H374v4.69h-4.69V26H374v4.7h4.7V35.4h4.64V40h5.24V35.4h4.66V30.71h4.69V26h4.7V16.07Zm-.54,9.4h-4.7v4.69h-4.7v4.6h-4.05v-4.6H379.2V25.47h-4.7V16.62h8.85v4.7h5.24v-4.7h8.75Z"/><rect class="cls-7" x="23.03" y="98.87" width="129.86" height="139.35"/><rect class="cls-8" x="17.31" y="88.64" width="129.86" height="143.94"/><image width="111" height="111" transform="translate(23.1 94.3) scale(1.07)" xlink:href="Y:%5Chse%5Ckkomp%5C%D1%88%D1%80%D0%B5%D1%84%D1%82%5Cqr%5Cbarcode%20(2).png"/><path d="M28.59,221.65v-4.76h2.3v8.29H28.68v-1.51h-.09a2.33,2.33,0,0,1-.93,1.17,2.7,2.7,0,0,1-1.58.45,2.85,2.85,0,0,1-1.47-.38,2.61,2.61,0,0,1-1-1.07,3.61,3.61,0,0,1-.36-1.67v-5.28h2.3v4.87a1.71,1.71,0,0,0,.39,1.16,1.36,1.36,0,0,0,1.05.42,1.6,1.6,0,0,0,.77-.19,1.47,1.47,0,0,0,.59-.57A1.78,1.78,0,0,0,28.59,221.65Z"/><path d="M39.62,219.25l-2.1.13a1.18,1.18,0,0,0-.24-.49,1.28,1.28,0,0,0-.46-.35,1.63,1.63,0,0,0-.69-.13,1.67,1.67,0,0,0-.9.22.67.67,0,0,0-.37.6.62.62,0,0,0,.24.5,1.82,1.82,0,0,0,.81.33l1.5.3a3.86,3.86,0,0,1,1.81.8,1.91,1.91,0,0,1,.59,1.45,2.26,2.26,0,0,1-.48,1.43,3.14,3.14,0,0,1-1.3,1,5,5,0,0,1-1.91.34,4.45,4.45,0,0,1-2.62-.69,2.65,2.65,0,0,1-1.14-1.87l2.26-.12a1.15,1.15,0,0,0,.49.76,2.14,2.14,0,0,0,2,0,.72.72,0,0,0,.37-.61.62.62,0,0,0-.26-.51,1.83,1.83,0,0,0-.8-.31L35,221.73a3.37,3.37,0,0,1-1.8-.84,2.06,2.06,0,0,1-.59-1.53A2.24,2.24,0,0,1,33,218a2.81,2.81,0,0,1,1.23-.89,4.94,4.94,0,0,1,1.85-.31,4.15,4.15,0,0,1,2.48.66A2.59,2.59,0,0,1,39.62,219.25Z"/><path d="M41.31,225.18V214.12h2.3v4.16h.07a2.79,2.79,0,0,1,.44-.68,2.37,2.37,0,0,1,.75-.59,2.66,2.66,0,0,1,1.16-.23,3.18,3.18,0,0,1,1.68.47,3.3,3.3,0,0,1,1.22,1.42,5.35,5.35,0,0,1,.46,2.37,5.58,5.58,0,0,1-.44,2.34,3.37,3.37,0,0,1-1.21,1.45,3.15,3.15,0,0,1-1.71.48,2.61,2.61,0,0,1-1.14-.22,2.18,2.18,0,0,1-.76-.56,2.5,2.5,0,0,1-.45-.68h-.11v1.33ZM43.56,221a3.8,3.8,0,0,0,.2,1.29,1.91,1.91,0,0,0,.6.86,1.47,1.47,0,0,0,.94.3,1.45,1.45,0,0,0,1-.31,1.82,1.82,0,0,0,.59-.86A3.59,3.59,0,0,0,47,221a3.47,3.47,0,0,0-.2-1.26,1.82,1.82,0,0,0-.58-.85,1.48,1.48,0,0,0-1-.31,1.52,1.52,0,0,0-.95.3,1.9,1.9,0,0,0-.59.84A3.78,3.78,0,0,0,43.56,221Z"/><path d="M56.09,219.73v1.82H51v-1.82Z"/><path d="M58.05,228.29v-11.4h2.26v1.39h.1a3.19,3.19,0,0,1,.45-.68,2.37,2.37,0,0,1,.75-.59,2.66,2.66,0,0,1,1.16-.23,3.18,3.18,0,0,1,1.68.47,3.3,3.3,0,0,1,1.22,1.42,5.35,5.35,0,0,1,.46,2.37,5.58,5.58,0,0,1-.44,2.34,3.37,3.37,0,0,1-1.21,1.45,3.15,3.15,0,0,1-1.71.48,2.61,2.61,0,0,1-1.14-.22,2.18,2.18,0,0,1-.76-.56,2.81,2.81,0,0,1-.46-.68h-.06v4.44ZM60.3,221a3.57,3.57,0,0,0,.2,1.29,1.91,1.91,0,0,0,.6.86,1.62,1.62,0,0,0,1.89,0,1.82,1.82,0,0,0,.59-.86,3.59,3.59,0,0,0,.2-1.28,3.47,3.47,0,0,0-.2-1.26,1.9,1.9,0,0,0-.58-.85,1.48,1.48,0,0,0-1-.31,1.52,1.52,0,0,0-.95.3,1.9,1.9,0,0,0-.59.84A3.55,3.55,0,0,0,60.3,221Z"/><path d="M70,220.39v4.79h-2.3V214.12h2.23v4.23H70a2.37,2.37,0,0,1,.91-1.15,2.76,2.76,0,0,1,1.57-.42,2.94,2.94,0,0,1,1.51.37,2.55,2.55,0,0,1,1,1.08,3.61,3.61,0,0,1,.36,1.67v5.28H73v-4.87a1.69,1.69,0,0,0-.39-1.19,1.38,1.38,0,0,0-1.09-.43,1.7,1.7,0,0,0-.83.2,1.36,1.36,0,0,0-.56.58A1.87,1.87,0,0,0,70,220.39Z"/><path d="M79.51,225.34a3.51,3.51,0,0,1-1.41-.28,2.27,2.27,0,0,1-1-.83,2.76,2.76,0,0,1-.1-2.53,1.91,1.91,0,0,1,.69-.75,3.16,3.16,0,0,1,1-.43,7.26,7.26,0,0,1,1.18-.21l1.16-.14a1.63,1.63,0,0,0,.64-.21.43.43,0,0,0,.2-.39v0a1,1,0,0,0-.32-.79,1.31,1.31,0,0,0-.91-.28,1.61,1.61,0,0,0-1,.27,1.26,1.26,0,0,0-.49.68l-2.13-.17a2.93,2.93,0,0,1,.64-1.31,3.12,3.12,0,0,1,1.23-.85,4.66,4.66,0,0,1,1.74-.3,5.27,5.27,0,0,1,1.33.16,3.74,3.74,0,0,1,1.13.5,2.45,2.45,0,0,1,.78.88,2.62,2.62,0,0,1,.28,1.27v5.59H82V224h-.06a2.23,2.23,0,0,1-.54.68,2.33,2.33,0,0,1-.8.46A3.28,3.28,0,0,1,79.51,225.34Zm.66-1.59a2,2,0,0,0,.9-.2,1.63,1.63,0,0,0,.61-.55,1.39,1.39,0,0,0,.22-.78v-.88a1.7,1.7,0,0,1-.29.12l-.42.11-.47.08-.42.06a2.64,2.64,0,0,0-.7.19,1,1,0,0,0-.47.35.8.8,0,0,0-.17.54.81.81,0,0,0,.34.71A1.42,1.42,0,0,0,80.17,223.75Z"/><path d="M86,225.18v-8.29H88.2v1.44h.09a2.1,2.1,0,0,1,.76-1.16,2,2,0,0,1,1.23-.4l.37,0a1.7,1.7,0,0,1,.35.06v2l-.45-.09-.52,0a1.77,1.77,0,0,0-.9.22,1.52,1.52,0,0,0-.63.6,1.77,1.77,0,0,0-.23.9v4.69Z"/><path d="M92.18,225.18v-8.29h2.19v1.46h.1a2.24,2.24,0,0,1,.87-1.15,2.7,2.7,0,0,1,2.89,0,2,2,0,0,1,.8,1.15h.09a2.23,2.23,0,0,1,.92-1.14,2.81,2.81,0,0,1,1.58-.43,2.56,2.56,0,0,1,1.89.74,2.84,2.84,0,0,1,.72,2.08v5.58h-2.29v-5.12a1.35,1.35,0,0,0-.37-1,1.28,1.28,0,0,0-.92-.35,1.24,1.24,0,0,0-1,.4,1.5,1.5,0,0,0-.36,1.05v5.06H97.1V220a1.34,1.34,0,0,0-.35-1,1.23,1.23,0,0,0-.92-.37,1.29,1.29,0,0,0-.69.2,1.3,1.3,0,0,0-.48.53,1.71,1.71,0,0,0-.18.8v5Z"/><path d="M107.39,225.32a1.31,1.31,0,0,1-1.3-1.3,1.2,1.2,0,0,1,.39-.9,1.24,1.24,0,0,1,.91-.38,1.27,1.27,0,0,1,.91.38,1.25,1.25,0,0,1,.21,1.55,1.35,1.35,0,0,1-.48.47A1.19,1.19,0,0,1,107.39,225.32Z"/><path d="M114.32,225.34a4.23,4.23,0,0,1-2.19-.54,3.67,3.67,0,0,1-1.41-1.51,4.93,4.93,0,0,1-.48-2.22,4.83,4.83,0,0,1,.49-2.24,3.67,3.67,0,0,1,1.41-1.51,4.16,4.16,0,0,1,2.17-.54,4.39,4.39,0,0,1,1.9.39A3.13,3.13,0,0,1,118,220h-2.17a1.72,1.72,0,0,0-.48-1,1.44,1.44,0,0,0-1-.38,1.58,1.58,0,0,0-.93.29,1.89,1.89,0,0,0-.62.84,3.74,3.74,0,0,0-.22,1.33,3.81,3.81,0,0,0,.22,1.35,1.85,1.85,0,0,0,.62.85,1.58,1.58,0,0,0,.93.29,1.44,1.44,0,0,0,1.24-.63,1.77,1.77,0,0,0,.27-.75H118a3.43,3.43,0,0,1-.52,1.67,3.1,3.1,0,0,1-1.27,1.13A4.23,4.23,0,0,1,114.32,225.34Z"/><path d="M123.24,225.34a4.21,4.21,0,0,1-2.17-.54,3.53,3.53,0,0,1-1.41-1.5,4.79,4.79,0,0,1-.5-2.23,4.85,4.85,0,0,1,.5-2.25,3.53,3.53,0,0,1,1.41-1.5,4.65,4.65,0,0,1,4.35,0,3.53,3.53,0,0,1,1.41,1.5,4.85,4.85,0,0,1,.5,2.25,4.79,4.79,0,0,1-.5,2.23,3.53,3.53,0,0,1-1.41,1.5A4.22,4.22,0,0,1,123.24,225.34Zm0-1.78a1.39,1.39,0,0,0,.95-.33,1.9,1.9,0,0,0,.58-.89,4.26,4.26,0,0,0,0-2.58,2,2,0,0,0-.58-.9,1.39,1.39,0,0,0-.95-.33,1.44,1.44,0,0,0-1,.33,2,2,0,0,0-.59.9,4.26,4.26,0,0,0,0,2.58,1.91,1.91,0,0,0,.59.89A1.44,1.44,0,0,0,123.26,223.56Z"/><path d="M128.83,225.18v-8.29H131v1.46h.09a2.35,2.35,0,0,1,.87-1.15,2.71,2.71,0,0,1,2.9,0,2.09,2.09,0,0,1,.8,1.15h.08a2.23,2.23,0,0,1,.92-1.14,2.83,2.83,0,0,1,1.58-.43,2.53,2.53,0,0,1,1.89.74,2.85,2.85,0,0,1,.73,2.08v5.58h-2.3v-5.12a1.35,1.35,0,0,0-.37-1,1.28,1.28,0,0,0-.91-.35,1.25,1.25,0,0,0-1,.4,1.55,1.55,0,0,0-.35,1.05v5.06h-2.23V220a1.34,1.34,0,0,0-.35-1,1.22,1.22,0,0,0-.91-.37,1.24,1.24,0,0,0-.69.2,1.26,1.26,0,0,0-.49.53,1.85,1.85,0,0,0-.17.8v5Z"/><rect class="cls-9" x="170.77" y="69.81" width="224.99" height="118.74"/><rect class="cls-10" x="166.78" y="65.38" width="224.99" height="118.74"/><rect class="cls-11" x="166.78" y="64.81" width="224.99" height="26.33"/><rect class="cls-12" x="181.82" y="78.09" width="188.58" height="1.27"/><rect class="cls-13" x="299.43" y="680.16" width="94.6" height="187.73" rx="31.95"/><path class="cls-14" d="M320.33,739.34v3.16h3.28v3.26h3.29V749h3.28v3.26h3.29v3.27h26v-3.27h3.29V749h3.28v-3.27h3.29V742.5h3.29v-3.16h3.2V713.16h-3.12v-3.27h-3.29v-3.26h-3.28v-3.27h-3.29V700.1H359.6v-3.27H333.55v3.27h-3.29v3.26H327v3.27h-3.29v3.26h-3.36v3.27h-3.21v26.18Zm34.39,4.73h-3.13v3.16h-9.44v-3.16H339v-3.15h3.14v-3.13h9.44v3.13h3.13Zm-18.84-37.74h22v9.44h-3.13v9.43h-3.13v9.45h-9.44V725.2H339v-9.43h-3.13Z"/><polygon class="cls-15" points="317.12 713.16 313.84 713.16 313.84 713.97 313.84 739.34 317.12 739.34 317.12 713.16"/><rect class="cls-15" x="333.55" y="693.57" width="26.05" height="3.26"/><polygon class="cls-12" points="351.59 737.78 342.15 737.78 342.15 740.92 339.01 740.92 339.01 744.07 342.15 744.07 342.15 747.23 351.59 747.23 351.59 744.07 354.72 744.07 354.72 740.92 351.59 740.92 351.59 737.78"/><polygon class="cls-12" points="339.01 725.2 342.15 725.2 342.15 734.65 351.59 734.65 351.59 725.2 354.72 725.2 354.72 715.77 357.86 715.77 357.86 706.33 335.88 706.33 335.88 715.77 339.01 715.77 339.01 725.2"/><polygon class="cls-15" points="333.55 696.84 333.53 696.84 330.26 696.84 330.26 700.1 333.55 700.1 333.55 696.84"/><rect class="cls-15" x="326.98" y="700.1" width="3.29" height="3.26"/><rect class="cls-15" x="323.69" y="703.36" width="3.29" height="3.26"/><rect class="cls-15" x="320.33" y="706.63" width="3.37" height="3.26"/><rect class="cls-15" x="317.12" y="709.89" width="3.2" height="3.26"/><rect class="cls-15" x="359.6" y="696.83" width="3.29" height="3.26"/><rect class="cls-15" x="362.89" y="700.1" width="3.29" height="3.26"/><rect class="cls-15" x="366.18" y="703.36" width="3.29" height="3.26"/><rect class="cls-15" x="369.46" y="706.63" width="3.29" height="3.26"/><rect class="cls-15" x="333.47" y="755.56" width="26.05" height="3.24"/><polygon class="cls-15" points="330.18 752.29 330.18 755.56 333.45 755.56 333.47 755.56 333.47 752.29 330.18 752.29"/><rect class="cls-15" x="326.9" y="749.03" width="3.29" height="3.26"/><rect class="cls-15" x="323.61" y="745.76" width="3.29" height="3.26"/><rect class="cls-15" x="320.33" y="742.5" width="3.29" height="3.26"/><rect class="cls-15" x="317.12" y="739.34" width="3.2" height="3.16"/><rect class="cls-15" x="375.87" y="713.16" width="3.29" height="26.18"/><path class="cls-12" d="M379.32,709.89v-3.26H376v-3.27h-3.28V700.1h-3.29v-3.27h-3.28v-3.26h-3.31v-3.29H330.26v3.29H327v3.26h-3.29v3.27h-3.28v3.26h-3.29v3.27h-3.28v3.26h-3.29V742.5h3.2v3.26H317V749h3.29v3.26h3.28v3.27h3.29v3.26h3.36v3.27h32.61v-3.27h3.22v-3.26h3.29v-3.27h3.29V749H376v-3.27h3.29V742.5h3.2V709.89ZM313.84,714v-.81h3.28v-3.27h3.21v-3.26h3.36v-3.27H327V700.1h3.28v-3.27h3.29v-3.26H359.6v3.26h3.29v3.27h3.29v3.26h3.28v3.27h3.29v3.26h3.12v3.27h3.29v26.18h-3.29v3.16h-3.2v3.26h-3.29V749h-3.29v3.26h-3.28v3.27h-3.29v3.24h-26v-3.24h-3.29v-3.27H326.9V749h-3.29v-3.27h-3.28V742.5h-3.21v-3.16h-3.28Z"/><rect class="cls-15" x="372.75" y="709.89" width="3.12" height="3.26"/><rect class="cls-15" x="372.67" y="739.34" width="3.2" height="3.16"/><rect class="cls-15" x="359.52" y="752.29" width="3.29" height="3.26"/><rect class="cls-15" x="362.81" y="749.03" width="3.29" height="3.26"/><rect class="cls-15" x="366.09" y="745.76" width="3.29" height="3.26"/><rect class="cls-15" x="369.38" y="742.5" width="3.29" height="3.26"/><path class="cls-16" d="M369.71,828.61h-3.18v-6.35h-3.19v-6.35h-3.18v-6.35H357v-6.35H353.8v-6.35h-3.18v-6.35h-5.79v6.35h-3.18v6.35h-3.18v6.35h-3.18v6.35h-3.18v6.35h-3.18v6.35h-3.18V835h-3.18v6.35h50.32V835h-3.18Zm-15.86,8h-2.33V839h-7v-2.35h-2.32v-2.34h2.32V832h7v2.33h2.33Zm2.33-21h-2.33v7h-2.33v7h-7v-7h-2.32v-7h-2.33v-7h16.33Z"/><polygon class="cls-17" points="344.83 790.51 347.44 790.51 347.72 790.51 350.62 790.51 350.62 784.16 348.01 784.16 347.72 784.16 347.44 784.16 344.83 784.16 344.83 790.51"/><rect class="cls-17" x="341.65" y="790.51" width="3.18" height="6.35"/><rect class="cls-17" x="338.47" y="796.86" width="3.18" height="6.35"/><rect class="cls-17" x="335.29" y="803.21" width="3.18" height="6.35"/><rect class="cls-17" x="332.11" y="809.56" width="3.18" height="6.35"/><rect class="cls-17" x="328.93" y="815.91" width="3.18" height="6.35"/><rect class="cls-17" x="325.75" y="822.26" width="3.18" height="6.35"/><rect class="cls-17" x="322.57" y="828.61" width="3.18" height="6.35"/><polygon class="cls-17" points="316.2 844.47 379.23 844.47 379.23 841.3 376.07 841.3 376.07 834.95 372.89 834.95 372.89 841.3 322.57 841.3 322.57 834.95 319.39 834.95 319.39 841.3 316.2 841.3 316.2 844.47"/><rect class="cls-17" x="350.62" y="790.51" width="3.18" height="6.35"/><rect class="cls-17" x="353.8" y="796.86" width="3.18" height="6.35"/><rect class="cls-17" x="356.98" y="803.21" width="3.18" height="6.35"/><rect class="cls-17" x="360.16" y="809.56" width="3.18" height="6.35"/><rect class="cls-17" x="363.34" y="815.91" width="3.18" height="6.35"/><rect class="cls-17" x="366.53" y="822.26" width="3.18" height="6.35"/><rect class="cls-17" x="369.71" y="828.61" width="3.18" height="6.35"/><polygon class="cls-12" points="351.52 831.96 344.5 831.96 344.5 834.29 342.18 834.29 342.18 836.63 344.5 836.63 344.5 838.98 351.52 838.98 351.52 836.63 353.85 836.63 353.85 834.29 351.52 834.29 351.52 831.96"/><polygon class="cls-12" points="339.85 815.59 342.18 815.59 342.18 822.6 344.5 822.6 344.5 829.63 351.52 829.63 351.52 822.6 353.85 822.6 353.85 815.59 356.18 815.59 356.18 808.58 339.85 808.58 339.85 815.59"/><rect class="cls-12" x="316.2" y="834.95" width="3.18" height="6.35"/><rect class="cls-12" x="319.39" y="828.61" width="3.18" height="6.35"/><rect class="cls-12" x="322.57" y="822.26" width="3.18" height="6.35"/><rect class="cls-12" x="325.75" y="815.91" width="3.18" height="6.35"/><rect class="cls-12" x="328.93" y="809.56" width="3.18" height="6.35"/><rect class="cls-12" x="332.11" y="803.21" width="3.18" height="6.35"/><rect class="cls-12" x="335.29" y="796.86" width="3.18" height="6.35"/><rect class="cls-12" x="338.47" y="790.51" width="3.18" height="6.35"/><rect class="cls-12" x="341.65" y="784.16" width="3.18" height="6.35"/><polygon class="cls-12" points="347.44 784.16 347.72 784.16 348.01 784.16 350.62 784.16 350.62 777.81 348.01 777.81 347.44 777.81 344.83 777.81 344.83 784.16 347.44 784.16"/><rect class="cls-12" x="372.89" y="828.61" width="3.18" height="6.35"/><rect class="cls-12" x="369.71" y="822.26" width="3.18" height="6.35"/><rect class="cls-12" x="366.53" y="815.91" width="3.18" height="6.35"/><rect class="cls-12" x="363.34" y="809.56" width="3.18" height="6.35"/><rect class="cls-12" x="360.16" y="803.21" width="3.18" height="6.35"/><rect class="cls-12" x="356.98" y="796.86" width="3.18" height="6.35"/><rect class="cls-12" x="353.8" y="790.51" width="3.18" height="6.35"/><rect class="cls-12" x="350.62" y="784.16" width="3.18" height="6.35"/><polygon class="cls-12" points="379.25 841.3 379.25 834.95 376.07 834.95 376.07 841.3 379.23 841.3 379.23 844.47 316.2 844.47 316.2 841.3 313.02 841.3 313.02 844.47 313.02 847.65 316.2 847.65 379.23 847.65 382.41 847.65 382.41 844.47 382.41 841.3 379.25 841.3"/><text class="cls-18" transform="translate(278.39 135.62)">ЮЗБ</text><g class="cls-19"><text class="cls-20" transform="translate(278.39 163.43)">Ф</text><text class="cls-18" transform="translate(309.05 163.43)">АРМ</text></g><rect class="cls-21" x="242.81" y="111.84" width="31.82" height="49.33"/><path d="M217.25,175.63c-56.28,0-56.83-76.72-.56-76.72h21.9c3.59.27,3.92-.19,4.59,1.46a12.52,12.52,0,0,1,.95,4.88v5.42h30.43v52.67H244.14v4.87a17.15,17.15,0,0,1-1.07,6c-.36,1-.76,1-3.11,1.26a15.11,15.11,0,0,1-2,.11Zm26.92-62.16,0,22h28.22l.05-22Zm0,25.06v22.62l28.27-.13-.05-22.5Z"/><rect x="256.32" y="119.55" width="9.65" height="9.65"/><rect class="cls-22" x="258.45" y="121.68" width="5.41" height="5.6"/><rect x="256.32" y="144.94" width="9.65" height="9.65"/><rect class="cls-22" x="258.45" y="147.06" width="5.41" height="5.6"/><polygon class="cls-23" points="231.07 126.29 231.07 122.51 226.82 122.51 226.82 118.72 218.33 118.72 218.33 122.51 214.09 122.51 214.09 126.29 209.84 126.29 209.84 122.51 205.59 122.51 205.59 118.72 197.1 118.72 197.1 122.51 192.85 122.51 192.85 126.29 188.61 126.29 188.61 137.64 192.85 137.64 192.85 141.43 197.1 141.43 197.1 145.21 201.34 145.21 201.34 149 205.59 149 205.59 152.78 209.84 152.78 209.84 156.57 214.09 156.57 214.09 152.78 218.33 152.78 218.33 149 222.58 149 222.58 145.21 226.82 145.21 226.82 141.43 231.07 141.43 231.07 137.64 235.32 137.64 235.32 126.29 231.07 126.29"/><rect class="cls-24" x="21.45" y="262.1" width="375.89" height="357.16"/><rect class="cls-25" x="17.68" y="258.39" width="374.97" height="356.29"/><rect class="cls-26" x="17.68" y="257.88" width="374.97" height="23.31"/><text class="cls-27" transform="translate(178.42 278.91) scale(1 0.89)">юзбфарм</text><rect class="cls-28" x="38.82" y="558.64" width="338.77" height="35.66" rx="4.9"/><path class="cls-29" d="M44.48,558.64h70.21V594.3H44.48a4.9,4.9,0,0,1-4.9-4.9h0V563.54a4.9,4.9,0,0,1,4.9-4.9Z"/><rect class="cls-28" x="36.37" y="560.83" width="338.77" height="35.66" rx="4.9"/><path class="cls-30" d="M40.84,561.26h70.21v35.66H40.84a4.9,4.9,0,0,1-4.9-4.9h0V566.16a4.9,4.9,0,0,1,4.9-4.9Z"/><rect class="cls-28" x="33.48" y="563.18" width="338.77" height="35.66" rx="4.9"/><path class="cls-31" d="M37.57,563.36H107v35.23H37.57a4.84,4.84,0,0,1-4.84-4.84h0V568.2A4.84,4.84,0,0,1,37.57,563.36Z"/><path d="M78.94,593l-6.69-8.64a9.46,9.46,0,1,0-1.29,1L77.65,594a.82.82,0,0,0,1.29-1Zm-14.09-7.84a7.81,7.81,0,1,1,8.74-6.77A7.8,7.8,0,0,1,64.85,585.12Z"/><text class="cls-32" transform="translate(113.18 594.92) scale(1 0.89)">КАК УБИТЬ ВИРУС?</text><rect class="cls-33" x="91.69" y="301.57" width="239.32" height="239.32" rx="15.5"/><rect class="cls-34" x="87.78" y="297.67" width="239.32" height="239.32" rx="15.5"/><rect class="cls-35" x="173.43" y="381.21" width="71.58" height="76.36"/><polygon class="cls-22" points="248.2 457.57 247.4 457.57 246.61 457.57 245.01 457.57 245.01 470.3 246.61 470.3 247.4 470.3 248.2 470.3 249 470.3 249.79 470.3 249.79 457.57 249 457.57 248.2 457.57"/><polygon class="cls-22" points="146.38 393.93 145.59 393.93 144.79 393.93 143.19 393.93 143.19 406.66 144.79 406.66 145.59 406.66 146.38 406.66 147.18 406.66 147.98 406.66 147.98 393.93 147.18 393.93 146.38 393.93"/><polygon class="cls-22" points="133.65 406.66 132.86 406.66 132.06 406.66 130.46 406.66 130.46 419.39 132.06 419.39 132.86 419.39 133.65 419.39 134.45 419.39 135.25 419.39 135.25 406.66 134.45 406.66 133.65 406.66"/><polygon class="cls-22" points="159.11 457.57 158.31 457.57 157.51 457.57 155.92 457.57 155.92 470.3 157.51 470.3 158.31 470.3 159.11 470.3 159.91 470.3 160.7 470.3 160.7 457.57 159.91 457.57 159.11 457.57"/><polygon class="cls-22" points="146.38 470.3 145.59 470.3 144.79 470.3 143.19 470.3 143.19 483.02 144.79 483.02 145.59 483.02 146.38 483.02 147.18 483.02 147.98 483.02 147.98 470.3 147.18 470.3 146.38 470.3"/><polygon class="cls-22" points="260.93 393.93 260.13 393.93 259.33 393.93 257.74 393.93 257.74 457.57 259.33 457.57 260.13 457.57 260.93 457.57 261.72 457.57 262.52 457.57 262.52 393.93 261.72 393.93 260.93 393.93"/><polygon class="cls-22" points="171.04 457.57 171.84 457.57 172.63 457.57 173.43 457.57 173.43 381.21 172.63 381.21 171.84 381.21 171.04 381.21 170.24 381.21 168.65 381.21 168.65 457.57 170.24 457.57 171.04 457.57"/><polygon class="cls-22" points="272.86 393.93 273.66 393.93 274.45 393.93 275.25 393.93 275.25 381.21 274.45 381.21 273.66 381.21 272.86 381.21 272.06 381.21 270.46 381.21 270.46 393.93 272.06 393.93 272.86 393.93"/><polygon class="cls-22" points="285.58 406.66 286.38 406.66 287.18 406.66 287.98 406.66 287.98 393.93 287.18 393.93 286.38 393.93 285.58 393.93 284.79 393.93 283.19 393.93 283.19 406.66 284.79 406.66 285.58 406.66"/><polygon class="cls-22" points="171.04 355.75 171.84 355.75 172.63 355.75 173.43 355.75 173.43 343.02 172.63 343.02 171.84 343.02 171.04 343.02 170.24 343.02 168.65 343.02 168.65 355.75 170.24 355.75 171.04 355.75"/><polygon class="cls-22" points="272.06 470.3 272.86 470.3 273.66 470.3 274.45 470.3 275.25 470.3 275.25 457.57 274.45 457.57 273.66 457.57 272.86 457.57 272.06 457.57 270.46 457.57 270.46 470.3 272.06 470.3"/><polygon class="cls-22" points="284.79 483.02 285.58 483.02 286.38 483.02 287.18 483.02 287.98 483.02 287.98 470.3 287.18 470.3 286.38 470.3 285.58 470.3 284.79 470.3 283.19 470.3 283.19 483.02 284.79 483.02"/><polygon class="cls-22" points="297.51 419.39 298.31 419.39 299.11 419.39 299.91 419.39 300.71 419.39 300.71 406.66 299.91 406.66 299.11 406.66 298.31 406.66 297.51 406.66 295.92 406.66 295.92 419.39 297.51 419.39"/><polygon class="cls-22" points="246.61 381.21 247.4 381.21 248.2 381.21 249 381.21 249.79 381.21 249.79 355.75 249 355.75 248.2 355.75 247.4 355.75 246.61 355.75 245.01 355.75 245.01 381.21 246.61 381.21"/><polygon class="cls-22" points="182.97 368.48 183.77 368.48 184.56 368.48 185.36 368.48 186.16 368.48 186.16 355.75 185.36 355.75 184.56 355.75 183.77 355.75 182.97 355.75 181.37 355.75 181.37 368.48 182.97 368.48"/><polygon class="cls-22" points="272.06 355.75 272.86 355.75 273.66 355.75 274.45 355.75 275.25 355.75 275.25 343.02 274.45 343.02 273.66 343.02 272.86 343.02 272.06 343.02 270.46 343.02 270.46 355.75 272.06 355.75"/><polygon class="cls-36" points="173.43 457.57 172.63 457.57 171.84 457.57 171.04 457.57 170.24 457.57 168.65 457.57 168.65 470.3 170.24 470.3 171.04 470.3 171.84 470.3 172.63 470.3 173.43 470.3 245.01 470.3 245.01 457.57 173.43 457.57"/><polygon class="cls-36" points="147.98 381.21 147.18 381.21 146.38 381.21 145.59 381.21 144.79 381.21 143.19 381.21 143.19 393.93 144.79 393.93 145.59 393.93 146.38 393.93 147.18 393.93 147.98 393.93 155.92 393.93 155.92 457.57 157.51 457.57 158.31 457.57 159.11 457.57 159.91 457.57 160.7 457.57 168.65 457.57 168.65 381.21 147.98 381.21"/><polygon class="cls-36" points="135.25 393.93 134.45 393.93 133.65 393.93 132.86 393.93 132.06 393.93 130.46 393.93 130.46 406.66 132.06 406.66 132.86 406.66 133.65 406.66 134.45 406.66 135.25 406.66 143.19 406.66 143.19 393.93 135.25 393.93"/><polygon class="cls-36" points="122.52 406.66 121.72 406.66 120.93 406.66 120.13 406.66 119.33 406.66 117.74 406.66 117.74 419.39 119.33 419.39 120.13 419.39 120.93 419.39 121.72 419.39 122.52 419.39 130.46 419.39 130.46 406.66 122.52 406.66"/><polygon class="cls-36" points="147.98 457.57 147.18 457.57 146.38 457.57 145.59 457.57 144.79 457.57 143.19 457.57 143.19 470.3 144.79 470.3 145.59 470.3 146.38 470.3 147.18 470.3 147.98 470.3 155.92 470.3 155.92 457.57 147.98 457.57"/><polygon class="cls-36" points="135.25 470.3 134.45 470.3 133.65 470.3 132.86 470.3 132.06 470.3 130.46 470.3 130.46 483.02 132.06 483.02 132.86 483.02 133.65 483.02 134.45 483.02 135.25 483.02 143.19 483.02 143.19 470.3 135.25 470.3"/><polygon class="cls-36" points="260.93 457.57 260.13 457.57 259.33 457.57 257.74 457.57 257.74 470.3 259.33 470.3 260.13 470.3 260.93 470.3 261.72 470.3 262.52 470.3 270.46 470.3 270.46 457.57 262.52 457.57 261.72 457.57 260.93 457.57"/><polygon class="cls-36" points="273.66 470.3 272.86 470.3 272.06 470.3 270.46 470.3 270.46 483.02 272.06 483.02 272.86 483.02 273.66 483.02 274.45 483.02 275.25 483.02 283.19 483.02 283.19 470.3 275.25 470.3 274.45 470.3 273.66 470.3"/><polygon class="cls-36" points="249.79 381.21 249 381.21 248.2 381.21 247.4 381.21 246.61 381.21 245.01 381.21 245.01 457.57 246.61 457.57 247.4 457.57 248.2 457.57 249 457.57 249.79 457.57 257.74 457.57 257.74 393.93 259.33 393.93 260.13 393.93 260.93 393.93 261.72 393.93 262.52 393.93 270.46 393.93 270.46 381.21 249.79 381.21"/><polygon class="cls-36" points="275.25 393.93 274.45 393.93 273.66 393.93 272.86 393.93 272.06 393.93 270.46 393.93 270.46 406.66 272.06 406.66 272.86 406.66 273.66 406.66 274.45 406.66 275.25 406.66 283.19 406.66 283.19 393.93 275.25 393.93"/><polygon class="cls-36" points="284.79 419.39 285.58 419.39 286.38 419.39 287.18 419.39 287.98 419.39 295.92 419.39 295.92 406.66 287.98 406.66 287.18 406.66 286.38 406.66 285.58 406.66 284.79 406.66 283.19 406.66 283.19 419.39 284.79 419.39"/><polygon class="cls-36" points="147.98 343.02 147.18 343.02 146.38 343.02 145.59 343.02 144.79 343.02 143.19 343.02 143.19 355.75 144.79 355.75 145.59 355.75 146.38 355.75 147.18 355.75 147.98 355.75 168.65 355.75 168.65 343.02 147.98 343.02"/><polygon class="cls-36" points="171.04 381.21 171.84 381.21 172.63 381.21 173.43 381.21 245.01 381.21 245.01 355.75 237.07 355.75 236.27 355.75 235.47 355.75 234.67 355.75 233.88 355.75 232.28 355.75 232.28 368.48 186.16 368.48 185.36 368.48 184.56 368.48 183.77 368.48 182.97 368.48 181.37 368.48 181.37 355.75 173.43 355.75 172.63 355.75 171.84 355.75 171.04 355.75 170.24 355.75 168.65 355.75 168.65 381.21 170.24 381.21 171.04 381.21"/><polygon class="cls-36" points="247.4 355.75 248.2 355.75 249 355.75 249.79 355.75 270.46 355.75 270.46 343.02 249.79 343.02 249 343.02 248.2 343.02 247.4 343.02 246.61 343.02 245.01 343.02 245.01 355.75 246.61 355.75 247.4 355.75"/><rect class="cls-24" x="49.52" y="648.84" width="271.22" height="167.4"/><rect class="cls-25" x="46.79" y="646.26" width="270.55" height="166.99"/><rect class="cls-37" x="46.79" y="645.9" width="270.55" height="16.82"/><circle class="cls-38" cx="55.28" cy="654.31" r="4.31"/><circle class="cls-39" cx="66.25" cy="654.31" r="4.31"/><circle class="cls-40" cx="77.34" cy="654.31" r="4.31"/><text class="cls-41" transform="translate(162.77 661.07) scale(1 0.89)">юзбфарм</text><polygon class="cls-42" points="311.4 650.69 308.7 650.69 308.7 651.97 307.59 651.97 307.59 650.69 304.88 650.69 304.88 651.97 303.61 651.97 303.61 654.68 304.88 654.68 304.88 655.96 306.16 655.96 306.16 657.24 307.43 657.24 307.43 658.49 308.86 658.49 308.86 657.24 310.12 657.24 310.12 655.96 311.4 655.96 311.4 654.68 312.68 654.68 312.68 651.97 311.4 651.97 311.4 650.69"/><rect class="cls-28" x="62.4" y="770.62" width="244.44" height="25.73" rx="3.54"/><path class="cls-29" d="M66.48,770.62h50.66v25.73H66.48A3.53,3.53,0,0,1,63,792.81h0V774.16a3.53,3.53,0,0,1,3.53-3.54Z"/><rect class="cls-28" x="60.63" y="772.2" width="244.44" height="25.73" rx="3.54"/><path class="cls-30" d="M63.85,772.51h50.67v25.73H63.85a3.53,3.53,0,0,1-3.53-3.54h0V776.05a3.53,3.53,0,0,1,3.53-3.54Z"/><rect class="cls-28" x="58.55" y="773.9" width="244.44" height="25.73" rx="3.54"/><path class="cls-31" d="M61.5,774h50.06v25.43H61.5A3.5,3.5,0,0,1,58,796h0V777.52A3.5,3.5,0,0,1,61.5,774Z"/><path d="M91.35,795.39l-4.83-6.24a6.84,6.84,0,1,0-.93.72l4.83,6.24a.6.6,0,0,0,.83.06A.59.59,0,0,0,91.35,795.39Zm-10.17-5.66a5.63,5.63,0,1,1,6.3-4.89A5.64,5.64,0,0,1,81.18,789.73Z"/><text class="cls-43" transform="translate(116.05 796.8) scale(1 0.89)">КАК ОЖИВИТЬ ПК?</text><rect class="cls-23" x="61.98" y="676.25" width="246.86" height="76.73" rx="11.44"/><rect class="cls-34" x="57.45" y="673.42" width="246.86" height="76.73" rx="11.44"/><polygon class="cls-44" points="131.75 688.66 114.73 688.66 114.73 696.7 107.79 696.7 107.79 688.66 90.76 688.66 90.76 696.7 82.71 696.7 82.71 713.73 90.76 713.73 90.76 721.77 98.81 721.77 98.81 729.82 106.75 729.82 106.75 737.7 115.73 737.7 115.73 729.82 123.71 729.82 123.71 721.77 131.75 721.77 131.75 713.73 139.8 713.73 139.8 696.7 131.75 696.7 131.75 688.66"/><polygon class="cls-44" points="204.98 688.66 187.95 688.66 187.95 696.7 181.01 696.7 181.01 688.66 163.99 688.66 163.99 696.7 155.94 696.7 155.94 713.73 163.99 713.73 163.99 721.77 172.03 721.77 172.03 729.82 179.98 729.82 179.98 737.7 188.96 737.7 188.96 729.82 196.93 729.82 196.93 721.77 204.98 721.77 204.98 713.73 213.03 713.73 213.03 696.7 204.98 696.7 204.98 688.66"/><path class="cls-44" d="M278.21,696.7v-8h-17v8h-6.94v-8h-17v8h-8.05v17h8.05v8h8v8.05h8v7.88h9v-7.88h8v-8.05h8v-8h8.05v-17Zm-.93,16.1h-8v8h-8.05v7.88h-6.94v-7.88h-8.05v-8h-8V697.64H253.3v8.05h9v-8.05h15Z"/></svg>