<svg id="Слой_1" data-name="Слой 1" xmlns="http://www.w3.org/2000/svg" viewBox="0 0 2385.39 2083.97"><defs><style>.cls-1{fill:#fff;}.cls-2{fill:#e5e5e5;}.cls-3{fill:#e5332a;}</style></defs><rect x="810.55" y="1375.58" width="744.5" height="124.08"/><polygon points="562.39 755.09 562.39 879.17 686.47 879.17 686.47 1499.58 810.55 1499.58 810.55 755.09 562.39 755.09"/><rect x="438.3" y="879.17" width="124.08" height="124.08"/><rect x="314.22" y="1003.25" width="124.08" height="124.08"/><rect x="562.39" y="1375.58" width="124.08" height="124.08"/><rect x="438.3" y="1499.66" width="124.08" height="124.08"/><rect x="314.22" y="1623.75" width="124.08" height="124.08"/><rect x="1679.13" y="1375.58" width="124.08" height="124.08"/><rect x="1803.21" y="1499.66" width="124.08" height="124.08"/><rect x="1927.3" y="1623.75" width="124.08" height="124.08"/><polygon points="1803.21 755.09 1555.05 755.09 1555.05 1499.58 1679.13 1499.58 1679.13 879.17 1803.21 879.17 1803.21 755.09"/><rect x="1803.21" y="879.17" width="124.08" height="124.08"/><rect x="1927.3" y="1003.25" width="124.08" height="124.08"/><polygon points="1430.97 382.92 1430.97 507 934.64 507 934.64 382.92 810.55 382.92 810.55 631.09 1555.05 631.09 1555.05 382.92 1430.97 382.92"/><rect x="810.55" y="631.08" width="744.5" height="744.5"/><rect class="cls-1" x="823.37" y="291.83" width="717" height="421"/><path d="M1735.39,1092.41c0,812.47-1105.41,820.5-1105.41,8V789.18c0-1.65.07-3.31.19-5,3.92-51.87-2.73-56.59,21-66.38a184.32,184.32,0,0,1,70.32-13.72h78.34V264.83h758.8V704.12h69.77c29.75,0,59.41,4.87,87.25,15.4,13.76,5.19,14.27,11,18.14,45a257.82,257.82,0,0,1,1.64,29ZM839.8,703.69l317.77.43V296.64l-317.77-.81Zm361,.43h326L1525,295.83l-324.13.83Z"/><rect x="927.38" y="388.74" width="139.1" height="139.4"/><rect class="cls-2" x="957.98" y="419.41" width="80.68" height="78.07"/><rect x="1293.16" y="388.74" width="139.1" height="139.4"/><rect class="cls-2" x="1323.76" y="419.41" width="80.68" height="78.07"/><polygon class="cls-2" points="1467.95 1004.78 1467.95 950.14 1406.77 950.14 1406.77 895.5 1284.42 895.5 1284.42 950.14 1223.25 950.14 1223.25 1004.78 1162.07 1004.78 1162.07 950.14 1100.89 950.14 1100.89 895.5 978.54 895.5 978.54 950.14 917.37 950.14 917.37 1004.78 856.19 1004.78 856.19 1168.7 917.37 1168.7 917.37 1223.34 978.54 1223.34 978.54 1277.97 1039.72 1277.97 1039.72 1332.61 1100.89 1332.61 1100.89 1387.25 1162.07 1387.25 1162.07 1441.89 1223.25 1441.89 1223.25 1387.25 1284.42 1387.25 1284.42 1332.61 1345.6 1332.61 1345.6 1277.97 1406.77 1277.97 1406.77 1223.34 1467.95 1223.34 1467.95 1168.7 1529.13 1168.7 1529.13 1004.78 1467.95 1004.78"/><polygon class="cls-3" points="1445.86 1004.78 1445.86 950.14 1384.68 950.14 1384.68 895.5 1262.33 895.5 1262.33 950.14 1201.15 950.14 1201.15 1004.78 1139.97 1004.78 1139.97 950.14 1078.8 950.14 1078.8 895.5 956.45 895.5 956.45 950.14 895.27 950.14 895.27 1004.78 834.09 1004.78 834.09 1168.7 895.27 1168.7 895.27 1223.34 956.45 1223.34 956.45 1277.97 1017.62 1277.97 1017.62 1332.61 1078.8 1332.61 1078.8 1387.25 1139.97 1387.25 1139.97 1441.89 1201.15 1441.89 1201.15 1387.25 1262.33 1387.25 1262.33 1332.61 1323.5 1332.61 1323.5 1277.97 1384.68 1277.97 1384.68 1223.34 1445.86 1223.34 1445.86 1168.7 1507.03 1168.7 1507.03 1004.78 1445.86 1004.78"/></svg>