<svg id="Слой_1" data-name="Слой 1" xmlns="http://www.w3.org/2000/svg" viewBox="0 0 331.25 349.67"><defs><style>.cls-1{fill:none;}.cls-2{fill:#1d1d1b;}</style></defs><polygon class="cls-1" points="236.05 215.94 217.3 215.94 217.3 205.14 206.39 205.14 206.39 195.76 197.01 195.76 197.01 186.39 187.63 186.39 187.63 177.01 178.26 177.01 178.26 167.63 168.88 167.63 168.88 158.25 159.5 158.25 159.5 148.88 150.13 148.88 150.13 139.5 140.75 139.5 140.75 130.12 129.89 130.12 129.89 148.88 120.51 148.88 120.51 187.82 129.96 187.82 129.96 206.57 139.27 206.57 139.27 215.94 148.69 215.94 148.69 225.3 168.93 225.3 168.93 234.67 206.4 234.67 206.4 225.3 226.69 225.3 226.69 215.94 236.05 215.94 236.05 215.94"/><path class="cls-2" d="M273.57,139.45h-9.36V120.68h-9.4V109.77h-9.35v-9.36H236.1V91.05H215.79V81.63H159.57V91H139.28v9.36H129.9v9.36h39v-9.36H208v9.42h18.78v9.36h9.36v9.36h9.39v20.3h9.36V186.3H245.5v20.27h-9.45v-9.38h-10.9v-10.8h-9.38V177h-9.38v-9.38H197v-9.38h-9.37v-9.37h-9.38V139.5h-9.38v-9.38H159.5v-9.38h-9.37v-11H120.58v11h-9.45v18.71h-9.38v56.18h9.45v18.79h10.89v9.33h9.42v9.37h9.32v10.93h18.74v9.37h56.2v-9.37H234.5V233.12h9.37v-9.37h9.36V214.3h11V195.66h9.37ZM226.69,225.3H206.4v9.37H168.93V225.3H148.69v-9.36h-9.42v-9.37H130V187.82h-9.45V148.88h9.38V130.12h10.86v9.38h9.38v9.38h9.37v9.37h9.38v9.38h9.38V177h9.37v9.38H197v9.37h9.38v9.38H217.3v10.8h9.39Z"/></svg>