<svg id="Слой_1" data-name="Слой 1" xmlns="http://www.w3.org/2000/svg" viewBox="0 0 488.89 484.36"><defs><style>.cls-1{fill:none;}.cls-2{fill:#fff;}.cls-3{fill:#1d1d1b;}</style></defs><polygon class="cls-1" points="211.1 266.91 211.06 266.91 211.06 266.94 211.1 266.91"/><path class="cls-2" d="M251.11,231.45h13.32V218.12h13.33V204.8h13.32V155.58H197.74V204.8h13.32v13.32h13.33v13.33l.07.07h13.32v22.06H224.46l-.07.08v13.25H211.1l0,0v13.29H197.74v48.54h93.34V280.23H277.76V266.91H264.43V253.58H251.11ZM224.46,204.8V191.47h13.32V204.8h13.33V191.47h13.32V204.8H251.11v13.32H237.78V204.8Zm40,86.38V304.5h10v13.33H214.2V304.5h10.26V291.18h13.32V277.85h13.33v13.33Z"/><polygon class="cls-3" points="291.08 155.58 291.08 204.8 304.41 204.8 304.41 155.58 311.64 155.58 311.64 142.26 177.25 142.26 177.25 155.58 184.41 155.58 184.41 204.8 197.74 204.8 197.74 155.58 291.08 155.58"/><polygon class="cls-3" points="197.74 328.77 197.74 280.23 184.41 280.23 184.41 328.77 177.25 328.77 177.25 342.1 311.64 342.1 311.64 328.77 304.41 328.77 304.41 280.23 291.08 280.23 291.08 328.77 197.74 328.77"/><rect class="cls-3" x="224.46" y="191.47" width="13.32" height="13.32"/><rect class="cls-3" x="251.11" y="191.47" width="13.32" height="13.32"/><rect class="cls-3" x="237.78" y="204.8" width="13.32" height="13.32"/><polygon class="cls-3" points="251.11 277.85 237.78 277.85 237.78 291.18 224.46 291.18 224.46 304.5 214.2 304.5 214.2 317.83 274.44 317.83 274.44 304.5 264.43 304.5 264.43 291.18 251.11 291.18 251.11 277.85"/><rect class="cls-3" x="197.74" y="204.8" width="13.32" height="13.32"/><polygon class="cls-3" points="277.76 218.12 277.76 218.12 291.08 218.12 291.08 204.8 277.76 204.8 277.76 218.12"/><polygon class="cls-3" points="264.43 218.12 264.43 231.45 277.76 231.45 277.76 218.12 277.76 218.12 264.43 218.12"/><polygon class="cls-3" points="211.06 218.12 211.06 231.45 224.39 231.45 224.39 231.45 224.39 218.12 211.06 218.12"/><polygon class="cls-3" points="211.06 266.94 211.06 266.91 197.74 266.91 197.74 280.23 211.06 280.23 211.06 266.94"/><polygon class="cls-3" points="277.76 280.23 291.08 280.23 291.08 266.91 277.76 266.91 277.76 266.91 277.76 280.23"/><polygon class="cls-3" points="277.76 266.91 277.76 266.91 277.76 253.59 264.43 253.59 264.43 266.91 277.76 266.91"/><polygon class="cls-3" points="224.39 266.91 224.39 253.66 224.39 253.59 211.06 253.59 211.06 266.91 211.1 266.91 224.39 266.91"/><rect class="cls-3" x="224.46" y="231.52" width="13.32" height="22.07"/><rect class="cls-3" x="251.11" y="231.45" width="13.32" height="22.14"/></svg>