<svg id="Слой_1" data-name="Слой 1" xmlns="http://www.w3.org/2000/svg" viewBox="0 0 1920 100"><defs><style>.cls-1{fill:#b2b2b2;stroke:#191918;}.cls-1,.cls-2,.cls-3,.cls-4,.cls-6,.cls-7{stroke-miterlimit:10;}.cls-1,.cls-2,.cls-3,.cls-4{stroke-width:2px;}.cls-2,.cls-7{fill:#3c3c3b;}.cls-2,.cls-3,.cls-4{stroke:#000;}.cls-3{fill:#706f6f;}.cls-4,.cls-6{fill:#c14f4f;}.cls-5{fill:#191918;}.cls-6,.cls-7{stroke:#231f20;stroke-width:0.05px;}</style></defs><rect class="cls-1" width="1920" height="72.87"/><circle class="cls-2" cx="151.03" cy="38.45" r="21.4"/><circle class="cls-3" cx="97.16" cy="38.45" r="21.4"/><circle class="cls-4" cx="43.29" cy="38.45" r="21.4"/><rect class="cls-5" x="221.72" y="36.43" width="1531.84" height="4.03"/><polygon class="cls-6" points="1836.82 17.08 1823.38 17.08 1823.38 23.43 1817.9 23.43 1817.9 17.08 1804.47 17.08 1804.47 23.43 1798.12 23.43 1798.12 36.87 1804.47 36.87 1804.47 43.22 1810.82 43.22 1810.82 49.57 1817.09 49.57 1817.09 55.79 1824.18 55.79 1824.18 49.57 1830.47 49.57 1830.47 43.22 1836.82 43.22 1836.82 36.87 1843.17 36.87 1843.17 23.43 1836.82 23.43 1836.82 17.08"/><path class="cls-7" d="M1894.62,23.43V17.08h-13.44v6.35h-5.48V17.08h-13.44v6.35h-6.35V36.87h6.35v6.35h6.35v6.35h6.28v6.22H1882V49.57h6.3V43.22h6.35V36.87H1901V23.43Zm-.73,12.7h-6.36v6.35h-6.35V48.7h-5.48V42.48h-6.35V36.13H1863v-12h12v6.35h7.09V24.17h11.84Z"/></svg>